<svg version="1.1" xmlns="http://www.w3.org/2000/svg" viewBox="0 0 303.9040044780586 279.7243498671393" width="303.9040044780586" height="279.7243498671393"><!-- svg-source:excalidraw --><metadata></metadata><defs><style class="style-fonts">
      </style></defs><g stroke-linecap="round"><g stroke-opacity="0.5" fill-opacity="0.5" transform="translate(160.35885348809552 81.2893298183273) rotate(0 64.55437801226435 50.10538365572863)" fill-rule="evenodd"><path d="M1.9 -2.83 C3.9 -9.88, 0.83 -28.88, 9.62 -38.85 C18.41 -48.82, 39.04 -60.06, 54.63 -62.67 C70.21 -65.28, 90.79 -63.8, 103.13 -54.52 C115.47 -45.24, 126.78 -25.05, 128.67 -6.99 C130.56 11.07, 125.73 37.72, 114.45 53.86 C103.18 70, 73.79 80.84, 61 89.84 C48.21 98.84, 47.29 95.21, 37.72 107.84 C28.15 120.48, 6.66 163.46, 3.59 165.65 C0.51 167.83, 6.74 138.48, 19.28 120.95 C31.81 103.43, 62.17 77.96, 78.78 60.51 C95.38 43.07, 114.15 31.27, 118.9 16.28 C123.64 1.29, 113.28 -18.02, 107.25 -29.43 C101.22 -40.85, 94.17 -48.8, 82.73 -52.2 C71.3 -55.61, 51.99 -56.75, 38.67 -49.86 C25.34 -42.96, 8.69 -19.31, 2.78 -10.84 C-3.13 -2.36, 3.45 -0.72, 3.2 0.99" stroke="none" stroke-width="0" fill="#e78190" fill-rule="evenodd"></path><path d="M-2.2 -1.68 C0.02 -7.8, 5.09 -26.69, 13.44 -36.36 C21.79 -46.04, 32.98 -56.16, 47.9 -59.74 C62.82 -63.32, 89.55 -65.56, 102.96 -57.84 C116.37 -50.12, 126.61 -31.46, 128.36 -13.41 C130.11 4.64, 124.16 32.58, 113.47 50.47 C102.78 68.36, 76.9 83.48, 64.22 93.91 C51.55 104.34, 47.62 101.75, 37.41 113.07 C27.19 124.39, 5.63 160.23, 2.96 161.82 C0.28 163.42, 8.08 139.21, 21.35 122.63 C34.61 106.05, 66.52 81.1, 82.56 62.36 C98.6 43.62, 113.63 25.91, 117.58 10.19 C121.53 -5.53, 112.76 -21.6, 106.26 -31.94 C99.76 -42.28, 90.42 -48.11, 78.57 -51.86 C66.72 -55.6, 47.74 -61.62, 35.14 -54.43 C22.54 -47.23, 8.71 -18.22, 2.98 -8.69 C-2.75 0.83, 0.87 1.41, 0.77 2.71 M1.8 3.58 C3.8 -3.28, 3.57 -28.55, 12.17 -39.86 C20.77 -51.17, 38.35 -61.69, 53.41 -64.3 C68.46 -66.91, 89.21 -63.94, 102.5 -55.51 C115.78 -47.07, 130.76 -32.15, 133.12 -13.69 C135.48 4.76, 127.78 37.65, 116.66 55.21 C105.55 72.76, 80.01 82, 66.45 91.61 C52.89 101.23, 46.49 101.76, 35.3 112.92 C24.12 124.09, 2.57 157.16, -0.65 158.61 C-3.87 160.05, 1.9 137.33, 15.98 121.58 C30.07 105.84, 67.26 81.63, 83.86 64.12 C100.46 46.61, 111.84 31.62, 115.58 16.53 C119.32 1.44, 112.83 -14.78, 106.29 -26.39 C99.74 -38, 88.18 -48.12, 76.3 -53.13 C64.42 -58.14, 48.07 -64.32, 35.01 -56.44 C21.94 -48.57, 4.02 -14.86, -2.11 -5.9 C-8.24 3.06, -2.22 -3.58, -1.77 -2.69" stroke="#e03131" stroke-width="1" fill="none"></path></g></g><mask></mask><g stroke-linecap="round"><g transform="translate(161.39318901475963 89.43819516671175) rotate(0 53.77589431888123 59.582681029370605)"><path d="M1.79 2.79 C3.68 -3.28, 2.89 -27.62, 9.18 -38.1 C15.46 -48.58, 26.33 -56.64, 39.49 -60.09 C52.65 -63.53, 76.14 -65.4, 88.12 -58.78 C100.09 -52.15, 109.65 -36.13, 111.33 -20.34 C113.02 -4.55, 109.64 17.98, 98.25 35.96 C86.86 53.94, 58.85 72.15, 43 87.55 C27.15 102.95, 10.54 113.14, 3.15 128.34 C-4.24 143.55, -0.31 170.56, -1.34 178.79 M-0.69 1.84 C2.26 -4.88, 6.59 -32.3, 14.25 -42.14 C21.91 -51.99, 32.94 -54.72, 45.28 -57.25 C57.62 -59.79, 77.89 -63.44, 88.29 -57.38 C98.7 -51.31, 106.83 -36.16, 107.72 -20.86 C108.61 -5.57, 104.13 16.74, 93.65 34.39 C83.17 52.03, 60.26 69.5, 44.83 85.03 C29.4 100.56, 9.18 112.5, 1.07 127.59 C-7.04 142.67, -3.53 167.47, -3.82 175.55" stroke="#e03131" stroke-width="1" fill="none"></path></g></g><mask></mask><g stroke-linecap="round"><g transform="translate(149.8574075004658 81.29945457452033) rotate(0 68.92403356363616 47.96910760839128)"><path d="M-2.44 1.79 C0.14 -6.17, 5.12 -32.83, 17.27 -44.94 C29.42 -57.05, 52.5 -69.95, 70.45 -70.89 C88.39 -71.84, 113.52 -64.99, 124.97 -50.64 C136.42 -36.28, 141.87 -4.49, 139.15 15.26 C136.43 35.01, 125.16 51.37, 108.64 67.86 C92.12 84.35, 56.15 98.07, 40.01 114.2 C23.87 130.34, 16.78 156.43, 11.79 164.65 M1.43 0.29 C4.75 -6.04, 11.5 -30.04, 22.63 -41.59 C33.77 -53.13, 51.1 -67.68, 68.23 -68.99 C85.36 -70.31, 114.05 -63.82, 125.41 -49.48 C136.77 -35.14, 138.57 -2.2, 136.38 17.06 C134.2 36.32, 128.04 50.39, 112.29 66.06 C96.54 81.73, 58.78 94.77, 41.87 111.08 C24.96 127.38, 16.7 154.32, 10.84 163.87" stroke="#e03131" stroke-width="1" fill="none"></path></g></g><mask></mask><g stroke-linecap="round"><g transform="translate(143.66793814435505 76.16773805008302) rotate(0 -60.0876190041954 81.29501394685279)"><path d="M-1.92 -0.51 C-8.03 -6.06, -22.65 -26.52, -39.13 -31.51 C-55.6 -36.5, -85.93 -38.4, -100.74 -30.44 C-115.55 -22.48, -125.16 -2.3, -127.96 16.27 C-130.77 34.84, -128.4 62.73, -117.57 80.99 C-106.74 99.25, -80.64 112.34, -63 125.82 C-45.35 139.3, -22.69 153.65, -11.69 161.88 C-0.69 170.11, -0.86 170.59, 3.01 175.19 C6.89 179.79, 10.69 187.05, 11.54 189.48 M2.24 -3.25 C-4.09 -8.68, -24.28 -24.83, -41.77 -29.09 C-59.26 -33.34, -88.54 -35.48, -102.69 -28.78 C-116.84 -22.08, -123.67 -7.44, -126.67 11.11 C-129.68 29.67, -131.95 63.85, -120.73 82.57 C-109.5 101.28, -76.55 110.72, -59.32 123.41 C-42.09 136.1, -27.42 150.32, -17.35 158.72 C-7.27 167.13, -3.25 168.02, 1.13 173.83 C5.51 179.63, 7.54 189.83, 8.93 193.56" stroke="#e03131" stroke-width="1" fill="none"></path></g></g><mask></mask><g stroke-linecap="round"><g transform="translate(129.82007977850571 76.0375475839736) rotate(0 -42.414789885314576 74.98328926153813)"><path d="M-0.75 -2.22 C-7.71 -6.29, -31.4 -22.41, -43.68 -24.88 C-55.96 -27.36, -64.9 -23.93, -74.44 -17.06 C-83.98 -10.19, -98.27 0.45, -100.91 16.36 C-103.55 32.26, -105.76 57, -90.26 78.35 C-74.76 99.7, -25.89 128.99, -7.9 144.46 C10.08 159.92, 13.15 166.93, 17.66 171.15 M4.04 2.74 C-3.15 -1.03, -32.8 -18.63, -46.06 -22.7 C-59.32 -26.78, -66.55 -27.32, -75.54 -21.71 C-84.53 -16.1, -97.03 -5.86, -100.01 10.98 C-102.98 27.82, -108.11 57.48, -93.4 79.32 C-78.69 101.17, -30.59 125.9, -11.74 142.03 C7.11 158.15, 14.75 170.34, 19.72 176.06" stroke="#e03131" stroke-width="1" fill="none"></path></g></g><mask></mask><g stroke-linecap="round"><g transform="translate(158.84004116377855 70.94639810820917) rotate(0 64.12712280279675 57.31046014265702)"><path d="M-0.26 -2.67 C2.78 -7.92, 5.29 -25.36, 17.46 -33.72 C29.63 -42.08, 55.74 -53.74, 72.79 -52.82 C89.85 -51.9, 110.1 -39.94, 119.79 -28.19 C129.48 -16.43, 132.49 3.51, 130.96 17.72 C129.42 31.92, 120.29 45.49, 110.57 57.04 C100.85 68.58, 84.87 78.28, 72.64 86.98 C60.41 95.68, 47.12 101.51, 37.18 109.23 C27.24 116.95, 19.15 123.61, 13.01 133.3 C6.87 142.99, 1.83 161.52, 0.34 167.36 M-3.84 2.06 C-0.99 -3.8, 3.4 -27.89, 15.93 -37.85 C28.45 -47.81, 53.84 -59.75, 71.3 -57.69 C88.76 -55.64, 111.1 -38.26, 120.71 -25.53 C130.32 -12.81, 131.44 5.41, 128.95 18.66 C126.46 31.92, 116.15 41.94, 105.8 54.02 C95.45 66.1, 78.78 82.27, 66.85 91.14 C54.92 100.02, 42.54 99.49, 34.24 107.28 C25.95 115.06, 22.59 128.13, 17.09 137.85 C11.59 147.57, 3.1 160.15, 1.24 165.59" stroke="#e03131" stroke-width="1" fill="none"></path></g></g><mask></mask><g stroke-linecap="round"><g transform="translate(148.69680029792653 80.68976279995803) rotate(0 -59.835150016782336 70.94378546293675)"><path d="M1.3 1.62 C-4.87 -2.61, -25.56 -22.35, -37.29 -28.08 C-49.01 -33.8, -57.71 -33.72, -69.06 -32.73 C-80.4 -31.75, -95.99 -30.15, -105.36 -22.17 C-114.72 -14.2, -122.93 2.41, -125.24 15.13 C-127.55 27.85, -128.84 38.18, -119.24 54.16 C-109.63 70.14, -86.52 93.85, -67.6 111 C-48.67 128.14, -17.75 146.63, -5.67 157.03 C6.41 167.44, 2.5 170.52, 4.88 173.42 M-1.44 0.04 C-7.9 -4.81, -27.69 -27.5, -39.21 -32.43 C-50.72 -37.37, -58.4 -31.72, -70.52 -29.57 C-82.65 -27.43, -102.34 -27.05, -111.95 -19.54 C-121.55 -12.03, -126.29 2.39, -128.17 15.49 C-130.05 28.59, -133.47 42.41, -123.21 59.04 C-112.95 75.68, -85.67 99.25, -66.59 115.31 C-47.51 131.37, -21.25 144.94, -8.71 155.4 C3.83 165.87, 6.73 175.13, 8.67 178.09" stroke="#e03131" stroke-width="1" fill="none"></path></g></g><mask></mask><g stroke-linecap="round"><g stroke-opacity="0.5" fill-opacity="0.5" transform="translate(147.89147073696813 76.13168458657049) rotate(0 -57.4464049820333 72.47802007875173)" fill-rule="evenodd"><path d="M-1.75 2.81 C-10.38 -1.58, -31.69 -22.26, -47.51 -27.5 C-63.34 -32.74, -83.66 -34.14, -96.69 -28.64 C-109.71 -23.14, -121.74 -10.94, -125.67 5.51 C-129.6 21.97, -129.48 50.78, -120.29 70.09 C-111.1 89.4, -92.15 103.88, -70.52 121.37 C-48.89 138.86, 2.78 173.51, 9.49 175.02 C16.19 176.53, -12.01 146.63, -30.29 130.43 C-48.57 114.23, -87.14 98.32, -100.17 77.81 C-113.2 57.3, -111.16 23.36, -108.48 7.35 C-105.81 -8.65, -93.7 -14.49, -84.13 -18.24 C-74.56 -22, -65.39 -17.8, -51.06 -15.17 C-36.73 -12.53, -7.19 -5.14, 1.85 -2.45" stroke="none" stroke-width="0" fill="#e78190" fill-rule="evenodd"></path><path d="M0.58 1.21 C-7.37 -4.33, -30.57 -26.52, -46.45 -31.61 C-62.33 -36.69, -82 -35.74, -94.71 -29.32 C-107.43 -22.9, -118.75 -9.91, -122.75 6.93 C-126.76 23.76, -127.07 53.65, -118.73 71.72 C-110.39 89.79, -93.8 98.11, -72.72 115.35 C-51.65 132.58, 0.47 172.35, 7.73 175.13 C14.98 177.91, -10.91 148.9, -29.18 132.01 C-47.45 115.12, -88.8 94.2, -101.89 73.81 C-114.99 53.42, -110.61 24.85, -107.76 9.67 C-104.92 -5.51, -93.7 -12.96, -84.81 -17.28 C-75.92 -21.59, -68.78 -18.8, -54.45 -16.22 C-40.11 -13.64, -7.64 -4.55, 1.22 -1.81 M-2.54 -0.61 C-10.94 -5.8, -32.93 -23.66, -48.35 -27.93 C-63.77 -32.19, -82.84 -32.33, -95.05 -26.18 C-107.27 -20.03, -117.33 -7.28, -121.63 8.97 C-125.93 25.23, -129.49 52.77, -120.87 71.34 C-112.25 89.91, -91.49 102.31, -69.9 120.39 C-48.32 138.46, 0.96 178.08, 8.63 179.77 C16.3 181.46, -4.98 148.74, -23.87 130.51 C-42.77 112.27, -91.12 90.45, -104.73 70.37 C-118.34 50.3, -107.75 24.38, -105.53 10.08 C-103.31 -4.23, -100.68 -11.09, -91.42 -15.44 C-82.16 -19.79, -65.62 -19.24, -49.98 -16.01 C-34.34 -12.79, -5.3 1.25, 2.42 3.9" stroke="#e03131" stroke-width="1" fill="none"></path></g></g><mask></mask><g stroke-linecap="round"><g transform="translate(150.55985572809095 90.40325889519812) rotate(0 68.92403356363616 47.96910760839128)"><path d="M0.63 0.09 C4.18 -7.51, 9.96 -32.76, 21.89 -44.39 C33.82 -56.02, 54.56 -68.71, 72.19 -69.7 C89.82 -70.7, 116.89 -63.9, 127.68 -50.36 C138.46 -36.83, 140.36 -7.73, 136.9 11.52 C133.44 30.77, 123.46 48.25, 106.93 65.13 C90.39 82.02, 53.67 96.3, 37.71 112.82 C21.74 129.35, 15.78 155.22, 11.14 164.31 M-2.48 -2.33 C0.89 -9.55, 8.88 -29.93, 21.12 -40.74 C33.35 -51.54, 54.28 -65.77, 70.92 -67.15 C87.56 -68.54, 109.18 -62.13, 120.95 -49.06 C132.73 -35.98, 143.44 -8.63, 141.56 11.3 C139.67 31.22, 126.85 52.78, 109.65 70.49 C92.44 88.21, 54.95 102.11, 38.31 117.59 C21.67 133.06, 15.16 155.35, 9.83 163.34" stroke="#e03131" stroke-width="1" fill="none"></path></g></g><mask></mask><g stroke-linecap="round"><g transform="translate(267.15647192463894 129.72892293430579) rotate(0 -46.2706798748884 50.40199057800362)"><path d="M2.7 0.04 C-8.35 8.58, -50.19 34.9, -65.66 51.3 C-81.12 67.69, -85.45 90.51, -90.09 98.41 M0.72 -2.4 C-10.66 6.52, -52.14 37.27, -67.35 54.37 C-82.57 71.47, -86.22 92.59, -90.56 100.22" stroke="#e03131" stroke-width="1" fill="none"></path></g></g><mask></mask><g stroke-linecap="round"><g transform="translate(196.67253552099828 26.589206998438783) rotate(0 47.64778344259366 36.6309549009535)"><path d="M0.99 -1.03 C7.1 -2.91, 25.73 -14.88, 39.36 -11.21 C52.99 -7.53, 73.65 5.73, 82.78 21.02 C91.92 36.32, 92.36 70.6, 94.17 80.56 M-1.91 -4.06 C3.8 -5.67, 24.73 -13.39, 38.45 -8.88 C52.18 -4.37, 71.18 7.79, 80.46 22.99 C89.74 38.19, 91.23 72.67, 94.13 82.34" stroke="#e03131" stroke-width="1" fill="none"></path></g></g><mask></mask><g stroke-linecap="round"><g transform="translate(268.09190466360405 27.01825559141338) rotate(0 -47.37236272905261 -7.436359265607081)"><path d="M2.45 -2.39 C-4.3 -5.05, -23.12 -16.3, -39.5 -16.98 C-55.89 -17.66, -86.39 -8.26, -95.88 -6.48 M0.34 2.48 C-6.96 0.2, -25.81 -13.39, -42.25 -14.5 C-58.69 -15.61, -89.21 -5.88, -98.3 -4.19" stroke="#e03131" stroke-width="1" fill="none"></path></g></g><mask></mask><g stroke-linecap="round"><g transform="translate(132.5677690326147 67.22267705752284) rotate(0 -54.80872199465989 -11.292249255181147)"><path d="M-0.94 -2.11 C-9.62 -5.73, -36.45 -20.84, -49.6 -24.1 C-62.76 -27.36, -70.24 -25, -79.9 -21.67 C-89.56 -18.35, -102.75 -7.58, -107.57 -4.16 M3.74 2.92 C-5.64 -0.14, -39.5 -17.6, -52.46 -21.3 C-65.41 -24.99, -65.08 -22.53, -73.98 -19.26 C-82.88 -16, -99.56 -3.7, -105.88 -1.72" stroke="#e03131" stroke-width="1" fill="none"></path></g></g><mask></mask><g stroke-linecap="round"><g transform="translate(34.42532632705752 46.808068921163255) rotate(0 22.58449851036221 78.21948264564487)"><path d="M-1.13 -1.52 C-4.83 4.13, -20.57 16.87, -23.16 31.76 C-25.75 46.65, -24.71 70.64, -16.68 87.83 C-8.65 105.02, 10.73 123.63, 25.01 134.92 C39.29 146.2, 62.32 151.58, 69 155.54 M3.45 3.83 C0.75 10.03, -14.2 20.2, -17.67 34.69 C-21.14 49.18, -24.66 74.83, -17.38 90.78 C-10.1 106.72, 11.98 119.49, 26.01 130.35 C40.04 141.22, 59.87 151.47, 66.81 155.98" stroke="#e03131" stroke-width="1" fill="none"></path></g></g><mask></mask><g stroke-linecap="round"><g transform="translate(188.37466261019154 21.866004950172965) rotate(0 -18.728608520788384 45.16899702072456)"><path d="M-1.68 -1.29 C-5.83 3.41, -20.21 10.96, -26.05 26.69 C-31.88 42.41, -35.18 82.59, -36.69 93.05 M2.6 4.18 C-1.63 9.47, -20.39 16.02, -27.17 30.15 C-33.95 44.29, -37.06 78.76, -38.08 88.99" stroke="#e03131" stroke-width="1" fill="none"></path></g></g><mask></mask></svg>
