<svg version="1.1" xmlns="http://www.w3.org/2000/svg" viewBox="0 0 338.4282952721078 325.11778775269477" width="338.4282952721078" height="325.11778775269477"><!-- svg-source:excalidraw --><metadata></metadata><defs><style class="style-fonts">
      </style></defs><g transform="translate(88.83915992267612 236.27862783001865) rotate(0 97.78103600799432 -30.71655581402979)" stroke="none"><path fill="#a61e4d" d="M 0.33,-3.35 Q 0.33,-3.35 6.21,-2.66 12.08,-1.97 18.02,-1.65 23.96,-1.34 30.32,-1.18 36.67,-1.02 45.26,-0.93 53.84,-0.85 59.85,-0.80 65.86,-0.75 70.18,-0.72 74.50,-0.70 77.81,-0.86 81.11,-1.02 84.87,-1.07 88.63,-1.12 94.35,-1.05 100.07,-0.97 105.15,-0.92 110.23,-0.86 114.75,-0.82 119.26,-0.78 122.65,-0.93 126.04,-1.07 129.54,-1.16 133.04,-1.26 136.59,-1.63 140.14,-2.01 143.46,-2.61 146.79,-3.21 151.51,-5.18 156.22,-7.15 160.10,-9.19 163.97,-11.23 167.70,-15.27 171.43,-19.30 174.02,-22.75 176.61,-26.20 178.58,-28.82 180.56,-31.43 182.51,-33.99 184.47,-36.55 185.68,-38.66 186.88,-40.77 187.20,-44.13 187.52,-47.49 188.39,-51.25 189.26,-55.00 189.79,-57.51 190.32,-60.02 190.63,-62.21 190.95,-64.39 191.22,-65.10 191.49,-65.81 191.97,-66.40 192.45,-66.99 193.09,-67.40 193.73,-67.80 194.47,-67.98 195.21,-68.16 195.96,-68.09 196.72,-68.02 197.42,-67.72 198.11,-67.41 198.67,-66.90 199.24,-66.39 199.60,-65.73 199.97,-65.06 200.11,-64.32 200.25,-63.57 200.14,-62.82 200.04,-62.07 199.69,-61.39 199.35,-60.71 198.81,-60.18 198.27,-59.64 197.59,-59.31 196.90,-58.98 196.15,-58.88 195.40,-58.78 194.65,-58.93 193.91,-59.08 193.25,-59.46 192.59,-59.84 192.09,-60.41 191.58,-60.97 191.29,-61.67 190.99,-62.37 190.94,-63.13 190.88,-63.89 191.07,-64.62 191.26,-65.36 191.67,-66.00 192.08,-66.63 192.68,-67.11 193.27,-67.58 193.99,-67.84 194.70,-68.09 195.46,-68.11 196.22,-68.12 196.95,-67.89 197.67,-67.67 198.29,-67.22 198.90,-66.77 199.34,-66.15 199.78,-65.53 199.99,-64.80 200.21,-64.08 200.19,-63.32 200.16,-62.56 200.16,-62.56 200.16,-62.56 199.57,-60.18 198.98,-57.80 198.29,-55.52 197.59,-53.24 196.95,-49.88 196.32,-46.53 195.45,-41.51 194.59,-36.50 192.51,-34.13 190.42,-31.77 188.34,-29.30 186.25,-26.82 184.25,-24.53 182.25,-22.24 179.65,-18.29 177.04,-14.33 172.71,-9.27 168.37,-4.20 164.35,-1.45 160.32,1.29 156.95,2.98 153.58,4.67 150.86,5.40 148.14,6.13 144.14,6.12 140.14,6.11 136.59,5.73 133.04,5.35 129.54,5.26 126.04,5.17 122.65,5.02 119.26,4.88 114.75,4.92 110.23,4.96 105.15,5.01 100.07,5.07 94.35,5.14 88.63,5.21 84.87,5.16 81.11,5.11 77.80,4.94 74.49,4.77 70.17,4.78 65.84,4.79 59.83,4.80 53.81,4.81 45.19,4.81 36.57,4.80 30.14,4.75 23.71,4.69 17.58,4.51 11.45,4.33 5.56,3.84 -0.33,3.35 -0.73,3.26 -1.12,3.17 -1.49,2.99 -1.85,2.81 -2.16,2.55 -2.47,2.28 -2.71,1.96 -2.95,1.63 -3.10,1.25 -3.25,0.87 -3.31,0.47 -3.37,0.07 -3.33,-0.33 -3.29,-0.73 -3.15,-1.12 -3.01,-1.50 -2.79,-1.84 -2.57,-2.18 -2.27,-2.45 -1.97,-2.73 -1.61,-2.93 -1.26,-3.12 -0.86,-3.23 -0.47,-3.33 -0.07,-3.34 0.33,-3.35 0.33,-3.35 L 0.33,-3.35 Z"></path></g><g transform="translate(277.2340355820579 33.549359457422725) rotate(0 -108.01988794600402 129.00953441892466)" stroke="none"><path fill="#a61e4d" d="M -0.51,3.08 Q -0.51,3.08 -5.80,2.13 -11.09,1.18 -22.30,-1.92 -33.52,-5.02 -46.79,-9.00 -60.05,-12.98 -68.30,-15.26 -76.54,-17.53 -82.55,-18.48 -88.56,-19.43 -96.34,-19.84 -104.13,-20.24 -117.74,-20.43 -131.36,-20.61 -142.16,-20.69 -152.96,-20.77 -161.10,-19.07 -169.25,-17.37 -176.38,-14.08 -183.51,-10.79 -188.15,-8.75 -192.79,-6.72 -197.01,-4.43 -201.23,-2.15 -206.16,-0.21 -211.08,1.72 -214.54,3.20 -218.00,4.68 -221.05,6.46 -224.11,8.23 -226.71,10.38 -229.31,12.54 -232.77,14.53 -236.22,16.53 -238.84,18.67 -241.46,20.82 -245.24,24.51 -249.02,28.20 -251.46,31.40 -253.90,34.61 -255.73,37.53 -257.55,40.45 -258.40,43.18 -259.24,45.91 -259.83,48.56 -260.42,51.20 -260.58,53.86 -260.75,56.51 -261.09,59.33 -261.43,62.16 -261.94,65.62 -262.45,69.08 -262.81,73.04 -263.16,76.99 -263.40,82.81 -263.64,88.62 -263.72,92.58 -263.80,96.54 -263.74,99.99 -263.69,103.44 -263.82,107.84 -263.94,112.25 -263.45,118.69 -262.96,125.13 -259.89,135.29 -256.82,145.45 -254.64,151.92 -252.46,158.38 -250.71,162.20 -248.97,166.02 -247.06,169.70 -245.15,173.37 -242.16,176.77 -239.16,180.17 -236.59,182.81 -234.01,185.44 -231.07,189.72 -228.13,194.01 -225.46,198.16 -222.78,202.31 -220.48,205.81 -218.18,209.31 -214.15,213.25 -210.13,217.18 -205.98,221.31 -201.84,225.44 -198.06,228.93 -194.28,232.41 -190.62,235.66 -186.96,238.91 -180.54,243.13 -174.12,247.35 -167.36,250.58 -160.61,253.80 -154.55,256.05 -148.49,258.29 -141.67,259.50 -134.85,260.71 -127.43,262.14 -120.00,263.56 -111.53,265.35 -103.06,267.14 -95.92,268.79 -88.77,270.43 -80.69,272.61 -72.62,274.79 -64.64,275.98 -56.67,277.17 -48.61,277.67 -40.56,278.18 -35.95,278.40 -31.34,278.62 -28.27,277.72 -25.20,276.82 -22.56,275.52 -19.92,274.23 -16.18,272.11 -12.43,270.00 -6.94,266.74 -1.45,263.48 2.77,259.89 7.00,256.29 11.45,251.85 15.91,247.40 20.48,242.85 25.06,238.30 28.26,232.25 31.46,226.21 33.74,220.41 36.02,214.62 37.58,209.82 39.14,205.02 40.08,200.44 41.01,195.86 41.71,191.56 42.41,187.25 43.30,181.86 44.19,176.47 45.17,171.77 46.15,167.07 46.82,163.07 47.48,159.08 47.77,154.56 48.06,150.05 48.20,143.42 48.33,136.80 47.81,130.56 47.28,124.32 46.18,116.38 45.09,108.44 43.18,101.37 41.27,94.30 39.00,87.48 36.72,80.65 33.71,73.08 30.70,65.51 28.51,58.95 26.31,52.40 24.51,47.31 22.71,42.22 21.07,37.70 19.42,33.19 17.33,29.38 15.23,25.57 13.56,23.14 11.88,20.71 9.55,17.26 7.22,13.81 5.03,10.84 2.84,7.87 0.00,6.07 -2.83,4.28 -3.44,3.71 -4.05,3.14 -4.45,2.42 -4.84,1.69 -4.99,0.87 -5.13,0.05 -5.00,-0.76 -4.88,-1.58 -4.50,-2.32 -4.11,-3.06 -3.52,-3.64 -2.92,-4.22 -2.17,-4.57 -1.42,-4.93 -0.59,-5.03 0.22,-5.13 1.03,-4.95 1.85,-4.78 2.56,-4.36 3.28,-3.94 3.82,-3.32 4.37,-2.69 4.68,-1.92 5.00,-1.15 5.05,-0.32 5.11,0.50 4.89,1.30 4.68,2.10 4.22,2.80 3.76,3.49 3.10,4.00 2.45,4.51 1.66,4.78 0.88,5.05 0.05,5.06 -0.77,5.07 -1.56,4.81 -2.35,4.56 -3.02,4.06 -3.69,3.56 -4.16,2.88 -4.63,2.20 -4.86,1.40 -5.09,0.60 -5.06,-0.22 -5.02,-1.05 -4.72,-1.82 -4.42,-2.60 -3.89,-3.24 -3.36,-3.87 -2.65,-4.31 -1.94,-4.75 -1.13,-4.93 -0.32,-5.12 0.49,-5.04 1.32,-4.96 2.08,-4.62 2.83,-4.27 2.83,-4.27 2.83,-4.28 4.70,-2.88 6.56,-1.48 8.48,0.75 10.40,2.99 12.26,6.60 14.12,10.21 15.64,13.91 17.16,17.61 18.50,20.33 19.85,23.06 22.10,27.22 24.36,31.38 26.02,35.92 27.67,40.46 29.49,45.59 31.30,50.73 33.45,57.14 35.60,63.56 38.67,71.27 41.73,78.98 44.05,85.96 46.38,92.93 48.36,100.32 50.34,107.71 51.46,115.79 52.58,123.87 53.13,130.38 53.67,136.90 53.55,143.65 53.43,150.40 53.12,155.20 52.82,160.01 52.07,164.08 51.32,168.15 50.37,172.74 49.41,177.33 48.53,182.71 47.65,188.09 46.94,192.51 46.23,196.93 45.23,201.80 44.23,206.67 42.63,211.63 41.03,216.59 38.64,222.68 36.25,228.77 32.63,235.45 29.00,242.13 24.44,246.74 19.88,251.35 15.30,255.99 10.73,260.64 6.17,264.58 1.62,268.52 -3.85,271.92 -9.32,275.31 -13.37,277.76 -17.42,280.22 -20.65,281.36 -23.89,282.50 -27.71,283.18 -31.53,283.86 -36.22,283.64 -40.90,283.42 -49.17,282.89 -57.44,282.37 -65.71,281.12 -73.98,279.87 -81.97,277.72 -89.95,275.56 -97.05,273.92 -104.15,272.29 -112.57,270.51 -121.00,268.74 -128.39,267.32 -135.78,265.90 -143.05,264.58 -150.31,263.25 -156.60,260.91 -162.89,258.58 -169.96,255.18 -177.04,251.79 -183.76,247.35 -190.48,242.91 -194.19,239.63 -197.90,236.36 -201.77,232.82 -205.64,229.28 -209.79,225.18 -213.95,221.08 -218.37,216.73 -222.78,212.38 -225.12,208.87 -227.45,205.36 -230.13,201.31 -232.82,197.26 -235.57,193.34 -238.31,189.42 -240.80,186.60 -243.28,183.77 -246.66,179.88 -250.04,175.98 -252.05,172.19 -254.06,168.39 -255.98,164.33 -257.90,160.26 -260.20,153.72 -262.50,147.19 -265.82,136.44 -269.13,125.70 -269.81,118.97 -270.50,112.24 -270.61,107.82 -270.72,103.40 -270.64,99.94 -270.55,96.48 -270.56,92.50 -270.56,88.52 -270.63,82.57 -270.69,76.62 -270.64,72.30 -270.59,67.97 -270.14,64.41 -269.69,60.84 -269.17,58.23 -268.64,55.62 -268.15,52.40 -267.66,49.18 -266.70,46.33 -265.75,43.48 -264.34,40.19 -262.93,36.90 -260.84,33.96 -258.76,31.03 -256.14,27.39 -253.53,23.74 -249.58,19.64 -245.63,15.53 -242.52,13.18 -239.41,10.83 -236.32,9.16 -233.22,7.50 -230.11,5.21 -227.01,2.92 -223.55,1.16 -220.10,-0.59 -216.55,-1.88 -213.00,-3.17 -208.37,-4.98 -203.74,-6.79 -199.32,-9.17 -194.91,-11.55 -190.31,-13.58 -185.71,-15.60 -178.03,-19.08 -170.35,-22.56 -161.65,-24.33 -152.94,-26.10 -142.12,-26.03 -131.29,-25.97 -117.57,-25.80 -103.85,-25.64 -95.79,-25.23 -87.73,-24.82 -81.41,-23.84 -75.08,-22.87 -66.77,-20.63 -58.45,-18.38 -45.22,-14.49 -32.00,-10.60 -21.05,-7.65 -10.10,-4.71 -4.79,-3.89 0.51,-3.08 0.87,-2.97 1.23,-2.86 1.56,-2.67 1.88,-2.49 2.15,-2.22 2.42,-1.96 2.62,-1.64 2.82,-1.32 2.94,-0.97 3.06,-0.61 3.09,-0.23 3.12,0.13 3.05,0.51 2.99,0.88 2.84,1.22 2.69,1.57 2.47,1.87 2.24,2.17 1.95,2.41 1.65,2.64 1.31,2.80 0.97,2.96 0.60,3.04 0.23,3.11 -0.13,3.09 -0.51,3.08 -0.51,3.08 L -0.51,3.08 Z"></path></g><g transform="translate(256.7563317060385 96.00635627928295) rotate(0 -36.34792437993542 9.726909341109376)" stroke="none"><path fill="#a61e4d" d="M -0.74,5.19 Q -0.74,5.19 -2.81,4.95 -4.87,4.71 -7.84,4.69 -10.81,4.68 -13.27,4.77 -15.73,4.86 -15.17,7.22 -14.61,9.57 -14.79,12.03 -14.97,14.48 -18.01,13.76 -21.05,13.03 -19.21,11.44 -17.37,9.86 -16.87,7.62 -16.37,5.39 -15.77,2.49 -15.17,-0.39 -14.83,-3.19 -14.49,-5.98 -14.51,-8.53 -14.54,-11.08 -16.57,-12.70 -18.61,-14.32 -20.82,-15.63 -23.03,-16.93 -25.46,-17.01 -27.89,-17.08 -30.38,-17.09 -32.87,-17.09 -35.19,-17.09 -37.51,-17.09 -40.53,-17.11 -43.54,-17.12 -45.84,-17.12 -48.14,-17.11 -50.39,-17.13 -52.64,-17.16 -53.96,-14.99 -55.29,-12.83 -56.73,-11.01 -58.16,-9.19 -59.13,-6.95 -60.09,-4.70 -61.27,-2.27 -62.45,0.14 -62.79,2.59 -63.13,5.04 -63.72,7.31 -64.31,9.58 -64.43,12.25 -64.55,14.92 -64.58,17.50 -64.62,20.08 -65.46,23.55 -66.31,27.02 -64.09,27.49 -61.87,27.96 -59.25,29.11 -56.63,30.27 -54.55,31.44 -52.47,32.60 -49.75,33.16 -47.03,33.72 -45.00,34.74 -42.96,35.76 -40.31,36.37 -37.65,36.98 -35.07,36.94 -32.49,36.90 -29.95,36.86 -27.41,36.82 -25.52,34.54 -23.64,32.25 -22.11,29.67 -20.58,27.09 -18.76,25.60 -16.94,24.12 -16.81,23.23 -16.67,22.34 -15.98,21.40 -15.29,20.45 -14.34,19.78 -13.39,19.11 -12.27,18.77 -11.15,18.44 -9.99,18.48 -8.82,18.52 -7.73,18.93 -6.64,19.34 -5.73,20.08 -4.83,20.82 -4.21,21.81 -3.59,22.79 -3.31,23.93 -3.04,25.06 -3.14,26.22 -3.25,27.39 -3.72,28.46 -4.19,29.52 -4.97,30.39 -5.76,31.25 -6.78,31.82 -7.80,32.38 -8.95,32.59 -10.09,32.80 -11.25,32.64 -12.40,32.47 -13.45,31.94 -14.49,31.42 -15.31,30.59 -16.12,29.75 -16.64,28.70 -17.15,27.66 -17.29,26.50 -17.44,25.34 -17.21,24.20 -16.98,23.05 -16.40,22.04 -15.82,21.03 -14.95,20.26 -14.07,19.48 -12.99,19.03 -11.92,18.58 -10.76,18.49 -9.59,18.41 -8.46,18.70 -7.33,18.99 -6.35,19.63 -5.37,20.26 -4.65,21.18 -3.93,22.09 -3.53,23.19 -3.14,24.29 -3.12,25.46 -3.09,26.62 -3.45,27.74 -3.80,28.85 -3.80,28.85 -3.80,28.85 -5.63,31.82 -7.46,34.79 -9.10,36.15 -10.74,37.51 -11.85,39.57 -12.95,41.62 -14.89,44.10 -16.83,46.57 -19.32,48.16 -21.82,49.75 -23.85,50.44 -25.89,51.12 -28.39,51.14 -30.88,51.16 -33.32,51.11 -35.75,51.05 -38.04,50.92 -40.32,50.78 -43.61,50.02 -46.90,49.26 -49.84,47.83 -52.78,46.40 -57.33,45.03 -61.88,43.65 -64.21,42.38 -66.53,41.10 -69.22,39.46 -71.90,37.82 -73.98,36.50 -76.06,35.18 -77.84,32.66 -79.62,30.14 -79.89,27.44 -80.16,24.75 -79.41,21.37 -78.67,17.99 -78.67,14.40 -78.67,10.82 -78.25,7.35 -77.83,3.89 -77.16,1.68 -76.49,-0.51 -75.88,-3.66 -75.28,-6.81 -74.41,-8.84 -73.54,-10.87 -72.34,-13.62 -71.14,-16.37 -68.97,-19.37 -66.79,-22.38 -64.22,-25.37 -61.65,-28.37 -59.46,-29.64 -57.28,-30.90 -55.19,-31.44 -53.10,-31.98 -50.62,-32.00 -48.14,-32.02 -45.84,-32.02 -43.54,-32.01 -40.53,-32.03 -37.51,-32.05 -34.57,-32.04 -31.62,-32.04 -29.19,-32.04 -26.76,-32.04 -24.50,-32.00 -22.23,-31.95 -20.10,-31.56 -17.98,-31.17 -14.73,-29.01 -11.48,-26.85 -9.29,-25.28 -7.11,-23.70 -5.57,-22.14 -4.04,-20.58 -2.62,-18.75 -1.20,-16.92 -0.50,-13.18 0.20,-9.44 0.17,-6.88 0.14,-4.32 0.01,-1.75 -0.11,0.80 -1.09,3.99 -2.07,7.18 -2.13,9.79 -2.19,12.41 -2.62,14.55 -3.05,16.70 -5.83,19.26 -8.61,21.81 -11.94,22.61 -15.26,23.41 -18.59,24.60 -21.91,25.79 -24.89,20.72 -27.86,15.66 -27.62,12.76 -27.37,9.87 -26.97,7.71 -26.57,5.54 -25.88,3.04 -25.20,0.55 -23.67,-2.04 -22.14,-4.63 -18.88,-5.75 -15.63,-6.88 -13.06,-6.72 -10.48,-6.57 -6.92,-6.23 -3.36,-5.89 -1.31,-5.54 0.74,-5.19 1.35,-5.02 1.96,-4.86 2.51,-4.55 3.06,-4.25 3.53,-3.82 3.99,-3.39 4.34,-2.86 4.69,-2.33 4.90,-1.74 5.11,-1.14 5.18,-0.51 5.24,0.11 5.15,0.73 5.06,1.36 4.82,1.94 4.59,2.53 4.22,3.04 3.85,3.55 3.36,3.96 2.88,4.37 2.32,4.65 1.75,4.94 1.13,5.07 0.52,5.21 -0.11,5.20 -0.74,5.19 -0.74,5.19 L -0.74,5.19 Z"></path></g><g transform="translate(133.89010844991935 98.05412666688494) rotate(0 -6.655253759706284 2.5597129845024256)" stroke="none"><path fill="#a61e4d" d="M 1.65,4.97 Q 1.65,4.97 -0.08,5.62 -1.81,6.28 -3.88,8.18 -5.95,10.07 -8.28,10.93 -10.61,11.79 -11.06,9.43 -11.50,7.07 -8.55,6.82 -5.59,6.58 -3.23,6.53 -0.88,6.47 -2.96,5.74 -5.04,5.01 -5.49,2.73 -5.95,0.46 -6.55,2.62 -7.16,4.79 -7.13,6.92 -7.11,9.05 -7.10,10.67 -7.10,12.29 -7.29,13.44 -7.48,14.59 -8.02,15.63 -8.57,16.66 -9.42,17.47 -10.27,18.27 -11.34,18.76 -12.40,19.25 -13.56,19.38 -14.73,19.50 -15.87,19.25 -17.01,19.00 -18.01,18.40 -19.02,17.79 -19.77,16.90 -20.53,16.01 -20.96,14.92 -21.39,13.83 -21.46,12.66 -21.52,11.50 -21.21,10.37 -20.89,9.24 -20.23,8.27 -19.58,7.30 -18.65,6.60 -17.71,5.89 -16.60,5.52 -15.49,5.14 -14.32,5.14 -13.15,5.14 -12.05,5.52 -10.94,5.89 -10.01,6.60 -9.07,7.31 -8.42,8.28 -7.76,9.25 -7.45,10.38 -7.14,11.50 -7.20,12.67 -7.27,13.84 -7.70,14.93 -8.13,16.02 -8.89,16.91 -9.65,17.80 -10.65,18.40 -11.66,19.00 -12.80,19.25 -13.94,19.50 -15.11,19.38 -16.27,19.25 -17.33,18.76 -18.39,18.27 -19.24,17.46 -20.09,16.65 -20.64,15.62 -21.19,14.59 -21.37,13.43 -21.56,12.28 -21.56,12.28 -21.56,12.28 -21.51,8.72 -21.46,5.16 -21.15,2.62 -20.84,0.09 -19.75,-2.04 -18.67,-4.17 -17.32,-7.30 -15.96,-10.42 -14.24,-12.05 -12.52,-13.67 -10.33,-14.33 -8.15,-14.98 -5.75,-14.82 -3.36,-14.67 -0.83,-13.79 1.68,-12.91 3.18,-11.33 4.68,-9.76 6.00,-6.14 7.33,-2.51 8.27,1.05 9.22,4.62 9.53,6.75 9.84,8.88 9.30,11.98 8.75,15.08 6.65,16.93 4.55,18.77 1.82,19.45 -0.90,20.13 -3.33,20.06 -5.75,19.99 -8.09,19.90 -10.42,19.81 -13.93,19.12 -17.44,18.44 -19.61,15.76 -21.78,13.08 -21.77,9.91 -21.75,6.74 -18.82,3.79 -15.88,0.84 -13.26,0.19 -10.64,-0.46 -7.94,-2.19 -5.24,-3.92 -3.45,-4.45 -1.65,-4.97 -1.03,-5.10 -0.41,-5.22 0.21,-5.20 0.84,-5.17 1.45,-4.99 2.05,-4.82 2.60,-4.50 3.15,-4.19 3.60,-3.75 4.06,-3.31 4.40,-2.77 4.73,-2.24 4.93,-1.64 5.13,-1.04 5.18,-0.41 5.23,0.21 5.13,0.83 5.03,1.46 4.78,2.04 4.53,2.62 4.15,3.12 3.77,3.63 3.28,4.03 2.80,4.43 2.22,4.70 1.65,4.97 1.65,4.97 L 1.65,4.97 Z"></path></g><g transform="translate(128.77068248091473 89.863045116477) rotate(0 -22.01353166672152 11.262737131811036)" stroke="none"><path fill="#a61e4d" d="M -4.19,-3.14 Q -4.19,-3.14 -3.37,-4.37 -2.55,-5.59 -0.84,-8.75 0.86,-11.91 -3.49,-13.05 -7.85,-14.20 -10.57,-14.88 -13.29,-15.56 -15.80,-16.66 -18.30,-17.76 -20.73,-17.64 -23.17,-17.53 -25.77,-17.50 -28.37,-17.48 -31.28,-17.45 -34.19,-17.41 -36.41,-17.41 -38.64,-17.41 -40.89,-17.38 -43.15,-17.36 -45.27,-16.14 -47.40,-14.93 -48.54,-12.95 -49.68,-10.97 -51.37,-8.28 -53.06,-5.58 -53.99,-2.51 -54.92,0.55 -56.02,3.45 -57.12,6.35 -57.25,9.16 -57.38,11.97 -57.40,14.11 -57.41,16.25 -57.45,18.91 -57.50,21.58 -54.92,23.41 -52.34,25.24 -50.04,27.13 -47.74,29.01 -45.17,30.89 -42.59,32.77 -40.22,34.22 -37.84,35.67 -35.44,35.75 -33.04,35.83 -29.65,36.23 -26.27,36.63 -23.00,37.71 -19.74,38.79 -17.59,39.35 -15.44,39.92 -13.30,39.96 -11.15,40.00 -8.81,40.01 -6.46,40.02 -4.14,39.30 -1.82,38.58 -0.25,37.07 1.32,35.55 3.10,33.77 4.88,31.98 6.37,29.64 7.85,27.29 9.10,25.33 10.35,23.38 11.76,21.50 13.18,19.62 13.19,17.04 13.20,14.46 13.20,11.55 13.20,8.65 11.36,5.71 9.52,2.78 7.60,-0.56 5.67,-3.91 4.64,-6.17 3.61,-8.42 2.74,-8.84 1.87,-9.25 0.76,-9.63 -0.33,-10.01 -1.26,-10.72 -2.19,-11.43 -2.84,-12.40 -3.49,-13.37 -3.80,-14.50 -4.11,-15.63 -4.04,-16.79 -3.97,-17.96 -3.53,-19.04 -3.10,-20.13 -2.34,-21.02 -1.58,-21.90 -0.57,-22.50 0.42,-23.10 1.56,-23.35 2.71,-23.59 3.87,-23.46 5.03,-23.33 6.09,-22.83 7.15,-22.34 7.99,-21.53 8.84,-20.72 9.38,-19.69 9.92,-18.65 10.11,-17.50 10.29,-16.35 10.10,-15.19 9.90,-14.04 9.35,-13.01 8.80,-11.98 7.95,-11.18 7.09,-10.38 6.03,-9.89 4.97,-9.41 3.81,-9.29 2.64,-9.16 1.50,-9.42 0.36,-9.68 -0.63,-10.28 -1.63,-10.89 -2.38,-11.79 -3.13,-12.68 -3.56,-13.77 -3.99,-14.86 -4.04,-16.02 -4.10,-17.19 -3.78,-18.32 -3.47,-19.44 -2.81,-20.40 -2.15,-21.37 -1.21,-22.07 -0.28,-22.78 0.82,-23.14 1.93,-23.51 3.10,-23.51 4.27,-23.50 4.27,-23.50 4.27,-23.50 7.85,-21.86 11.44,-20.22 14.00,-17.37 16.55,-14.51 17.64,-11.57 18.72,-8.64 20.17,-6.86 21.63,-5.09 22.89,-3.12 24.16,-1.14 25.93,2.63 27.71,6.42 27.72,8.55 27.74,10.68 27.72,13.48 27.69,16.29 27.59,18.92 27.48,21.56 26.82,23.97 26.17,26.37 23.44,29.32 20.71,32.27 19.22,35.09 17.73,37.91 16.49,39.99 15.24,42.07 13.32,43.97 11.40,45.87 9.32,47.78 7.24,49.68 4.91,51.25 2.57,52.81 -0.26,53.51 -3.10,54.20 -5.73,54.17 -8.37,54.13 -11.90,54.05 -15.43,53.97 -18.14,53.52 -20.84,53.07 -23.75,52.15 -26.65,51.22 -29.99,50.66 -33.33,50.10 -35.67,49.98 -38.01,49.86 -40.94,49.16 -43.87,48.47 -47.06,46.68 -50.26,44.89 -52.31,43.87 -54.35,42.86 -56.21,41.07 -58.07,39.29 -59.68,37.62 -61.29,35.94 -63.80,33.44 -66.31,30.95 -67.86,29.36 -69.41,27.76 -70.46,25.15 -71.50,22.54 -71.54,19.38 -71.58,16.22 -71.55,12.90 -71.51,9.58 -71.30,7.37 -71.09,5.15 -70.19,1.85 -69.28,-1.44 -68.41,-4.13 -67.53,-6.81 -66.25,-10.57 -64.97,-14.33 -63.14,-17.04 -61.31,-19.74 -60.03,-21.98 -58.74,-24.22 -56.81,-26.05 -54.87,-27.87 -52.42,-29.37 -49.97,-30.88 -46.56,-31.33 -43.15,-31.78 -40.89,-31.75 -38.64,-31.73 -36.41,-31.73 -34.19,-31.73 -31.95,-31.70 -29.71,-31.68 -27.38,-31.64 -25.06,-31.60 -22.92,-31.55 -20.79,-31.51 -18.22,-31.30 -15.64,-31.10 -11.88,-29.64 -8.12,-28.18 -5.42,-27.26 -2.71,-26.33 -0.41,-25.33 1.89,-24.33 3.89,-23.21 5.90,-22.09 8.58,-19.63 11.27,-17.17 11.56,-13.28 11.86,-9.40 10.69,-7.13 9.51,-4.85 7.80,-1.98 6.09,0.88 5.14,2.01 4.19,3.14 3.75,3.59 3.31,4.05 2.78,4.39 2.24,4.73 1.65,4.93 1.05,5.13 0.42,5.18 -0.20,5.23 -0.82,5.13 -1.45,5.03 -2.03,4.78 -2.61,4.53 -3.12,4.16 -3.62,3.78 -4.02,3.29 -4.42,2.80 -4.69,2.23 -4.96,1.66 -5.09,1.04 -5.22,0.42 -5.19,-0.20 -5.17,-0.83 -4.99,-1.44 -4.82,-2.04 -4.50,-2.59 -4.19,-3.14 -4.19,-3.14 L -4.19,-3.14 Z"></path></g><g transform="translate(252.66079093083408 85.76750434127302) rotate(0 -10.238851938009702 18.42993348841776)" stroke="none"><path fill="#a61e4d" d="M 1.63,4.91 Q 1.63,4.91 -0.06,5.56 -1.77,6.20 -4.07,7.90 -6.36,9.60 -9.12,9.86 -11.89,10.12 -13.81,11.18 -15.73,12.23 -14.72,14.60 -13.70,16.96 -13.63,19.65 -13.56,22.33 -12.70,25.13 -11.84,27.92 -8.37,28.95 -4.91,29.98 -3.87,30.52 -2.83,31.06 -2.02,31.90 -1.21,32.74 -0.71,33.80 -0.21,34.86 -0.07,36.02 0.05,37.18 -0.18,38.33 -0.42,39.47 -1.01,40.48 -1.61,41.49 -2.49,42.26 -3.38,43.02 -4.46,43.46 -5.55,43.91 -6.71,43.98 -7.88,44.05 -9.01,43.75 -10.14,43.45 -11.12,42.80 -12.09,42.15 -12.81,41.22 -13.52,40.30 -13.91,39.19 -14.29,38.09 -14.30,36.92 -14.31,35.75 -13.95,34.63 -13.58,33.52 -12.88,32.58 -12.18,31.65 -11.22,30.98 -10.26,30.32 -9.13,29.99 -8.01,29.67 -6.84,29.72 -5.67,29.78 -4.58,30.20 -3.48,30.63 -2.59,31.38 -1.69,32.13 -1.08,33.12 -0.46,34.12 -0.20,35.26 0.05,36.40 -0.06,37.57 -0.18,38.73 -0.66,39.80 -1.14,40.86 -1.94,41.72 -2.74,42.58 -3.77,43.13 -4.80,43.69 -5.95,43.89 -7.10,44.09 -8.26,43.91 -9.41,43.73 -9.41,43.73 -9.41,43.73 -11.53,43.19 -13.64,42.65 -16.64,41.08 -19.65,39.50 -21.17,37.82 -22.68,36.14 -23.90,33.59 -25.12,31.03 -26.26,27.66 -27.40,24.29 -27.34,21.32 -27.28,18.36 -27.19,15.53 -27.10,12.70 -26.86,10.19 -26.62,7.68 -24.85,4.77 -23.09,1.86 -21.20,0.46 -19.32,-0.93 -16.62,-1.49 -13.92,-2.04 -12.02,-0.96 -10.12,0.11 -7.70,-1.86 -5.28,-3.84 -3.46,-4.38 -1.63,-4.91 -1.02,-5.04 -0.41,-5.16 0.20,-5.14 0.83,-5.11 1.43,-4.94 2.03,-4.76 2.57,-4.45 3.11,-4.14 3.56,-3.70 4.01,-3.27 4.35,-2.74 4.68,-2.21 4.88,-1.62 5.07,-1.03 5.12,-0.41 5.17,0.21 5.07,0.82 4.97,1.44 4.73,2.01 4.48,2.59 4.11,3.09 3.73,3.59 3.25,3.98 2.76,4.38 2.20,4.64 1.63,4.91 1.63,4.91 L 1.63,4.91 Z"></path></g></svg>
