<svg version="1.1" xmlns="http://www.w3.org/2000/svg" viewBox="0 0 537.3463722138054 349.4821576212607" width="537.3463722138054" height="349.4821576212607"><!-- svg-source:excalidraw --><metadata></metadata><defs><style class="style-fonts">
      </style></defs><g stroke-linecap="round"><g transform="translate(321.1217678037474 31.09912343321423) rotate(0 1.999708270628389 24.663068671081817)" fill-rule="evenodd"><path d="M-55.07 -9.44 C-55.07 -9.44, -55.07 -9.44, -55.07 -9.44 M-55.07 -9.44 C-55.07 -9.44, -55.07 -9.44, -55.07 -9.44 M-56.64 -1.54 C-53.35 -4.59, -50.59 -6.98, -44.18 -15.88 M-56.64 -1.54 C-52.76 -5.9, -48.37 -11.81, -44.18 -15.88 M-56.9 4.86 C-52.2 -1.11, -46.33 -7.13, -36.57 -18.54 M-56.9 4.86 C-51.58 -2.04, -45.28 -9.31, -36.57 -18.54 M-57.16 11.26 C-49.26 -0.91, -37.4 -11.59, -30.92 -18.93 M-57.16 11.26 C-47.5 -0.05, -37.09 -13.3, -30.92 -18.93 M-56.11 16.15 C-48.34 9.36, -39.97 -0.26, -25.94 -18.57 M-56.11 16.15 C-44.45 3.41, -32.72 -10.43, -25.94 -18.57 M-54.41 20.28 C-46.34 8.85, -36.67 0.18, -22.26 -16.7 M-54.41 20.28 C-47.63 11.13, -38.68 3.7, -22.26 -16.7 M-52.7 24.41 C-44.4 16.89, -36.53 4.65, -18.59 -14.83 M-52.7 24.41 C-42.23 14.08, -34.33 1.68, -18.59 -14.83 M-50.34 27.79 C-38.4 11.91, -24.9 -0.04, -15.57 -12.21 M-50.34 27.79 C-38.41 14.24, -26.63 0.02, -15.57 -12.21 M-48.63 31.93 C-40.24 22.82, -31.91 11.8, -12.55 -9.58 M-48.63 31.93 C-37.26 19.69, -24.39 5.1, -12.55 -9.58 M-45.61 34.55 C-34.87 25.38, -25.14 11.05, -9.53 -6.96 M-45.61 34.55 C-34.79 23.31, -24.85 10.86, -9.53 -6.96 M-43.25 37.93 C-27.03 22.32, -16.44 6.37, -5.85 -5.09 M-43.25 37.93 C-35.89 29.08, -28.12 19.6, -5.85 -5.09 M-40.23 40.55 C-34.2 31.12, -25.99 23.98, -2.84 -2.46 M-40.23 40.55 C-29.03 27.82, -18.76 16.11, -2.84 -2.46 M-37.21 43.18 C-24.02 28.66, -11.68 16.6, 0.18 0.16 M-37.21 43.18 C-23.18 27.79, -10.6 12.68, 0.18 0.16 M-34.19 45.8 C-22.42 31.43, -8.55 18.2, 21.57 -18.35 M-34.19 45.8 C-17.68 26.39, -1.01 6.37, 21.57 -18.35 M-31.17 48.43 C-12.52 28.7, 5.49 10.31, 27.87 -19.5 M-31.17 48.43 C-12.61 27.23, 5.43 4.96, 27.87 -19.5 M-28.16 51.05 C-9.75 31.74, 7.99 12.55, 34.17 -20.65 M-28.16 51.05 C-10.28 30.04, 9.02 8.32, 34.17 -20.65 M-25.14 53.67 C-5.28 30.73, 14.1 8.65, 39.16 -20.29 M-25.14 53.67 C-1.88 27.11, 21.69 -0.95, 39.16 -20.29 M-21.46 55.54 C-6.5 39.51, 10.95 20.98, 44.14 -19.93 M-21.46 55.54 C3.98 27.03, 28.67 -1.21, 44.14 -19.93 M-18.44 58.17 C8.92 29.74, 31.28 -1.22, 47.82 -18.06 M-18.44 58.17 C2.11 35.92, 20.91 13.45, 47.82 -18.06 M-15.42 60.79 C0.61 43.34, 14.19 25.56, 50.84 -15.43 M-15.42 60.79 C4.36 39.73, 23 17.25, 50.84 -15.43 M-11.75 62.66 C8.51 38.69, 29.3 17.66, 53.86 -12.81 M-11.75 62.66 C4.16 42.87, 22.36 21.74, 53.86 -12.81 M-8.73 65.29 C12.77 37.94, 37.44 12.97, 56.22 -9.43 M-8.73 65.29 C7.38 45.8, 24.65 25.04, 56.22 -9.43 M-5.06 67.16 C17.42 38.3, 42.62 11.34, 59.24 -6.81 M-5.06 67.16 C16.5 43.83, 36.88 19, 59.24 -6.81 M-2.04 69.78 C14.97 49.93, 33.97 31.54, 60.29 -1.92 M-2.04 69.78 C11.56 53.72, 25.54 38.58, 60.29 -1.92 M0.98 72.4 C16.4 58.14, 28.69 39.64, 61.34 2.97 M0.98 72.4 C17.44 53, 33.49 34.95, 61.34 2.97 M4.66 74.27 C22.48 56.98, 37.38 37.63, 55.83 15.41 M4.66 74.27 C23.48 51.26, 42.54 30.15, 55.83 15.41" stroke="#e64980" stroke-width="0.5" fill="none"></path><path d="M0.68 0.2 C4.35 -2.9, 14.21 -16.03, 22.14 -18.95 C30.08 -21.87, 42.18 -22.26, 48.31 -17.31 C54.45 -12.36, 64.95 -3.17, 58.93 10.74 C52.91 24.65, 22.93 56.43, 12.19 66.16 C1.44 75.89, 5.06 75.32, -5.54 69.13 C-16.13 62.95, -43.12 42.1, -51.4 29.04 C-59.68 15.98, -59.13 -1.3, -55.24 -9.24 C-51.35 -17.19, -37.38 -20.15, -28.06 -18.64 C-18.74 -17.13, -4.15 -3.32, 0.7 -0.2 M-0.42 -0.75 C3.12 -3.66, 12.98 -15.2, 21.5 -17.73 C30.02 -20.25, 44.44 -20.87, 50.72 -15.9 C57 -10.94, 65.31 -1.6, 59.19 12.05 C53.08 25.7, 24.61 56.59, 14.02 66 C3.44 75.41, 6.47 74.77, -4.31 68.49 C-15.09 62.2, -41.96 41.26, -50.65 28.28 C-59.34 15.31, -59.94 -1.36, -56.44 -9.37 C-52.94 -17.39, -38.74 -21.24, -29.64 -19.8 C-20.54 -18.37, -6.48 -4.25, -1.82 -0.76" stroke="#a61e4d" stroke-width="1" fill="none"></path></g></g><mask></mask><g stroke-linecap="round"><g transform="translate(274.09265388766016 183.04149143590809) rotate(0 1.489978711447975 33.72057083804549)" fill-rule="evenodd"><path d="M-65.02 -12.8 C-65.02 -12.8, -65.02 -12.8, -65.02 -12.8 M-65.02 -12.8 C-65.02 -12.8, -65.02 -12.8, -65.02 -12.8 M-77.09 7.18 C-71.81 2.59, -65.5 -3.53, -52.82 -20.74 M-77.09 7.18 C-69.64 -2.07, -61.63 -12.49, -52.82 -20.74 M-76.7 12.83 C-64.84 -0.7, -55.33 -10.32, -45.21 -23.4 M-76.7 12.83 C-67.01 1.3, -55.85 -9.65, -45.21 -23.4 M-74.99 16.96 C-63.6 4.47, -52.9 -4.52, -40.88 -22.28 M-74.99 16.96 C-65.76 5.07, -56.37 -5.39, -40.88 -22.28 M-73.94 21.85 C-61.04 8.68, -48.05 -8.08, -36.55 -21.17 M-73.94 21.85 C-66.34 12.82, -57.6 2.39, -36.55 -21.17 M-71.58 25.23 C-58.03 10.37, -45.84 -5, -32.22 -20.05 M-71.58 25.23 C-60.42 14.45, -51.94 2.02, -32.22 -20.05 M-69.22 28.61 C-56.88 12.7, -44.21 -2.32, -28.54 -18.18 M-69.22 28.61 C-54.54 9.38, -37.68 -7.64, -28.54 -18.18 M-66.85 31.99 C-53.07 18.08, -41.38 3.65, -25.52 -15.56 M-66.85 31.99 C-50.18 12.37, -34.87 -4.62, -25.52 -15.56 M-63.83 34.61 C-55.44 24.11, -43.11 11.66, -21.85 -13.69 M-63.83 34.61 C-54.05 23.96, -46.38 13.03, -21.85 -13.69 M-61.47 37.99 C-52.72 26.64, -44.72 16.62, -18.83 -11.07 M-61.47 37.99 C-52.39 26.84, -42.99 16.47, -18.83 -11.07 M-59.11 41.37 C-44.96 23.53, -29.17 4.03, -15.15 -9.2 M-59.11 41.37 C-50.4 30.41, -42.06 20.24, -15.15 -9.2 M-56.09 43.99 C-44.56 30.79, -31.04 14.02, -11.48 -7.33 M-56.09 43.99 C-43.3 29.24, -29.03 13.72, -11.48 -7.33 M-53.73 47.37 C-43.64 38.25, -33.43 25.43, -8.46 -4.7 M-53.73 47.37 C-40.42 31.83, -26.41 14.62, -8.46 -4.7 M-50.71 50 C-38.49 37.82, -27.37 25.28, -4.78 -2.83 M-50.71 50 C-40.48 37.28, -29.4 24.89, -4.78 -2.83 M-48.35 53.37 C-35.83 41.94, -26.08 27.47, -1.11 -0.96 M-48.35 53.37 C-39.03 40.89, -28.14 29.14, -1.11 -0.96 M-45.33 56 C-26.71 36.2, -10.09 16.58, 28.15 -28.53 M-45.33 56 C-25.73 33.98, -6.19 10.88, 28.15 -28.53 M-42.31 58.62 C-15.4 27.81, 11.36 -2.55, 35.11 -30.43 M-42.31 58.62 C-25.85 38.66, -9.05 20.47, 35.11 -30.43 M-39.29 61.25 C-16.34 37.07, 4.95 12.5, 40.75 -30.83 M-39.29 61.25 C-21.97 41.53, -2.88 20.03, 40.75 -30.83 M-36.93 64.63 C-7.72 27.79, 25.51 -9.94, 47.05 -31.98 M-36.93 64.63 C-8.63 31.38, 20.28 -3.27, 47.05 -31.98 M-33.91 67.25 C-6.91 34.58, 23.12 0.53, 52.69 -32.37 M-33.91 67.25 C-14.52 43.96, 4.78 21.2, 52.69 -32.37 M-30.89 69.87 C-8.7 46.39, 11.23 23.19, 57.02 -31.26 M-30.89 69.87 C-5.78 40.81, 19.14 13.88, 57.02 -31.26 M-27.87 72.5 C5.2 36.74, 33.61 3.77, 60.7 -29.39 M-27.87 72.5 C4.42 34.57, 38.18 -2.68, 60.7 -29.39 M-24.85 75.12 C9.14 36.83, 43.95 -4.41, 64.37 -27.52 M-24.85 75.12 C10.84 32.73, 45.59 -6.89, 64.37 -27.52 M-21.83 77.75 C-0.81 56.8, 15.4 32.2, 67.39 -24.89 M-21.83 77.75 C-2.96 56.93, 15.6 35.82, 67.39 -24.89 M-18.81 80.37 C4.15 51.53, 27.63 24.06, 69.75 -21.51 M-18.81 80.37 C11.07 46.32, 40.53 11.89, 69.75 -21.51 M-15.79 83 C13.69 48.42, 43.33 17.21, 72.12 -18.14 M-15.79 83 C11.56 52.22, 38.77 21.43, 72.12 -18.14 M-13.43 86.37 C18.98 49.03, 47.41 14.07, 74.48 -14.76 M-13.43 86.37 C8.98 60.3, 30.06 37.14, 74.48 -14.76 M-10.41 89 C14.2 61.74, 41.37 31.13, 76.19 -10.62 M-10.41 89 C16.23 57.72, 42.04 28.56, 76.19 -10.62 M-7.39 91.62 C17.94 63.06, 43.24 31.31, 78.55 -7.24 M-7.39 91.62 C19.4 61.2, 43.73 30.65, 78.55 -7.24 M-4.38 94.25 C27.97 57.35, 56.7 22.08, 80.26 -3.11 M-4.38 94.25 C29.04 56.2, 63.4 17.62, 80.26 -3.11 M-1.36 96.87 C26.65 63.87, 53.73 33.37, 81.31 1.78 M-1.36 96.87 C18.1 73.56, 37.08 51.34, 81.31 1.78 M1.66 99.5 C24.43 75.43, 43.56 48.81, 82.36 6.67 M1.66 99.5 C23.03 75.45, 44.71 49.95, 82.36 6.67 M4.68 102.12 C30.45 71.33, 55.46 45.82, 82.75 12.31 M4.68 102.12 C34.41 68.32, 61.87 35.8, 82.75 12.31 M9.01 103.24 C33.71 74.11, 59.41 44.8, 81.18 20.22 M9.01 103.24 C25.66 85.13, 41.09 66.49, 81.18 20.22 M26.46 89.26 C41.22 75.27, 50.93 59.88, 74.36 34.16 M26.46 89.26 C45.61 68.52, 64.57 47.75, 74.36 34.16" stroke="#e64980" stroke-width="0.5" fill="none"></path><path d="M0.58 -0.6 C5.21 -5.58, 17.65 -25.44, 28.47 -29.7 C39.3 -33.97, 57.04 -34.91, 65.52 -26.2 C73.99 -17.49, 87.42 1.85, 79.32 22.56 C71.21 43.27, 30.6 85.95, 16.89 98.07 C3.18 110.19, 9.87 104.77, -2.94 95.31 C-15.74 85.84, -47.63 56.17, -59.94 41.26 C-72.26 26.35, -79.43 16.7, -76.84 5.83 C-74.24 -5.04, -57.38 -23.01, -44.39 -23.96 C-31.4 -24.91, -6.33 -4.07, 1.09 0.11 M-0.58 1.7 C4.37 -3.08, 19.81 -23.07, 30.7 -28.07 C41.59 -33.08, 56.68 -36.87, 64.77 -28.34 C72.85 -19.81, 86.86 1.91, 79.21 23.11 C71.56 44.31, 32.33 86.9, 18.89 98.85 C5.45 110.81, 11.64 104.64, -1.42 94.86 C-14.48 85.07, -46.75 54.98, -59.48 40.13 C-72.2 25.27, -80.07 16.63, -77.77 5.71 C-75.47 -5.22, -58.45 -24.45, -45.69 -25.45 C-32.93 -26.45, -8.93 -4.37, -1.23 -0.28" stroke="#a61e4d" stroke-width="1" fill="none"></path></g></g><mask></mask><g stroke-linecap="round"><g transform="translate(83.9927486005422 121.36828265846447) rotate(335.12195775801814 -0.6636788561952471 30.106275154217883)" fill-rule="evenodd"><path d="M-62.39 0.09 C-62.39 0.09, -62.39 0.09, -62.39 0.09 M-62.39 0.09 C-62.39 0.09, -62.39 0.09, -62.39 0.09 M-71.18 16.3 C-64.14 10.78, -59.01 1.67, -52.81 -4.83 M-71.18 16.3 C-64.54 6.96, -56.18 -0.43, -52.81 -4.83 M-70.13 21.19 C-63.21 14.51, -55.88 3.78, -43.89 -9 M-70.13 21.19 C-60.9 12.04, -53.08 1.02, -43.89 -9 M-69.08 26.08 C-60.42 19.47, -55.77 9.23, -38.9 -8.64 M-69.08 26.08 C-58.78 13.68, -47.41 1.86, -38.9 -8.64 M-66.72 29.45 C-51.68 12.03, -41.93 -2.54, -33.26 -9.04 M-66.72 29.45 C-54.08 14.39, -40.86 -0.13, -33.26 -9.04 M-64.35 32.83 C-57.05 23.3, -47.97 11.69, -28.93 -7.92 M-64.35 32.83 C-57.25 22.88, -48.46 14.07, -28.93 -7.92 M-62.65 36.97 C-47.91 18.5, -30.55 3.98, -24.6 -6.81 M-62.65 36.97 C-47.53 21.01, -33.65 4.23, -24.6 -6.81 M-60.28 40.35 C-51.92 30.91, -42.65 22.55, -20.27 -5.69 M-60.28 40.35 C-48.69 27.46, -36.68 12.19, -20.27 -5.69 M-57.92 43.73 C-41.18 25.7, -27.69 6.52, -15.93 -4.58 M-57.92 43.73 C-42.05 23.78, -26.24 5.94, -15.93 -4.58 M-55.56 47.1 C-38.68 26.27, -22.72 8.43, -11.6 -3.46 M-55.56 47.1 C-41.57 31.21, -28.23 17.53, -11.6 -3.46 M-53.2 50.48 C-39.19 32.44, -23.83 13.91, -7.27 -2.35 M-53.2 50.48 C-41.52 35.8, -28.35 21.31, -7.27 -2.35 M-50.18 53.11 C-37.78 37.17, -25.35 24.76, -3.6 -0.48 M-50.18 53.11 C-36.8 38.58, -25.28 24, -3.6 -0.48 M-47.16 55.73 C-27.48 33.72, -9.86 13.05, 20.42 -22 M-47.16 55.73 C-24.97 29.24, -2.26 3.05, 20.42 -22 M-44.14 58.36 C-22.98 35.23, -3.21 9.03, 29.34 -26.17 M-44.14 58.36 C-22.68 33.81, -2.13 10.57, 29.34 -26.17 M-41.12 60.98 C-19.54 34.78, 0.39 9.31, 34.98 -26.57 M-41.12 60.98 C-18.91 35.85, 2.33 12.27, 34.98 -26.57 M-38.1 63.6 C-14.94 37.54, 7.85 7.89, 39.97 -26.21 M-38.1 63.6 C-10.23 31.02, 17.9 -0.31, 39.97 -26.21 M-35.08 66.23 C-13.25 41.56, 4.58 17.02, 44.3 -25.09 M-35.08 66.23 C-10.47 38.81, 14.32 10.28, 44.3 -25.09 M-32.06 68.85 C-0.5 33.91, 26.86 -1.17, 49.29 -24.73 M-32.06 68.85 C-5.58 39.01, 19.65 10.62, 49.29 -24.73 M-29.05 71.48 C3.1 34.17, 35.55 -0.04, 52.96 -22.86 M-29.05 71.48 C1.15 35.5, 32.59 0.84, 52.96 -22.86 M-25.37 73.35 C2.36 41.39, 28.45 11.78, 57.29 -21.75 M-25.37 73.35 C1.05 42.35, 27.23 12.05, 57.29 -21.75 M-21.7 75.22 C-3.96 55.29, 15.04 30.12, 60.31 -19.12 M-21.7 75.22 C4.72 46.39, 30.67 16.12, 60.31 -19.12 M-18.02 77.09 C-0.99 57.85, 19.54 33.6, 63.33 -16.5 M-18.02 77.09 C14.93 40.74, 46.54 3.5, 63.33 -16.5 M-15 79.71 C8.15 51.67, 32.34 28.84, 67.01 -14.63 M-15 79.71 C14.06 46.52, 43.32 11.67, 67.01 -14.63 M-11.33 81.58 C8.84 54.14, 31.07 28.1, 68.71 -10.5 M-11.33 81.58 C6.89 60.83, 25.67 39.96, 68.71 -10.5 M-7.65 83.45 C22.2 48.26, 54.1 14.24, 70.42 -6.36 M-7.65 83.45 C9.26 63.4, 26.77 45.07, 70.42 -6.36 M-4.63 86.07 C22.68 57.96, 47.77 26.25, 72.13 -2.23 M-4.63 86.07 C10.88 68.75, 27.1 49.12, 72.13 -2.23 M-0.3 87.19 C22.56 58.15, 48.01 30.05, 72.52 3.42 M-0.3 87.19 C26.19 57.71, 52.52 25.88, 72.52 3.42 M3.37 89.06 C20.11 70.47, 33.67 54.28, 72.91 9.06 M3.37 89.06 C30.61 58.27, 58.27 24.76, 72.91 9.06 M7.05 90.93 C25.24 67.02, 45.39 47.88, 72.65 15.46 M7.05 90.93 C29.51 62.9, 55.2 35.15, 72.65 15.46 M12.03 91.29 C30.4 68.23, 54.7 42.53, 71.74 22.61 M12.03 91.29 C32.02 69.18, 51.29 46.13, 71.74 22.61 M16.37 92.4 C32.39 73.47, 46.64 54.85, 71.47 29.01 M16.37 92.4 C35.96 68.94, 56.09 47.05, 71.47 29.01 M21.35 92.76 C34.34 74.96, 48.09 61.89, 64.65 42.95 M21.35 92.76 C30.3 82.2, 41.1 69.69, 64.65 42.95" stroke="#e64980" stroke-width="0.5" fill="none"></path><path d="M-0.93 0.18 C-8.42 -1.25, -32.4 -11.63, -44.32 -9.15 C-56.23 -6.67, -71.98 3.83, -72.44 15.04 C-72.89 26.24, -59.9 45.68, -47.04 58.07 C-34.17 70.45, -8.46 85.15, 4.75 89.36 C17.95 93.56, 21.22 93.54, 32.2 83.31 C43.18 73.09, 65.09 44.58, 70.61 27.99 C76.14 11.39, 72.29 -6.92, 65.35 -16.24 C58.41 -25.55, 39.83 -30.81, 28.96 -27.91 C18.1 -25.01, 5.02 -3.48, 0.15 1.14 M0.78 -0.78 C-6.91 -2.52, -32.86 -13.83, -45.25 -11.07 C-57.64 -8.31, -73.27 4.64, -73.56 15.8 C-73.85 26.97, -59.8 44.09, -46.98 55.9 C-34.16 67.72, -10.02 82.25, 3.38 86.68 C16.78 91.11, 22.11 92.45, 33.43 82.49 C44.76 72.52, 66.13 43.39, 71.34 26.86 C76.55 10.33, 71.94 -7.33, 64.69 -16.68 C57.44 -26.03, 38.48 -32.23, 27.86 -29.23 C17.25 -26.24, 5.65 -3.7, 1 1.29" stroke="#a61e4d" stroke-width="1" fill="none"></path></g></g><mask></mask><g stroke-linecap="round"><g transform="translate(137.64197189184915 266.2450394804801) rotate(0 0.9410391861779317 26.74119687389185)" fill-rule="evenodd"><path d="M-52.81 -3.51 C-52.81 -3.51, -52.81 -3.51, -52.81 -3.51 M-52.81 -3.51 C-52.81 -3.51, -52.81 -3.51, -52.81 -3.51 M-58.32 8.93 C-52.93 5.35, -49.45 -1.86, -45.2 -6.17 M-58.32 8.93 C-53.8 1.98, -47.5 -3.03, -45.2 -6.17 M-56.62 13.06 C-50.04 6.78, -43.06 -3.55, -31.69 -15.62 M-56.62 13.06 C-47.82 4.4, -40.42 -6.14, -31.69 -15.62 M-57.53 20.21 C-48.43 13.1, -43.33 2.33, -25.39 -16.77 M-57.53 20.21 C-46.53 7.03, -34.47 -5.59, -25.39 -16.77 M-55.83 24.35 C-40.28 6.31, -30.01 -8.85, -21.06 -15.65 M-55.83 24.35 C-42.69 8.7, -28.97 -6.38, -21.06 -15.65 M-54.12 28.48 C-46.49 18.58, -37.09 6.6, -17.38 -13.78 M-54.12 28.48 C-46.74 18.18, -37.64 9.03, -17.38 -13.78 M-51.76 31.86 C-37.28 13.68, -20.19 -0.54, -14.36 -11.16 M-51.76 31.86 C-36.89 16.18, -23.26 -0.31, -14.36 -11.16 M-49.4 35.24 C-41.41 26.25, -32.54 18.35, -11.34 -8.54 M-49.4 35.24 C-38.39 23.02, -26.98 8.45, -11.34 -8.54 M-46.38 37.86 C-31.15 21.56, -19.15 4.09, -8.33 -5.91 M-46.38 37.86 C-32.02 19.7, -17.75 3.64, -8.33 -5.91 M-44.01 41.24 C-28.94 22.47, -14.79 6.71, -4.65 -4.04 M-44.01 41.24 C-31.41 26.92, -19.47 14.85, -4.65 -4.04 M-40.99 43.86 C-29.26 28.39, -16.1 12.4, -1.63 -1.42 M-40.99 43.86 C-31.12 31.17, -19.73 18.72, -1.63 -1.42 M-38.63 47.24 C-28.01 33.31, -17.31 22.89, 1.39 1.21 M-38.63 47.24 C-27.09 34.81, -17.37 22.3, 1.39 1.21 M-35.61 49.87 C-18.8 31.29, -4.07 13.95, 21.46 -15.79 M-35.61 49.87 C-16.99 27.48, 2.23 5.31, 21.46 -15.79 M-32.59 52.49 C-14.81 33.35, 1.54 11.08, 29.08 -18.45 M-32.59 52.49 C-14.6 31.8, 2.56 12.47, 29.08 -18.45 M-29.58 55.12 C-11.47 33.14, 4.86 11.81, 34.06 -18.09 M-29.58 55.12 C-11.05 33.94, 6.66 14.43, 34.06 -18.09 M-26.56 57.74 C-7.47 36.51, 11.15 11.65, 37.74 -16.22 M-26.56 57.74 C-3.6 30.86, 19.63 5.16, 37.74 -16.22 M-23.54 60.36 C-5.26 39.81, 8.94 19.43, 42.07 -15.11 M-23.54 60.36 C-3.31 37.73, 17.23 14.09, 42.07 -15.11 M-20.52 62.99 C5.51 34.63, 27.19 6.08, 45.74 -13.24 M-20.52 62.99 C1.22 38.7, 21.74 15.72, 45.74 -13.24 M-17.5 65.61 C8.47 35.27, 34.87 8.01, 48.76 -10.61 M-17.5 65.61 C6.77 36.5, 32.36 8.57, 48.76 -10.61 M-13.83 67.48 C8.12 42.05, 28.59 18.91, 51.78 -7.99 M-13.83 67.48 C7.15 42.77, 27.8 18.83, 51.78 -7.99 M-10.15 69.35 C3.76 53.96, 18.85 33.28, 54.8 -5.36 M-10.15 69.35 C10.86 46.57, 31.42 22.49, 54.8 -5.36 M-6.48 71.22 C6.7 56.56, 23.19 36.96, 57.16 -1.99 M-6.48 71.22 C19.46 42.8, 44.2 13.47, 57.16 -1.99 M-2.14 72.34 C15.34 50.76, 33.95 34.35, 59.52 1.39 M-2.14 72.34 C19.65 47.5, 41.51 21.17, 59.52 1.39 M1.53 74.21 C15.47 54.32, 31.25 35.7, 58.61 8.55 M1.53 74.21 C14.33 59.56, 27.83 44.77, 58.61 8.55 M7.83 73.06 C25.87 51.35, 46 30.88, 55.72 17.96 M7.83 73.06 C18.23 60.54, 29.08 49.87, 55.72 17.96 M14.13 71.91 C27.97 59.49, 39.34 43.56, 50.87 29.64 M14.13 71.91 C21.55 63.98, 29.58 53.77, 50.87 29.64" stroke="#e64980" stroke-width="0.5" fill="none"></path><path d="M0.03 0.39 C4.94 -2.93, 19.1 -19.63, 28.5 -19.71 C37.9 -19.79, 53.75 -10.07, 56.42 -0.11 C59.08 9.84, 54.23 27.91, 44.51 40.02 C34.79 52.13, 14.63 74.44, -1.91 72.55 C-18.45 70.65, -46.33 41.33, -54.72 28.65 C-63.11 15.96, -57.19 4.13, -52.23 -3.57 C-47.27 -11.27, -33.67 -18.32, -24.94 -17.53 C-16.21 -16.75, -3.96 -1.75, 0.15 1.14 M-1.41 -0.46 C3.97 -3.67, 21.38 -18.45, 30.86 -18.72 C40.34 -18.99, 53.13 -11.52, 55.46 -2.06 C57.79 7.4, 54.09 25.52, 44.86 38.05 C35.63 50.59, 16.44 74.86, 0.1 73.15 C-16.25 71.45, -44.67 40.86, -53.22 27.83 C-61.77 14.8, -55.85 2.58, -51.22 -5.02 C-46.58 -12.63, -33.69 -18.71, -25.39 -17.82 C-17.1 -16.92, -5.74 -2.49, -1.44 0.36" stroke="#a61e4d" stroke-width="1" fill="none"></path></g></g><mask></mask><g stroke-linecap="round"><g transform="translate(442.48115080690604 186.64075615002554) rotate(33.89978882129545 -1.349615832662721 25.09437829808047)" fill-rule="evenodd"><path d="M-70.2 -18.63 C-70.2 -18.63, -70.2 -18.63, -70.2 -18.63 M-70.2 -18.63 C-70.2 -18.63, -70.2 -18.63, -70.2 -18.63 M-75.06 -6.95 C-71.03 -12.7, -69.6 -14.8, -59.31 -25.06 M-75.06 -6.95 C-71.05 -12.35, -65.09 -17.55, -59.31 -25.06 M-75.32 -0.55 C-69.67 -5.67, -62.97 -13.41, -51.04 -28.47 M-75.32 -0.55 C-70.05 -6.31, -63.1 -14.04, -51.04 -28.47 M-73.61 3.59 C-68.35 -5.44, -60.41 -12.16, -45.4 -28.87 M-73.61 3.59 C-64.82 -5.49, -57.7 -17.16, -45.4 -28.87 M-72.56 8.47 C-63.73 -0.75, -57.99 -8.44, -39.76 -29.26 M-72.56 8.47 C-63.85 -1.75, -55.49 -11.08, -39.76 -29.26 M-70.2 11.85 C-60.84 0.89, -54.52 -7.11, -36.08 -27.39 M-70.2 11.85 C-60.94 0.1, -51.06 -10.37, -36.08 -27.39 M-68.49 15.99 C-56.38 0.98, -40.18 -16.17, -31.75 -26.28 M-68.49 15.99 C-57.15 3.47, -46.29 -8.5, -31.75 -26.28 M-66.13 19.37 C-55.41 3.99, -39.47 -10.85, -28.73 -23.65 M-66.13 19.37 C-55.87 8.56, -46.42 -4, -28.73 -23.65 M-64.42 23.5 C-54.6 10.54, -45.71 -3.04, -25.71 -21.03 M-64.42 23.5 C-52.94 8.97, -40.57 -6, -25.71 -21.03 M-62.06 26.88 C-49.88 12.39, -36.17 -3.58, -22.7 -18.4 M-62.06 26.88 C-46.26 8.39, -31.21 -9.51, -22.7 -18.4 M-59.7 30.26 C-50.87 16.55, -40.34 6.08, -19.68 -15.78 M-59.7 30.26 C-50.92 21.03, -44.02 11.73, -19.68 -15.78 M-57.33 33.64 C-43.79 20.26, -31.66 3.54, -16 -13.91 M-57.33 33.64 C-42.15 17.86, -28.88 1.06, -16 -13.91 M-54.32 36.26 C-38.52 18.68, -26.19 2.85, -12.98 -11.29 M-54.32 36.26 C-43.04 23.89, -31.98 10.81, -12.98 -11.29 M-51.95 39.64 C-40.43 25.39, -28.21 9.93, -9.96 -8.66 M-51.95 39.64 C-36.65 22.65, -22.89 4.81, -9.96 -8.66 M-48.93 42.26 C-39.35 29.19, -28.23 15.52, -6.95 -6.04 M-48.93 42.26 C-34.88 26.22, -20.75 9.97, -6.95 -6.04 M-45.91 44.89 C-34.81 33.29, -26.42 22.51, -3.93 -3.41 M-45.91 44.89 C-32.31 29.44, -18.51 11.97, -3.93 -3.41 M15.1 -25.3 C16.2 -28.96, 20.06 -31.22, 25.6 -37.38 M15.1 -25.3 C18.27 -28.09, 21.13 -32.77, 25.6 -37.38 M-43.55 48.27 C-27.36 33.74, -14.86 17.12, -0.91 -0.79 M-43.55 48.27 C-27.33 29.62, -11.5 11.16, -0.91 -0.79 M4.34 -6.83 C16.14 -19.81, 24.18 -29.64, 33.86 -40.79 M4.34 -6.83 C13.97 -17.55, 22.88 -28.95, 33.86 -40.79 M-40.53 50.89 C-11.63 16.1, 18.16 -19.64, 40.16 -41.94 M-40.53 50.89 C-15.77 22.79, 8.78 -4.55, 40.16 -41.94 M-38.17 54.27 C-22.19 34.62, -2.07 14.16, 45.15 -41.58 M-38.17 54.27 C-15.29 27.17, 8.6 2.16, 45.15 -41.58 M-35.15 56.89 C-15.09 35.05, 5.65 11.19, 50.14 -41.22 M-35.15 56.89 C-16.37 36.24, 0.8 15.97, 50.14 -41.22 M-32.13 59.52 C-3.81 23.25, 29.53 -13.26, 54.47 -40.1 M-32.13 59.52 C-5.42 28.21, 19.36 -1.73, 54.47 -40.1 M-29.11 62.14 C-7.7 37.63, 13.69 14.73, 58.14 -38.23 M-29.11 62.14 C3.11 23.51, 36.52 -14.13, 58.14 -38.23 M-26.1 64.77 C3.1 30.81, 32.16 -2.34, 61.16 -35.61 M-26.1 64.77 C7.47 25.62, 42.96 -14.39, 61.16 -35.61 M-23.08 67.39 C6.16 34.51, 36.1 2.85, 63.52 -32.23 M-23.08 67.39 C-5.71 44.91, 13.08 23.89, 63.52 -32.23 M-20.06 70.02 C1.39 42.78, 28.15 14.66, 65.89 -28.85 M-20.06 70.02 C4.36 44.36, 26.64 16.96, 65.89 -28.85 M-17.04 72.64 C6.77 43.16, 34.07 14.24, 67.59 -24.72 M-17.04 72.64 C0.9 52.33, 17.19 32.75, 67.59 -24.72 M-14.02 75.26 C13.85 40.51, 40.96 11.56, 69.3 -20.58 M-14.02 75.26 C8.76 47.07, 32.59 22.03, 69.3 -20.58 M-11 77.89 C7.45 58.72, 24.67 38.53, 70.35 -15.7 M-11 77.89 C7.56 55.58, 27.31 32.45, 70.35 -15.7 M-7.98 80.51 C7.51 59.39, 24.74 39.56, 71.4 -10.81 M-7.98 80.51 C16.22 51.88, 39.23 24.07, 71.4 -10.81 M-4.96 83.14 C24.71 50.3, 52.03 21.23, 72.45 -5.92 M-4.96 83.14 C13.77 59.93, 35.6 36.53, 72.45 -5.92 M-1.29 85.01 C19.12 58.96, 41.6 35.74, 73.5 -1.03 M-1.29 85.01 C16.49 64.15, 34.56 41.61, 73.5 -1.03 M1.73 87.63 C20.9 66.31, 38.54 43.24, 73.24 5.37 M1.73 87.63 C17.6 68.18, 33.02 52.02, 73.24 5.37 M5.41 89.5 C21.64 73.14, 38.01 55.42, 72.98 11.76 M5.41 89.5 C29.03 62.63, 53.68 35.56, 72.98 11.76 M8.42 92.12 C28.14 69.21, 46.98 47.58, 70.09 21.18 M8.42 92.12 C29.1 68.5, 47.55 47.32, 70.09 21.18 M17.35 87.96 C30.08 69.42, 46.3 53.75, 54.09 45.69 M17.35 87.96 C27.02 75.58, 38.54 64.19, 54.09 45.69" stroke="#e64980" stroke-width="0.5" fill="none"></path><path d="M-0.67 -1.05 C3.44 -7.26, 14.39 -31.24, 24.73 -36.89 C35.07 -42.54, 53.45 -43.09, 61.37 -34.95 C69.29 -26.81, 74.34 -2.85, 72.24 11.94 C70.15 26.72, 57.84 41.13, 48.79 53.74 C39.75 66.36, 26.43 82.45, 17.96 87.63 C9.48 92.81, 10.86 93.99, -2.04 84.81 C-14.94 75.62, -47.2 48.5, -59.45 32.51 C-71.69 16.52, -78.72 -0.76, -75.52 -11.15 C-72.32 -21.54, -53.02 -31.54, -40.24 -29.83 C-27.46 -28.11, -5.76 -5.97, 1.14 -0.87 M1.18 1.02 C5.1 -5.57, 13.68 -32.33, 23.6 -38.62 C33.52 -44.91, 52.59 -45.35, 60.71 -36.7 C68.82 -28.06, 74.52 -1.92, 72.31 13.25 C70.09 28.43, 56.78 42.15, 47.41 54.35 C38.04 66.56, 24.73 81.63, 16.08 86.49 C7.43 91.35, 8.26 92.47, -4.49 83.52 C-17.23 74.57, -48.86 48.79, -60.39 32.77 C-71.92 16.75, -77.19 -2.11, -73.66 -12.62 C-70.12 -23.13, -51.2 -32.34, -39.19 -30.3 C-27.18 -28.25, -8.19 -5.51, -1.6 -0.33" stroke="#a61e4d" stroke-width="1" fill="none"></path></g></g><mask></mask></svg>
