<svg version="1.1" xmlns="http://www.w3.org/2000/svg" viewBox="0 0 523.7515153500867 350.7149175977197" width="523.7515153500867" height="350.7149175977197"><!-- svg-source:excalidraw --><metadata></metadata><defs><style class="style-fonts">
      </style></defs><g transform="translate(248.56525015563057 157.43946790734276) rotate(0 -9.21496674420905 9.214966744208823)" stroke="none"><path fill="#a61e4d" d="M -4.97,1.65 Q -4.97,1.65 -5.62,-0.08 -6.28,-1.81 -7.68,-3.81 -9.08,-5.80 -11.06,-4.86 -13.03,-3.92 -15.31,-1.95 -17.59,0.01 -18.04,2.91 -18.49,5.81 -18.45,8.15 -18.41,10.48 -18.37,13.01 -18.34,15.54 -15.64,17.49 -12.95,19.43 -9.17,20.61 -5.39,21.80 -2.57,21.58 0.23,21.37 3.95,22.06 7.67,22.76 9.68,22.82 11.70,22.87 12.32,23.50 12.95,24.13 13.41,24.89 13.87,25.65 14.13,26.49 14.40,27.34 14.45,28.22 14.50,29.11 14.34,29.98 14.18,30.85 13.82,31.66 13.46,32.47 12.91,33.17 12.36,33.86 11.66,34.41 10.97,34.96 10.16,35.32 9.35,35.69 8.48,35.84 7.61,36.00 6.72,35.95 5.84,35.90 4.99,35.63 4.14,35.37 3.38,34.91 2.63,34.45 1.79,29.59 0.95,24.73 1.74,23.84 2.53,22.95 3.56,22.36 4.59,21.77 5.76,21.54 6.93,21.31 8.11,21.47 9.29,21.62 10.36,22.15 11.42,22.67 12.27,23.51 13.11,24.34 13.65,25.41 14.18,26.47 14.35,27.65 14.51,28.83 14.30,30.00 14.08,31.17 13.50,32.21 12.92,33.24 12.03,34.04 11.15,34.84 10.06,35.32 8.97,35.79 7.79,35.89 6.60,36.00 5.44,35.72 4.29,35.43 3.28,34.80 2.28,34.16 1.53,33.24 0.78,32.31 0.36,31.20 -0.04,30.08 -0.08,28.89 -0.12,27.71 0.21,26.57 0.56,25.43 1.25,24.46 1.94,23.49 2.90,22.79 3.86,22.09 5.00,21.74 6.14,21.38 7.32,21.41 8.51,21.43 9.63,21.84 10.75,22.24 11.68,22.99 12.61,23.73 13.26,24.73 13.90,25.73 14.20,26.88 14.49,28.03 14.40,29.22 14.31,30.41 13.00,26.64 11.70,22.87 12.32,23.50 12.95,24.13 13.41,24.89 13.87,25.64 14.13,26.49 14.40,27.34 14.45,28.22 14.50,29.11 14.34,29.98 14.18,30.85 13.82,31.66 13.46,32.47 12.91,33.17 12.36,33.86 11.67,34.41 10.97,34.96 10.16,35.32 9.35,35.68 8.48,35.84 7.61,36.00 6.72,35.95 5.84,35.90 4.99,35.63 4.14,35.37 3.39,34.91 2.63,34.45 1.41,35.20 0.19,35.95 -2.69,35.91 -5.58,35.86 -8.14,35.47 -10.70,35.07 -13.42,34.19 -16.14,33.32 -18.86,32.11 -21.58,30.90 -24.59,28.37 -27.60,25.84 -29.43,23.80 -31.26,21.76 -32.04,17.44 -32.81,13.13 -32.77,10.73 -32.73,8.32 -32.69,6.04 -32.64,3.75 -32.39,0.99 -32.15,-1.77 -30.64,-4.98 -29.12,-8.19 -26.07,-10.17 -23.01,-12.14 -20.65,-13.49 -18.28,-14.85 -14.65,-16.03 -11.02,-17.22 -8.39,-17.38 -5.75,-17.54 -3.31,-15.86 -0.88,-14.18 0.42,-12.22 1.73,-10.27 2.83,-7.75 3.92,-5.24 4.45,-3.45 4.97,-1.65 5.09,-1.03 5.22,-0.41 5.19,0.21 5.17,0.84 4.99,1.45 4.82,2.05 4.50,2.60 4.18,3.15 3.75,3.60 3.31,4.06 2.77,4.39 2.24,4.73 1.64,4.93 1.04,5.13 0.41,5.18 -0.21,5.23 -0.83,5.13 -1.46,5.03 -2.04,4.78 -2.62,4.53 -3.12,4.15 -3.63,3.77 -4.03,3.28 -4.43,2.79 -4.70,2.22 -4.97,1.65 -4.97,1.65 L -4.97,1.65 Z"></path></g><g transform="translate(254.7085613184363 151.2961567445368) rotate(0 12.798564922512469 13.822450116313235)" stroke="none"><path fill="#a61e4d" d="M -5.17,-0.64 Q -5.17,-0.64 -4.90,-3.03 -4.64,-5.41 -3.94,-7.74 -3.25,-10.06 -0.11,-12.38 3.03,-14.70 5.95,-14.98 8.87,-15.26 11.16,-15.39 13.44,-15.51 16.65,-14.88 19.85,-14.24 22.33,-12.73 24.81,-11.22 26.19,-8.75 27.57,-6.28 28.93,-3.29 30.29,-0.29 30.91,3.18 31.52,6.67 31.69,8.81 31.85,10.96 32.05,13.97 32.24,16.99 32.32,19.25 32.39,21.52 31.94,24.08 31.49,26.65 29.42,29.58 27.35,32.51 25.24,33.35 23.13,34.20 21.11,35.12 19.09,36.05 17.13,37.56 15.17,39.06 14.41,39.46 13.65,39.86 13.00,40.82 12.35,41.77 11.43,42.47 10.50,43.17 9.41,43.54 8.31,43.91 7.16,43.91 6.00,43.91 4.91,43.54 3.81,43.17 2.89,42.47 1.97,41.76 1.32,40.81 0.67,39.85 0.37,38.74 0.06,37.62 0.12,36.47 0.18,35.31 0.61,34.24 1.04,33.17 1.79,32.29 2.54,31.40 3.53,30.81 4.52,30.21 5.65,29.97 6.78,29.72 7.93,29.85 9.08,29.97 10.13,30.46 11.18,30.94 12.02,31.74 12.85,32.54 13.40,33.56 13.94,34.58 14.12,35.72 14.31,36.86 14.12,38.00 13.93,39.14 13.39,40.16 12.85,41.18 12.01,41.98 11.17,42.77 10.12,43.26 9.07,43.74 7.92,43.87 6.77,43.99 5.64,43.74 4.51,43.49 3.52,42.89 2.53,42.30 1.78,41.41 1.04,40.53 0.61,39.46 0.18,38.38 0.12,37.23 0.06,36.07 0.37,34.96 0.68,33.85 0.68,33.85 0.68,33.85 4.56,30.28 8.45,26.72 10.24,25.33 12.04,23.93 15.04,23.57 18.04,23.20 18.45,20.84 18.87,18.49 18.91,16.29 18.94,14.10 18.76,11.35 18.58,8.60 17.72,5.83 16.86,3.07 16.02,0.08 15.19,-2.90 13.04,-2.97 10.89,-3.04 8.35,-3.52 5.82,-4.00 5.49,-1.67 5.17,0.64 5.02,1.25 4.86,1.86 4.57,2.42 4.28,2.97 3.86,3.44 3.44,3.91 2.92,4.27 2.40,4.62 1.81,4.84 1.22,5.06 0.60,5.14 -0.01,5.21 -0.64,5.13 -1.26,5.05 -1.85,4.83 -2.43,4.60 -2.95,4.24 -3.47,3.89 -3.88,3.41 -4.30,2.94 -4.59,2.38 -4.88,1.83 -5.03,1.22 -5.17,0.60 -5.17,-0.01 -5.17,-0.64 -5.17,-0.64 L -5.17,-0.64 Z"></path></g><g transform="translate(374.50312899315213 204.5381868221882) rotate(0 -14.334392713213788 6.143311162805958)" stroke="none"><path fill="#a61e4d" d="M -4.04,3.36 Q -4.04,3.36 -5.54,1.62 -7.04,-0.11 -8.74,-1.93 -10.44,-3.74 -12.27,-5.07 -14.10,-6.40 -16.96,-7.25 -19.81,-8.09 -22.24,-6.71 -24.67,-5.33 -22.00,-5.15 -19.34,-4.97 -16.85,-4.23 -14.35,-3.49 -11.48,-2.10 -8.61,-0.72 -5.46,2.61 -2.32,5.94 -0.96,7.91 0.38,9.89 2.28,12.75 4.19,15.62 5.33,17.76 6.47,19.89 7.39,21.67 8.30,23.45 8.65,24.53 8.99,25.61 8.97,26.75 8.95,27.88 8.56,28.95 8.18,30.02 7.48,30.91 6.77,31.80 5.82,32.42 4.87,33.04 3.77,33.32 2.67,33.61 1.54,33.52 0.40,33.44 -0.63,33.00 -1.68,32.56 -2.53,31.81 -3.38,31.06 -3.95,30.07 -4.51,29.09 -4.74,27.98 -4.96,26.86 -4.82,25.74 -4.67,24.61 -4.18,23.59 -3.68,22.57 -2.88,21.76 -2.09,20.95 -1.07,20.44 -0.06,19.92 1.05,19.76 2.18,19.60 3.29,19.80 4.41,20.01 5.40,20.56 6.40,21.11 7.16,21.95 7.93,22.79 8.38,23.83 8.84,24.87 8.94,26.00 9.04,27.13 8.78,28.23 8.51,29.34 7.91,30.30 7.30,31.26 6.42,31.98 5.54,32.70 4.48,33.10 3.42,33.50 2.28,33.54 1.15,33.58 0.06,33.25 -1.02,32.93 -1.94,32.27 -2.87,31.62 -3.54,30.70 -4.21,29.78 -4.21,29.78 -4.21,29.78 -5.56,27.08 -6.91,24.38 -8.37,21.96 -9.84,19.53 -11.02,17.74 -12.21,15.95 -14.49,13.23 -16.77,10.52 -19.42,9.31 -22.07,8.11 -25.86,6.81 -29.66,5.51 -31.67,4.14 -33.68,2.78 -35.03,0.36 -36.38,-2.06 -36.61,-4.67 -36.84,-7.28 -35.93,-10.16 -35.02,-13.03 -33.13,-15.22 -31.24,-17.40 -29.45,-18.56 -27.66,-19.71 -23.71,-19.99 -19.75,-20.28 -17.64,-19.74 -15.53,-19.20 -12.30,-17.79 -9.06,-16.39 -5.86,-13.71 -2.65,-11.02 -0.74,-8.98 1.15,-6.95 2.59,-5.15 4.04,-3.36 4.38,-2.83 4.72,-2.30 4.93,-1.70 5.14,-1.10 5.20,-0.47 5.25,0.15 5.16,0.78 5.06,1.41 4.82,1.99 4.58,2.58 4.20,3.09 3.83,3.60 3.34,4.01 2.85,4.41 2.28,4.69 1.71,4.97 1.09,5.10 0.47,5.23 -0.15,5.21 -0.79,5.20 -1.40,5.03 -2.01,4.85 -2.56,4.54 -3.11,4.23 -3.57,3.80 -4.04,3.36 -4.04,3.36 L -4.04,3.36 Z"></path></g><g transform="translate(364.26427705514243 202.49041643458622) rotate(0 17.406048294616767 4.607483372104525)" stroke="none"><path fill="#a61e4d" d="M -4.94,-1.64 Q -4.94,-1.64 -4.05,-4.29 -3.15,-6.94 -1.74,-9.84 -0.33,-12.73 0.89,-14.76 2.13,-16.79 4.14,-19.07 6.15,-21.34 9.06,-22.51 11.97,-23.69 14.85,-23.20 17.74,-22.72 20.38,-21.11 23.03,-19.50 25.66,-17.36 28.29,-15.22 30.66,-13.36 33.04,-11.50 34.75,-8.78 36.46,-6.06 37.79,-3.96 39.13,-1.86 40.09,2.16 41.06,6.20 41.18,9.17 41.29,12.14 40.47,15.74 39.66,19.34 37.85,22.19 36.05,25.05 34.55,27.55 33.04,30.06 30.29,32.30 27.54,34.55 24.82,34.91 22.09,35.27 19.63,35.38 17.17,35.49 13.42,35.09 9.66,34.69 6.77,32.87 3.87,31.05 3.11,30.22 2.35,29.39 1.90,28.35 1.45,27.32 1.35,26.20 1.25,25.08 1.51,23.99 1.77,22.89 2.37,21.94 2.97,20.99 3.84,20.27 4.71,19.56 5.77,19.17 6.82,18.77 7.95,18.73 9.07,18.69 10.15,19.01 11.23,19.33 12.15,19.98 13.07,20.63 13.73,21.54 14.40,22.45 14.73,23.53 15.07,24.60 15.05,25.73 15.03,26.85 14.65,27.91 14.27,28.97 13.57,29.85 12.87,30.74 11.93,31.35 10.98,31.96 9.89,32.24 8.80,32.52 7.68,32.44 6.56,32.36 5.52,31.92 4.48,31.48 3.64,30.74 2.80,29.99 2.23,29.02 1.67,28.04 1.45,26.94 1.23,25.83 1.38,24.72 1.52,23.60 2.01,22.59 2.50,21.58 3.29,20.77 4.08,19.97 5.09,19.46 6.09,18.96 7.21,18.80 8.32,18.64 9.43,18.84 10.54,19.04 11.52,19.59 12.50,20.14 12.50,20.14 12.50,20.13 13.12,20.96 13.74,21.78 15.96,21.82 18.17,21.87 20.59,21.70 23.01,21.52 25.05,18.48 27.09,15.43 27.67,12.47 28.25,9.52 27.68,6.24 27.11,2.96 25.79,0.37 24.48,-2.22 22.15,-4.13 19.83,-6.04 18.27,-7.56 16.71,-9.08 14.52,-10.82 12.34,-12.55 10.62,-10.40 8.90,-8.24 7.79,-5.95 6.68,-3.65 5.81,-1.00 4.94,1.64 4.67,2.21 4.40,2.78 4.01,3.27 3.61,3.75 3.11,4.13 2.60,4.51 2.03,4.76 1.45,5.00 0.83,5.11 0.21,5.21 -0.41,5.16 -1.04,5.11 -1.63,4.91 -2.23,4.71 -2.76,4.37 -3.29,4.04 -3.73,3.58 -4.16,3.13 -4.48,2.59 -4.79,2.04 -4.97,1.44 -5.14,0.83 -5.17,0.21 -5.19,-0.41 -5.07,-1.03 -4.94,-1.64 -4.94,-1.64 L -4.94,-1.64 Z"></path></g><g transform="translate(368.3598178303464 206.5859572097902) rotate(0 -1.53582779070166 12.286622325611916)" stroke="none"><path fill="#a61e4d" d="M -3.66,3.66 Q -3.66,3.66 -5.44,1.91 -7.22,0.17 -9.53,-1.17 -11.85,-2.51 -14.29,-2.30 -16.72,-2.09 -16.27,-0.00 -15.82,2.08 -15.81,4.59 -15.81,7.10 -14.47,8.85 -13.14,10.61 -11.13,11.66 -9.13,12.72 -6.96,13.55 -4.80,14.38 -2.38,16.05 0.02,17.71 2.14,18.57 4.26,19.43 6.72,20.32 9.18,21.21 11.63,22.01 14.08,22.81 16.43,24.61 18.78,26.41 15.22,29.33 11.65,32.25 12.29,34.42 12.92,36.60 9.63,34.55 6.33,32.51 3.31,28.68 0.28,24.84 -1.43,22.87 -3.16,20.91 -3.89,19.90 -4.63,18.89 -5.14,18.23 -5.64,17.56 -5.97,16.80 -6.30,16.03 -6.43,15.21 -6.57,14.39 -6.50,13.55 -6.44,12.72 -6.18,11.93 -5.92,11.14 -5.47,10.43 -5.03,9.73 -4.43,9.15 -3.83,8.57 -3.11,8.15 -2.39,7.73 -1.59,7.50 -0.79,7.26 0.04,7.23 0.87,7.19 1.69,7.36 2.50,7.52 3.26,7.88 4.01,8.23 4.66,8.76 5.31,9.28 2.46,9.79 -0.37,10.29 0.87,7.60 2.12,4.91 3.51,2.25 4.89,-0.40 5.63,-2.84 6.37,-5.27 6.80,-8.36 7.23,-11.45 7.63,-12.20 8.03,-12.96 8.34,-13.73 8.66,-14.51 9.15,-15.18 9.64,-15.86 10.28,-16.40 10.92,-16.94 11.67,-17.31 12.42,-17.68 13.23,-17.87 14.05,-18.05 14.89,-18.03 15.72,-18.01 16.53,-17.79 17.34,-17.57 18.07,-17.17 18.80,-16.76 19.41,-16.19 20.03,-15.62 20.49,-14.92 20.94,-14.22 21.22,-13.44 21.50,-12.65 21.58,-11.81 21.66,-10.98 21.54,-10.15 21.42,-9.33 20.39,-12.85 19.36,-16.38 21.26,-14.02 23.16,-11.66 24.48,-7.98 25.80,-4.30 26.11,-1.67 26.42,0.95 26.40,4.54 26.38,8.13 26.31,11.97 26.24,15.81 26.23,19.03 26.21,22.24 26.13,24.67 26.05,27.11 26.04,30.43 26.04,33.76 26.06,35.31 26.09,36.85 25.92,37.92 25.74,38.98 25.24,39.92 24.74,40.87 23.96,41.61 23.18,42.35 22.20,42.80 21.23,43.25 20.16,43.37 19.09,43.49 18.04,43.25 16.99,43.02 16.07,42.47 15.15,41.92 14.45,41.10 13.76,40.28 13.36,39.28 12.96,38.28 12.91,37.21 12.85,36.14 13.13,35.10 13.42,34.07 14.03,33.18 14.63,32.29 15.48,31.64 16.34,30.99 17.36,30.64 18.38,30.30 19.45,30.30 20.52,30.30 21.54,30.64 22.56,30.99 23.42,31.64 24.27,32.29 24.87,33.18 25.48,34.07 25.76,35.10 26.05,36.14 25.99,37.21 25.93,38.28 25.54,39.28 25.14,40.28 24.44,41.10 23.75,41.92 22.83,42.47 21.91,43.02 20.86,43.26 19.81,43.49 18.74,43.37 17.67,43.25 16.70,42.80 15.72,42.35 14.94,41.61 14.16,40.87 13.66,39.92 13.16,38.97 12.98,37.91 12.81,36.85 12.81,36.85 12.81,36.85 12.83,35.31 12.86,33.76 12.86,30.43 12.85,27.11 12.77,24.67 12.68,22.24 12.67,19.03 12.66,15.82 12.58,11.98 12.51,8.14 12.45,3.96 12.40,-0.21 12.20,-2.53 11.99,-4.86 10.01,-8.91 8.03,-12.96 8.34,-13.73 8.66,-14.51 9.15,-15.18 9.64,-15.86 10.28,-16.40 10.92,-16.94 11.67,-17.31 12.42,-17.68 13.23,-17.87 14.05,-18.05 14.89,-18.03 15.72,-18.01 16.53,-17.79 17.34,-17.57 18.07,-17.17 18.80,-16.76 19.41,-16.19 20.03,-15.62 20.48,-14.92 20.94,-14.22 21.22,-13.44 21.50,-12.65 21.58,-11.81 21.66,-10.98 21.54,-10.15 21.42,-9.33 20.79,-8.25 20.15,-7.18 20.00,-4.52 19.84,-1.85 19.07,0.57 18.31,3.01 16.68,6.29 15.04,9.57 12.98,12.69 10.91,15.80 7.97,18.47 5.02,21.14 0.19,20.01 -4.63,18.89 -5.14,18.23 -5.64,17.56 -5.97,16.80 -6.30,16.03 -6.43,15.21 -6.57,14.39 -6.50,13.55 -6.44,12.72 -6.18,11.93 -5.92,11.14 -5.47,10.43 -5.03,9.73 -4.43,9.15 -3.83,8.57 -3.11,8.15 -2.39,7.73 -1.59,7.50 -0.79,7.26 0.04,7.23 0.87,7.19 1.69,7.36 2.50,7.52 3.26,7.88 4.01,8.23 4.66,8.76 5.31,9.28 6.73,11.16 8.15,13.04 9.81,15.17 11.47,17.30 13.76,19.92 16.05,22.54 18.31,24.63 20.57,26.72 22.16,29.13 23.75,31.54 24.27,34.10 24.79,36.66 18.38,37.95 11.98,39.24 9.90,37.13 7.82,35.02 5.05,34.16 2.29,33.30 -0.60,32.50 -3.50,31.71 -5.39,30.58 -7.29,29.45 -9.29,28.02 -11.29,26.59 -13.63,25.62 -15.97,24.65 -18.87,22.68 -21.76,20.71 -23.97,18.04 -26.17,15.38 -27.29,13.30 -28.42,11.22 -28.80,7.71 -29.19,4.20 -29.06,1.69 -28.93,-0.82 -28.39,-3.03 -27.85,-5.23 -25.22,-8.74 -22.59,-12.24 -20.17,-13.26 -17.74,-14.28 -15.54,-14.23 -13.35,-14.19 -10.86,-13.75 -8.37,-13.31 -5.96,-11.92 -3.56,-10.52 -1.70,-8.88 0.15,-7.23 1.90,-5.44 3.66,-3.66 4.04,-3.17 4.43,-2.67 4.68,-2.10 4.94,-1.54 5.05,-0.92 5.16,-0.31 5.13,0.31 5.09,0.93 4.90,1.52 4.72,2.12 4.39,2.65 4.07,3.19 3.63,3.63 3.19,4.07 2.65,4.39 2.12,4.72 1.52,4.90 0.93,5.09 0.30,5.13 -0.31,5.16 -0.92,5.05 -1.54,4.94 -2.11,4.68 -2.67,4.43 -3.17,4.04 -3.66,3.66 -3.66,3.66 L -3.66,3.66 Z"></path></g><g transform="translate(441.05566659021633 96.00635627928341) rotate(0 -8.70302414730827 6.655253759706397)" stroke="none"><path fill="#a61e4d" d="M -5.01,1.67 Q -5.01,1.67 -5.66,-0.06 -6.32,-1.80 -9.03,-3.95 -11.75,-6.10 -13.84,-8.18 -15.94,-10.27 -13.65,-9.33 -11.36,-8.39 -11.52,-5.78 -11.69,-3.17 -11.65,-0.99 -11.61,1.19 -11.56,3.36 -11.52,5.53 -11.47,7.76 -11.42,10.00 -11.38,12.24 -11.35,14.48 -11.35,16.84 -11.36,19.21 -12.50,17.00 -13.64,14.79 -11.80,15.87 -9.96,16.96 -7.44,18.14 -4.91,19.33 -0.80,20.78 3.29,22.22 4.23,22.92 5.17,23.61 5.84,24.57 6.52,25.53 6.84,26.65 7.17,27.78 7.13,28.95 7.08,30.12 6.66,31.21 6.25,32.30 5.50,33.21 4.76,34.11 3.76,34.73 2.77,35.34 1.63,35.61 0.49,35.88 -0.66,35.77 -1.83,35.66 -2.90,35.19 -3.97,34.71 -4.83,33.92 -5.69,33.12 -6.25,32.10 -6.82,31.07 -7.02,29.92 -7.23,28.77 -7.06,27.61 -6.88,26.45 -6.35,25.41 -5.82,24.37 -4.98,23.55 -4.14,22.74 -3.09,22.23 -2.03,21.72 -0.87,21.58 0.28,21.44 1.43,21.67 2.57,21.91 3.59,22.49 4.60,23.08 5.37,23.96 6.14,24.85 6.59,25.93 7.04,27.01 7.12,28.17 7.20,29.34 6.90,30.47 6.60,31.61 5.96,32.58 5.32,33.56 4.40,34.28 3.48,35.01 2.37,35.40 1.27,35.78 0.10,35.80 -1.06,35.82 -2.18,35.46 -3.29,35.10 -3.29,35.10 -3.29,35.10 -5.65,34.21 -8.01,33.31 -10.04,32.60 -12.07,31.88 -14.08,31.07 -16.09,30.25 -18.22,28.89 -20.35,27.53 -22.02,26.08 -23.68,24.62 -24.58,22.34 -25.49,20.06 -25.50,17.27 -25.50,14.48 -25.47,12.24 -25.43,10.00 -25.38,7.76 -25.33,5.52 -25.28,3.32 -25.23,1.12 -25.14,-1.31 -25.04,-3.75 -24.68,-6.48 -24.33,-9.22 -22.91,-11.80 -21.48,-14.38 -19.79,-16.27 -18.10,-18.15 -15.96,-19.30 -13.82,-20.45 -11.65,-19.99 -9.48,-19.53 -7.20,-17.66 -4.93,-15.80 -2.19,-13.53 0.53,-11.26 2.25,-8.26 3.96,-5.25 4.49,-3.46 5.01,-1.67 5.14,-1.04 5.27,-0.42 5.24,0.21 5.21,0.85 5.04,1.46 4.86,2.07 4.54,2.62 4.22,3.17 3.78,3.63 3.34,4.09 2.80,4.43 2.26,4.77 1.66,4.98 1.05,5.18 0.41,5.23 -0.21,5.28 -0.84,5.18 -1.47,5.07 -2.06,4.82 -2.64,4.57 -3.15,4.19 -3.66,3.81 -4.06,3.31 -4.47,2.82 -4.74,2.24 -5.01,1.67 -5.01,1.67 L -5.01,1.67 Z"></path></g><g transform="translate(444.1273221716194 103.17355263589025) rotate(0 10.75079453491037 3.071655581402979)" stroke="none"><path fill="#a61e4d" d="M -5.15,0 Q -5.15,0 -5.22,-2.06 -5.28,-4.12 -5.32,-6.84 -5.35,-9.56 -4.14,-11.94 -2.92,-14.32 -1.01,-16.38 0.90,-18.44 3.56,-18.97 6.21,-19.49 8.66,-20.04 11.12,-20.58 14.01,-21.25 16.90,-21.93 19.02,-21.25 21.13,-20.57 23.14,-18.46 25.14,-16.35 26.19,-13.86 27.25,-11.36 27.67,-7.29 28.09,-3.21 28.17,-0.79 28.25,1.62 26.71,5.57 25.18,9.53 22.96,11.97 20.74,14.42 18.74,16.04 16.75,17.67 14.50,19.93 12.26,22.20 8.82,24.94 5.39,27.67 4.32,28.05 3.24,28.42 2.11,28.43 0.97,28.44 -0.10,28.09 -1.18,27.74 -2.09,27.06 -3.00,26.38 -3.65,25.44 -4.30,24.51 -4.61,23.41 -4.93,22.32 -4.88,21.18 -4.82,20.05 -4.41,18.99 -4.00,17.93 -3.27,17.06 -2.55,16.18 -1.58,15.59 -0.61,14.99 0.49,14.74 1.60,14.48 2.73,14.60 3.86,14.71 4.90,15.18 5.93,15.64 6.77,16.42 7.60,17.19 8.14,18.19 8.68,19.19 8.88,20.31 9.07,21.43 8.90,22.56 8.72,23.68 8.20,24.69 7.68,25.70 6.86,26.49 6.04,27.28 5.01,27.76 3.98,28.25 2.85,28.38 1.73,28.52 0.61,28.28 -0.49,28.05 -1.47,27.47 -2.45,26.89 -3.19,26.03 -3.94,25.17 -4.37,24.12 -4.80,23.07 -4.87,21.93 -4.94,20.80 -4.65,19.70 -4.35,18.60 -3.72,17.66 -3.09,16.71 -2.19,16.01 -1.29,15.32 -1.30,15.32 -1.30,15.32 0.56,13.79 2.43,12.26 4.44,10.34 6.45,8.42 8.66,6.71 10.87,4.99 12.79,3.42 14.70,1.85 14.68,-0.39 14.66,-2.64 14.44,-5.78 14.23,-8.93 16.45,-9.68 18.68,-10.43 15.64,-9.18 12.61,-7.92 9.93,-8.71 7.25,-9.50 6.27,-6.81 5.28,-4.12 5.22,-2.06 5.15,0 5.08,0.61 5.00,1.23 4.78,1.81 4.56,2.39 4.21,2.90 3.85,3.41 3.39,3.83 2.92,4.24 2.37,4.53 1.82,4.82 1.22,4.96 0.62,5.11 -0.00,5.11 -0.62,5.11 -1.22,4.96 -1.82,4.82 -2.37,4.53 -2.92,4.24 -3.39,3.83 -3.85,3.41 -4.21,2.90 -4.56,2.39 -4.78,1.81 -5.00,1.23 -5.08,0.61 -5.15,-0.00 -5.15,-0.00 L -5.15,0 Z"></path></g><g transform="translate(444.1273221716194 124.67514170571098) rotate(0 0.00004999999998744897 0.00004999999998744897)" stroke="none"><path fill="#a61e4d" d="M 3.14,-3.14 Q 3.14,-3.14 3.55,-2.55 3.97,-1.97 4.18,-1.28 4.40,-0.59 4.38,0.11 4.36,0.83 4.11,1.51 3.86,2.18 3.41,2.74 2.96,3.30 2.36,3.69 1.75,4.08 1.05,4.25 0.36,4.42 -0.35,4.36 -1.07,4.31 -1.73,4.02 -2.39,3.74 -2.92,3.26 -3.46,2.78 -3.81,2.15 -4.16,1.53 -4.30,0.82 -4.43,0.11 -4.34,-0.59 -4.24,-1.30 -3.92,-1.94 -3.60,-2.59 -3.09,-3.09 -2.59,-3.60 -1.94,-3.92 -1.30,-4.24 -0.59,-4.34 0.12,-4.43 0.82,-4.30 1.53,-4.16 2.15,-3.81 2.78,-3.46 3.26,-2.92 3.74,-2.39 4.02,-1.73 4.31,-1.07 4.36,-0.35 4.42,0.36 4.25,1.05 4.07,1.75 3.69,2.36 3.30,2.96 2.74,3.41 2.18,3.86 1.51,4.11 0.83,4.36 0.11,4.38 -0.60,4.40 -1.28,4.18 -1.97,3.97 -2.55,3.55 -3.14,3.13 -3.14,3.14 -3.14,3.14 -3.47,2.71 -3.80,2.29 -4.02,1.80 -4.24,1.32 -4.33,0.79 -4.43,0.26 -4.40,-0.26 -4.36,-0.80 -4.20,-1.31 -4.04,-1.82 -3.77,-2.28 -3.49,-2.73 -3.11,-3.11 -2.73,-3.49 -2.28,-3.77 -1.82,-4.05 -1.31,-4.20 -0.80,-4.36 -0.26,-4.40 0.26,-4.43 0.79,-4.33 1.32,-4.24 1.80,-4.02 2.29,-3.80 2.71,-3.47 3.14,-3.14 3.14,-3.14 L 3.14,-3.14 Z"></path></g><g transform="translate(306.9267062022868 68.36145604665671) rotate(0 -10.23885193800993 8.703024147308383)" stroke="none"><path fill="#a61e4d" d="M -5.26,0 Q -5.26,0 -5.31,-2.06 -5.37,-4.12 -7.84,-5.03 -10.30,-5.95 -12.70,-3.08 -15.11,-0.20 -16.50,2.96 -17.89,6.13 -17.74,8.33 -17.59,10.54 -15.14,11.17 -12.70,11.81 -9.98,13.08 -7.25,14.34 -3.24,16.80 0.77,19.26 3.05,21.42 5.34,23.58 5.56,23.37 5.79,23.17 6.79,23.61 7.78,24.05 8.59,24.79 9.39,25.52 9.91,26.48 10.44,27.43 10.63,28.51 10.83,29.58 10.67,30.66 10.51,31.74 10.02,32.71 9.52,33.68 8.74,34.44 7.96,35.20 6.98,35.68 6.00,36.15 4.92,36.29 3.83,36.42 2.77,36.20 1.70,35.99 0.75,35.44 -0.18,34.89 -0.90,34.07 -1.62,33.25 -2.04,32.25 -2.46,31.24 -2.53,30.15 -2.61,29.07 -2.33,28.01 -2.06,26.96 -1.46,26.04 -0.87,25.13 -0.01,24.46 0.84,23.79 1.87,23.42 2.89,23.06 3.98,23.04 5.07,23.02 6.11,23.35 7.15,23.68 8.03,24.33 8.91,24.98 9.53,25.87 10.16,26.76 10.47,27.81 10.78,28.85 10.74,29.94 10.69,31.03 10.31,32.05 9.92,33.07 9.23,33.91 8.53,34.75 7.61,35.33 6.68,35.91 5.62,36.16 4.56,36.41 3.48,36.31 2.39,36.21 2.39,36.21 2.39,36.21 -1.56,33.94 -5.52,31.67 -7.23,29.65 -8.95,27.64 -12.24,26.64 -15.53,25.65 -19.19,23.91 -22.85,22.16 -25.49,20.94 -28.14,19.72 -29.31,17.78 -30.47,15.85 -31.00,13.10 -31.53,10.35 -31.39,8.20 -31.26,6.05 -30.47,2.72 -29.67,-0.60 -28.68,-2.73 -27.68,-4.85 -26.19,-7.20 -24.71,-9.54 -23.05,-11.90 -21.40,-14.26 -17.88,-16.03 -14.36,-17.80 -11.40,-18.12 -8.44,-18.45 -5.28,-18.02 -2.13,-17.58 0.12,-15.84 2.38,-14.10 3.61,-12.22 4.83,-10.34 5.10,-7.23 5.37,-4.12 5.31,-2.06 5.26,0 5.18,0.62 5.10,1.25 4.88,1.85 4.65,2.44 4.29,2.96 3.93,3.48 3.46,3.90 2.98,4.32 2.42,4.62 1.86,4.91 1.24,5.07 0.63,5.22 -0.00,5.22 -0.63,5.22 -1.25,5.07 -1.86,4.91 -2.42,4.62 -2.98,4.32 -3.46,3.90 -3.93,3.48 -4.29,2.96 -4.65,2.44 -4.88,1.85 -5.10,1.25 -5.18,0.62 -5.26,-0.00 -5.26,-0.00 L -5.26,0 Z"></path></g><g transform="translate(307.95059139608793 70.40922643425847) rotate(0 4.095540775203858 6.655253759706511)" stroke="none"><path fill="#a61e4d" d="M -5.01,1.25 Q -5.01,1.25 -5.63,-1.09 -6.25,-3.43 -6.82,-5.86 -7.39,-8.29 -7.45,-10.51 -7.51,-12.72 -6.60,-14.67 -5.68,-16.63 -2.64,-17.91 0.39,-19.20 3.17,-19.40 5.94,-19.61 8.21,-19.72 10.49,-19.84 13.47,-18.92 16.46,-18.00 18.16,-16.06 19.87,-14.11 20.43,-11.06 21.00,-8.00 21.10,-5.49 21.21,-2.98 21.26,-0.65 21.31,1.68 20.97,3.79 20.64,5.90 19.30,8.21 17.95,10.52 15.78,13.25 13.60,15.98 12.14,17.84 10.68,19.71 8.49,21.94 6.29,24.17 4.94,25.82 3.59,27.47 0.97,28.73 -1.64,29.99 -0.41,29.16 0.81,28.33 0.35,29.39 -0.09,30.46 -0.87,31.32 -1.64,32.19 -2.64,32.76 -3.65,33.33 -4.79,33.55 -5.93,33.77 -7.07,33.62 -8.22,33.47 -9.26,32.96 -10.30,32.44 -11.12,31.63 -11.94,30.81 -12.46,29.77 -12.98,28.74 -13.14,27.59 -13.30,26.44 -13.08,25.30 -12.87,24.16 -12.30,23.15 -11.73,22.14 -10.87,21.37 -10.01,20.59 -8.95,20.13 -7.88,19.67 -6.73,19.57 -5.58,19.48 -4.45,19.75 -3.33,20.03 -2.35,20.65 -1.37,21.27 -0.64,22.17 0.08,23.08 0.48,24.16 0.88,25.25 0.92,26.41 0.95,27.57 0.61,28.67 0.28,29.78 -0.39,30.72 -1.06,31.67 -2.00,32.35 -2.94,33.02 -4.05,33.37 -5.15,33.71 -6.31,33.68 -7.47,33.65 -8.56,33.26 -9.65,32.86 -10.55,32.14 -11.46,31.41 -12.08,30.44 -12.71,29.46 -12.99,28.34 -13.27,27.21 -13.18,26.06 -13.09,24.90 -13.09,24.91 -13.09,24.91 -10.68,21.38 -8.27,17.86 -6.08,16.08 -3.89,14.30 -2.00,12.31 -0.12,10.32 1.58,8.69 3.28,7.07 5.32,4.38 7.35,1.68 7.39,-0.59 7.44,-2.88 8.96,-4.82 10.49,-6.77 8.23,-6.88 5.97,-7.00 4.81,-8.84 3.65,-10.68 3.78,-8.33 3.90,-5.98 4.46,-3.61 5.01,-1.25 5.09,-0.63 5.17,-0.01 5.09,0.60 5.02,1.22 4.80,1.80 4.58,2.38 4.23,2.90 3.88,3.41 3.41,3.83 2.95,4.24 2.40,4.53 1.84,4.82 1.24,4.97 0.64,5.13 0.01,5.13 -0.60,5.13 -1.21,4.98 -1.81,4.84 -2.37,4.55 -2.92,4.26 -3.39,3.85 -3.85,3.44 -4.21,2.92 -4.57,2.41 -4.79,1.83 -5.01,1.25 -5.01,1.25 L -5.01,1.25 Z"></path></g><g transform="translate(180.98882736476526 32.52547426362207) rotate(0 -9.72690934110949 4.095540775203858)" stroke="none"><path fill="#a61e4d" d="M -3.71,3.71 Q -3.71,3.71 -5.75,1.63 -7.78,-0.45 -9.83,-2.02 -11.87,-3.59 -14.18,-5.81 -16.48,-8.03 -18.05,-9.56 -19.61,-11.10 -21.56,-9.68 -23.52,-8.26 -23.75,-6.14 -23.98,-4.01 -23.96,-1.43 -23.94,1.15 -23.77,3.29 -23.59,5.44 -20.53,6.90 -17.47,8.36 -15.06,9.79 -12.65,11.23 -10.13,11.77 -7.61,12.30 -5.55,12.89 -3.49,13.47 -0.60,14.42 2.29,15.37 4.31,16.29 6.33,17.22 8.92,17.45 11.52,17.69 12.61,17.91 13.70,18.13 14.67,18.69 15.63,19.25 16.37,20.08 17.10,20.92 17.53,21.95 17.96,22.98 18.04,24.09 18.12,25.20 17.84,26.28 17.56,27.36 16.95,28.29 16.34,29.22 15.46,29.91 14.58,30.60 13.53,30.97 12.48,31.35 11.37,31.36 10.25,31.38 9.19,31.04 8.13,30.71 7.23,30.05 6.34,29.39 5.70,28.47 5.05,27.56 4.74,26.49 4.42,25.42 4.47,24.31 4.51,23.20 4.90,22.16 5.30,21.11 6.01,20.25 6.71,19.39 7.66,18.80 8.60,18.21 9.69,17.95 10.77,17.70 11.88,17.80 12.99,17.90 14.01,18.35 15.03,18.81 15.85,19.56 16.67,20.31 17.21,21.29 17.75,22.26 17.95,23.36 18.14,24.46 17.98,25.56 17.82,26.66 17.31,27.65 16.81,28.65 16.01,29.43 15.21,30.21 14.21,30.69 13.21,31.17 12.10,31.31 11.00,31.45 11.00,31.45 11.00,31.45 8.40,31.27 5.81,31.09 3.30,30.35 0.79,29.60 -2.05,28.49 -4.89,27.38 -7.12,26.75 -9.35,26.11 -11.58,25.37 -13.82,24.62 -16.11,24.06 -18.40,23.50 -21.91,21.51 -25.41,19.51 -27.55,17.89 -29.70,16.26 -31.78,14.83 -33.87,13.40 -35.26,11.18 -36.65,8.96 -37.10,6.73 -37.54,4.50 -37.47,2.10 -37.41,-0.30 -37.32,-2.47 -37.23,-4.64 -36.37,-8.52 -35.51,-12.40 -34.46,-14.41 -33.41,-16.43 -31.65,-17.95 -29.88,-19.47 -27.71,-20.63 -25.54,-21.79 -23.19,-22.13 -20.84,-22.48 -17.27,-21.87 -13.69,-21.27 -11.62,-19.49 -9.55,-17.70 -7.47,-15.10 -5.38,-12.49 -2.92,-10.14 -0.45,-7.78 1.63,-5.75 3.71,-3.71 4.10,-3.21 4.49,-2.71 4.75,-2.14 5.01,-1.56 5.13,-0.94 5.24,-0.31 5.20,0.31 5.16,0.94 4.98,1.55 4.79,2.15 4.46,2.69 4.13,3.24 3.68,3.68 3.24,4.13 2.69,4.46 2.15,4.79 1.55,4.98 0.94,5.16 0.31,5.20 -0.31,5.24 -0.94,5.13 -1.56,5.01 -2.14,4.75 -2.71,4.49 -3.21,4.10 -3.71,3.71 -3.71,3.71 L -3.71,3.71 Z"></path></g><g transform="translate(187.132138527571 37.644900232626924) rotate(0 9.72690934110949 -7.679138953507504)" stroke="none"><path fill="#a61e4d" d="M -5.23,0.74 Q -5.23,0.74 -5.57,-1.30 -5.92,-3.35 -6.26,-6.72 -6.60,-10.08 -6.73,-13.37 -6.85,-16.66 -6.98,-19.06 -7.10,-21.47 -6.37,-23.76 -5.64,-26.06 -4.45,-28.08 -3.27,-30.10 -0.49,-31.51 2.27,-32.93 4.92,-33.08 7.56,-33.23 10.22,-33.31 12.88,-33.39 15.03,-33.45 17.18,-33.50 19.63,-32.38 22.08,-31.26 23.71,-29.82 25.34,-28.39 26.22,-24.79 27.09,-21.20 27.18,-17.16 27.27,-13.13 26.92,-10.83 26.58,-8.53 25.34,-5.27 24.09,-2.02 21.94,0.72 19.79,3.46 17.84,5.44 15.88,7.41 12.60,8.68 9.32,9.95 7.72,11.40 6.13,12.84 5.48,13.97 4.83,15.09 4.06,15.93 3.30,16.76 2.31,17.31 1.31,17.86 0.20,18.06 -0.91,18.26 -2.03,18.09 -3.15,17.93 -4.16,17.41 -5.17,16.90 -5.96,16.09 -6.75,15.28 -7.24,14.26 -7.73,13.24 -7.87,12.12 -8.02,10.99 -7.79,9.88 -7.56,8.77 -7.00,7.79 -6.43,6.81 -5.58,6.06 -4.72,5.32 -3.68,4.88 -2.63,4.45 -1.50,4.37 -0.37,4.29 0.71,4.57 1.81,4.86 2.76,5.48 3.70,6.10 4.40,6.99 5.10,7.88 5.48,8.95 5.86,10.01 5.88,11.15 5.90,12.28 5.55,13.36 5.21,14.44 4.54,15.35 3.87,16.26 2.94,16.91 2.01,17.56 0.93,17.88 -0.15,18.21 -1.28,18.16 -2.41,18.12 -3.47,17.72 -4.53,17.31 -5.41,16.59 -6.28,15.87 -6.88,14.91 -7.48,13.95 -7.74,12.85 -8.00,11.75 -7.90,10.62 -7.79,9.49 -7.33,8.46 -6.88,7.42 -6.88,7.42 -6.88,7.42 -5.42,5.32 -3.95,3.22 0.05,0.06 4.07,-3.09 6.58,-3.84 9.09,-4.59 10.60,-6.63 12.10,-8.67 12.84,-10.81 13.58,-12.94 13.95,-16.37 14.31,-19.80 11.75,-19.86 9.20,-19.92 7.12,-20.48 5.05,-21.04 4.94,-18.90 4.83,-16.76 4.77,-13.64 4.71,-10.53 4.73,-7.70 4.75,-4.88 4.99,-2.81 5.23,-0.74 5.24,-0.11 5.25,0.52 5.11,1.14 4.97,1.76 4.69,2.33 4.41,2.90 3.99,3.39 3.58,3.87 3.06,4.25 2.55,4.62 1.96,4.86 1.37,5.10 0.74,5.19 0.11,5.28 -0.52,5.21 -1.15,5.15 -1.75,4.94 -2.35,4.72 -2.88,4.37 -3.41,4.02 -3.85,3.55 -4.28,3.09 -4.59,2.53 -4.89,1.97 -5.06,1.36 -5.23,0.74 -5.23,0.74 L -5.23,0.74 Z"></path></g><g transform="translate(414.43465155139074 34.57324465122406) rotate(0 -1.0238851938008793 -4.607483372104639)" stroke="none"><path fill="#a61e4d" d="M -5.35,0 Q -5.35,0 -5.42,-1.76 -5.49,-3.53 -5.62,-6.32 -5.75,-9.11 -5.86,-12.13 -5.96,-15.15 -6.27,-17.64 -6.59,-20.13 -6.67,-17.68 -6.75,-15.24 -8.24,-13.70 -9.73,-12.16 -9.05,-9.03 -8.37,-5.91 -5.90,-3.89 -3.43,-1.88 -1.73,-0.32 -0.03,1.22 1.08,3.18 2.19,5.14 4.77,5.54 7.35,5.93 10.08,7.27 12.81,8.61 13.31,8.44 13.82,8.27 14.93,8.54 16.05,8.80 17.02,9.41 18.00,10.02 18.73,10.91 19.46,11.80 19.86,12.87 20.27,13.95 20.31,15.10 20.35,16.25 20.02,17.35 19.70,18.45 19.04,19.39 18.37,20.33 17.45,21.01 16.52,21.69 15.43,22.03 14.33,22.38 13.18,22.36 12.03,22.34 10.95,21.95 9.87,21.57 8.97,20.86 8.06,20.15 7.44,19.18 6.81,18.22 6.52,17.11 6.23,16.00 6.31,14.85 6.40,13.70 6.84,12.64 7.29,11.58 8.05,10.72 8.80,9.86 9.80,9.28 10.79,8.71 11.92,8.48 13.05,8.26 14.19,8.40 15.33,8.54 16.36,9.05 17.40,9.55 18.22,10.35 19.04,11.16 19.56,12.18 20.08,13.21 20.24,14.34 20.41,15.48 20.20,16.61 19.99,17.74 19.44,18.75 18.88,19.75 18.03,20.53 17.19,21.30 16.13,21.77 15.08,22.23 13.94,22.33 12.79,22.44 12.79,22.44 12.80,22.44 7.87,20.90 2.95,19.36 0.67,18.62 -1.59,17.89 -4.34,16.52 -7.09,15.15 -9.72,12.21 -12.35,9.26 -15.38,7.02 -18.42,4.77 -19.87,2.71 -21.32,0.64 -21.83,-1.49 -22.34,-3.64 -22.32,-6.05 -22.31,-8.47 -22.26,-11.17 -22.20,-13.88 -21.55,-16.69 -20.89,-19.51 -19.01,-22.21 -17.14,-24.92 -15.61,-26.95 -14.09,-28.97 -11.68,-30.05 -9.28,-31.12 -6.37,-30.96 -3.46,-30.81 -1.15,-30.06 1.15,-29.32 3.28,-25.88 5.41,-22.43 5.69,-18.79 5.96,-15.15 5.86,-12.13 5.75,-9.11 5.62,-6.32 5.49,-3.53 5.42,-1.76 5.35,0 5.27,0.64 5.19,1.28 4.96,1.88 4.74,2.48 4.37,3.01 4.00,3.55 3.52,3.97 3.04,4.40 2.46,4.70 1.89,5.00 1.27,5.16 0.64,5.31 -0.00,5.31 -0.64,5.31 -1.27,5.16 -1.89,5.00 -2.47,4.70 -3.04,4.40 -3.52,3.97 -4.00,3.55 -4.37,3.01 -4.74,2.48 -4.96,1.88 -5.19,1.28 -5.27,0.64 -5.35,-0.00 -5.35,-0.00 L -5.35,0 Z"></path></g><g transform="translate(423.6496182955998 35.59712984502494) rotate(0 4.607483372104298 -6.655253759706284)" stroke="none"><path fill="#a61e4d" d="M -3.31,4.14 Q -3.31,4.14 -4.83,3.01 -6.35,1.88 -7.95,0.21 -9.55,-1.45 -11.39,-4.68 -13.23,-7.90 -13.66,-10.24 -14.10,-12.57 -13.76,-15.33 -13.43,-18.09 -12.32,-19.92 -11.21,-21.75 -8.31,-23.92 -5.41,-26.08 -2.59,-26.50 0.22,-26.92 2.50,-27.24 4.78,-27.55 7.66,-28.36 10.54,-29.16 14.19,-28.74 17.85,-28.33 19.77,-27.15 21.70,-25.96 22.60,-23.63 23.50,-21.30 23.88,-17.98 24.26,-14.66 23.81,-11.15 23.35,-7.64 21.60,-5.26 19.84,-2.87 17.70,-0.66 15.56,1.54 13.49,3.17 11.41,4.80 9.08,6.59 6.75,8.38 4.84,9.82 2.94,11.26 2.12,11.74 1.29,12.21 0.64,13.16 0.00,14.10 -0.91,14.79 -1.82,15.48 -2.91,15.84 -4.00,16.20 -5.14,16.20 -6.29,16.19 -7.37,15.82 -8.46,15.45 -9.37,14.76 -10.28,14.06 -10.91,13.11 -11.55,12.16 -11.86,11.05 -12.16,9.95 -12.09,8.80 -12.02,7.66 -11.60,6.60 -11.17,5.53 -10.42,4.66 -9.68,3.79 -8.69,3.21 -7.71,2.62 -6.59,2.38 -5.47,2.14 -4.33,2.27 -3.19,2.39 -2.15,2.88 -1.12,3.36 -0.29,4.16 0.53,4.95 1.06,5.96 1.60,6.98 1.78,8.11 1.96,9.24 1.77,10.37 1.58,11.50 1.04,12.51 0.50,13.52 -0.33,14.30 -1.16,15.09 -2.21,15.57 -3.25,16.04 -4.39,16.16 -5.53,16.28 -6.65,16.03 -7.76,15.78 -8.74,15.18 -9.72,14.59 -10.46,13.71 -11.20,12.84 -11.62,11.77 -12.04,10.70 -12.09,9.56 -12.15,8.41 -11.84,7.31 -11.53,6.21 -11.53,6.21 -11.53,6.21 -7.60,2.62 -3.67,-0.96 -1.85,-2.48 -0.03,-4.01 2.49,-6.08 5.03,-8.14 6.65,-9.58 8.27,-11.01 9.59,-13.31 10.92,-15.61 7.41,-14.71 3.90,-13.81 1.70,-14.45 -0.50,-15.08 -1.38,-12.85 -2.27,-10.63 -0.90,-8.61 0.46,-6.59 1.89,-5.37 3.31,-4.14 3.76,-3.68 4.21,-3.23 4.53,-2.68 4.86,-2.12 5.04,-1.51 5.23,-0.90 5.26,-0.26 5.29,0.37 5.17,1.00 5.05,1.63 4.78,2.21 4.51,2.79 4.11,3.29 3.71,3.79 3.20,4.18 2.70,4.57 2.11,4.82 1.52,5.08 0.89,5.19 0.26,5.30 -0.37,5.25 -1.01,5.21 -1.61,5.01 -2.22,4.81 -2.77,4.48 -3.31,4.14 -3.31,4.14 L -3.31,4.14 Z"></path></g><g transform="translate(216.8248091477999 256.75633170603874) rotate(0 -15.358277907014894 14.334392713213788)" stroke="none"><path fill="#a61e4d" d="M -2.91,4.37 Q -2.91,4.37 -4.69,3.24 -6.47,2.12 -8.86,1.97 -11.25,1.82 -14.48,1.86 -17.71,1.90 -19.99,2.02 -22.28,2.14 -24.54,2.26 -26.81,2.38 -25.37,4.29 -23.92,6.21 -23.88,8.55 -23.83,10.89 -23.81,13.29 -23.80,15.69 -22.31,17.55 -20.82,19.40 -18.15,22.13 -15.49,24.85 -13.79,25.29 -12.10,25.72 -11.01,26.10 -9.92,26.47 -9.01,27.18 -8.09,27.88 -7.45,28.84 -6.81,29.80 -6.50,30.92 -6.20,32.03 -6.27,33.19 -6.34,34.34 -6.78,35.41 -7.21,36.48 -7.97,37.36 -8.72,38.23 -9.71,38.82 -10.71,39.41 -11.84,39.65 -12.97,39.89 -14.11,39.76 -15.26,39.63 -16.31,39.13 -17.35,38.64 -18.18,37.84 -19.02,37.04 -19.55,36.02 -20.09,34.99 -20.27,33.85 -20.44,32.71 -20.25,31.57 -20.06,30.43 -19.51,29.42 -18.96,28.40 -18.12,27.61 -17.27,26.82 -16.22,26.35 -15.17,25.87 -14.02,25.75 -12.87,25.63 -11.74,25.89 -10.62,26.14 -9.63,26.75 -8.65,27.35 -7.91,28.23 -7.16,29.12 -6.74,30.20 -6.32,31.27 -6.27,32.43 -6.21,33.58 -6.53,34.69 -6.85,35.80 -7.50,36.75 -8.16,37.70 -9.08,38.40 -10.00,39.09 -11.10,39.45 -12.20,39.81 -13.35,39.80 -14.51,39.80 -14.51,39.80 -14.51,39.80 -19.00,37.67 -23.50,35.54 -25.78,33.36 -28.05,31.19 -30.62,28.82 -33.18,26.46 -35.02,23.21 -36.87,19.95 -37.23,16.70 -37.60,13.45 -37.58,11.20 -37.55,8.96 -37.47,6.65 -37.38,4.35 -37.17,1.77 -36.96,-0.80 -36.29,-3.14 -35.61,-5.48 -33.66,-7.31 -31.72,-9.13 -28.77,-9.82 -25.82,-10.52 -23.18,-10.38 -20.54,-10.25 -17.88,-10.10 -15.22,-9.95 -10.90,-9.61 -6.59,-9.26 -3.58,-8.05 -0.58,-6.83 1.16,-5.60 2.91,-4.37 3.39,-3.96 3.87,-3.54 4.24,-3.03 4.61,-2.51 4.84,-1.92 5.08,-1.34 5.16,-0.71 5.25,-0.08 5.18,0.54 5.12,1.17 4.90,1.77 4.69,2.36 4.34,2.89 3.98,3.42 3.52,3.84 3.05,4.27 2.49,4.58 1.94,4.88 1.33,5.04 0.71,5.20 0.08,5.21 -0.54,5.22 -1.16,5.08 -1.78,4.94 -2.35,4.65 -2.91,4.37 -2.91,4.37 L -2.91,4.37 Z"></path></g><g transform="translate(205.56207201598886 264.9474132564467) rotate(0 6.143311162805958 -2.5597129845025393)" stroke="none"><path fill="#a61e4d" d="M -5.22,0 Q -5.22,0 -5.26,-2.35 -5.30,-4.70 -5.39,-8.86 -5.49,-13.02 -5.62,-15.82 -5.75,-18.63 -5.12,-21.53 -4.50,-24.43 -1.78,-26.35 0.92,-28.27 4.52,-28.06 8.12,-27.84 10.39,-26.89 12.66,-25.94 14.99,-25.41 17.32,-24.88 19.76,-22.55 22.21,-20.21 23.12,-17.23 24.02,-14.25 24.14,-10.48 24.25,-6.72 24.27,-4.21 24.29,-1.71 24.29,1.12 24.29,3.97 23.17,7.72 22.04,11.48 19.46,13.64 16.89,15.80 14.22,18.16 11.55,20.52 8.85,22.01 6.15,23.51 3.24,23.88 0.32,24.26 -2.39,24.30 -5.10,24.35 -6.21,24.17 -7.32,23.99 -8.31,23.46 -9.30,22.94 -10.08,22.12 -10.85,21.31 -11.33,20.29 -11.80,19.27 -11.93,18.16 -12.05,17.04 -11.81,15.94 -11.57,14.84 -10.99,13.88 -10.42,12.92 -9.56,12.19 -8.71,11.46 -7.66,11.04 -6.62,10.62 -5.50,10.56 -4.38,10.50 -3.29,10.79 -2.21,11.09 -1.28,11.72 -0.35,12.35 0.32,13.24 1.00,14.14 1.36,15.20 1.73,16.26 1.73,17.39 1.73,18.51 1.37,19.58 1.02,20.64 0.34,21.54 -0.33,22.43 -1.26,23.07 -2.19,23.70 -3.27,24.00 -4.35,24.30 -5.47,24.24 -6.59,24.19 -7.64,23.77 -8.68,23.36 -9.54,22.63 -10.40,21.91 -10.98,20.95 -11.56,19.98 -11.80,18.89 -12.05,17.79 -11.93,16.67 -11.81,15.56 -11.34,14.54 -10.87,13.52 -10.10,12.70 -9.33,11.88 -8.34,11.35 -7.34,10.82 -6.24,10.64 -5.13,10.46 -5.13,10.46 -5.13,10.46 -1.90,10.49 1.32,10.51 3.21,9.37 5.10,8.22 7.80,6.09 10.51,3.97 10.51,1.13 10.51,-1.70 10.52,-4.18 10.53,-6.66 11.45,-9.83 12.38,-13.00 9.89,-13.53 7.40,-14.05 6.58,-16.34 5.75,-18.63 5.62,-15.82 5.49,-13.02 5.39,-8.86 5.30,-4.70 5.26,-2.35 5.22,0 5.15,0.62 5.07,1.25 4.85,1.84 4.63,2.43 4.27,2.94 3.91,3.46 3.44,3.88 2.97,4.30 2.41,4.59 1.85,4.89 1.24,5.04 0.63,5.19 -0.00,5.19 -0.63,5.19 -1.24,5.04 -1.85,4.88 -2.41,4.59 -2.97,4.30 -3.44,3.88 -3.91,3.46 -4.27,2.94 -4.63,2.43 -4.85,1.84 -5.07,1.25 -5.15,0.62 -5.22,-0.00 -5.22,-0.00 L -5.22,0 Z"></path></g><g transform="translate(149.2483863569346 134.91399364372091) rotate(0 -15.870220503915334 11.774679728711362)" stroke="none"><path fill="#a61e4d" d="M -4.40,2.93 Q -4.40,2.93 -5.62,1.20 -6.84,-0.53 -8.61,-2.56 -10.38,-4.58 -13.75,-5.44 -17.12,-6.30 -19.42,-6.06 -21.71,-5.82 -23.95,-5.87 -26.19,-5.92 -25.51,-3.75 -24.82,-1.58 -24.85,0.65 -24.88,2.88 -21.63,6.35 -18.37,9.82 -16.72,12.66 -15.06,15.51 -13.31,17.98 -11.57,20.46 -8.45,23.55 -5.33,26.65 -3.24,28.81 -1.15,30.97 -0.51,31.89 0.13,32.81 0.45,33.89 0.76,34.98 0.72,36.10 0.68,37.23 0.27,38.28 -0.12,39.33 -0.83,40.20 -1.55,41.07 -2.51,41.67 -3.47,42.26 -4.56,42.52 -5.66,42.78 -6.78,42.67 -7.90,42.57 -8.93,42.11 -9.96,41.65 -10.79,40.89 -11.62,40.13 -12.16,39.14 -12.71,38.15 -12.90,37.04 -13.10,35.93 -12.94,34.82 -12.77,33.70 -12.26,32.70 -11.74,31.70 -10.94,30.91 -10.13,30.12 -9.12,29.64 -8.10,29.15 -6.98,29.01 -5.86,28.87 -4.76,29.10 -3.66,29.32 -2.68,29.89 -1.71,30.46 -0.97,31.31 -0.22,32.15 0.20,33.19 0.63,34.23 0.71,35.36 0.79,36.48 0.50,37.57 0.22,38.66 -0.39,39.61 -1.01,40.55 -1.90,41.24 -2.79,41.94 -3.85,42.31 -4.91,42.69 -6.04,42.70 -7.17,42.72 -8.24,42.38 -9.31,42.03 -10.22,41.36 -11.13,40.69 -11.12,40.69 -11.12,40.70 -13.77,37.62 -16.42,34.54 -18.48,32.75 -20.54,30.95 -22.58,28.49 -24.62,26.02 -26.76,22.79 -28.90,19.56 -30.19,16.98 -31.48,14.40 -33.02,12.79 -34.55,11.19 -35.89,9.52 -37.22,7.84 -37.90,3.89 -38.59,-0.05 -38.32,-2.65 -38.06,-5.25 -37.57,-7.45 -37.09,-9.66 -34.89,-13.01 -32.70,-16.35 -28.24,-17.59 -23.78,-18.83 -21.30,-18.69 -18.83,-18.55 -16.26,-18.22 -13.68,-17.90 -11.23,-16.79 -8.78,-15.68 -5.83,-14.32 -2.88,-12.96 -0.37,-9.74 2.13,-6.52 3.27,-4.73 4.40,-2.93 4.69,-2.36 4.98,-1.79 5.12,-1.17 5.26,-0.55 5.25,0.08 5.24,0.72 5.08,1.34 4.92,1.95 4.61,2.51 4.31,3.07 3.87,3.55 3.44,4.02 2.91,4.37 2.38,4.73 1.78,4.94 1.18,5.16 0.54,5.23 -0.08,5.29 -0.71,5.20 -1.35,5.12 -1.94,4.88 -2.53,4.65 -3.05,4.27 -3.57,3.90 -3.99,3.42 -4.40,2.93 -4.40,2.93 L -4.40,2.93 Z"></path></g><g transform="translate(150.27227155073547 144.12896038792996) rotate(0 7.167196356606951 7.679138953507277)" stroke="none"><path fill="#a61e4d" d="M -5.11,-0.63 Q -5.11,-0.63 -4.86,-2.99 -4.60,-5.35 -4.59,-7.74 -4.59,-10.13 -3.87,-13.41 -3.16,-16.68 -0.49,-18.37 2.17,-20.05 4.98,-20.30 7.79,-20.55 10.22,-20.63 12.65,-20.70 15.41,-20.44 18.17,-20.17 20.39,-18.82 22.61,-17.47 23.77,-15.39 24.92,-13.30 25.82,-11.14 26.72,-8.98 26.98,-5.57 27.24,-2.16 25.45,2.48 23.67,7.13 22.06,9.96 20.45,12.80 19.25,15.13 18.06,17.46 16.60,19.80 15.15,22.14 13.61,24.29 12.07,26.44 10.44,28.02 8.80,29.61 5.92,31.01 3.03,32.42 -1.04,34.64 -5.12,36.86 -6.29,36.83 -7.46,36.81 -8.56,36.41 -9.67,36.01 -10.58,35.28 -11.50,34.56 -12.14,33.57 -12.77,32.59 -13.06,31.45 -13.35,30.32 -13.26,29.15 -13.18,27.98 -12.72,26.90 -12.26,25.82 -11.49,24.95 -10.71,24.07 -9.69,23.49 -8.67,22.90 -7.53,22.68 -6.38,22.45 -5.21,22.60 -4.05,22.75 -3.00,23.27 -1.95,23.78 -1.11,24.61 -0.28,25.43 0.24,26.48 0.76,27.52 0.93,28.68 1.09,29.84 0.88,30.99 0.66,32.15 0.09,33.17 -0.47,34.19 -1.34,34.98 -2.20,35.77 -3.28,36.24 -4.35,36.71 -5.52,36.81 -6.69,36.91 -7.82,36.63 -8.96,36.36 -9.95,35.73 -10.94,35.11 -11.68,34.20 -12.42,33.29 -12.83,32.19 -13.24,31.09 -13.28,29.92 -13.32,28.75 -12.98,27.63 -12.64,26.51 -11.97,25.55 -11.29,24.60 -10.34,23.91 -9.39,23.22 -8.27,22.87 -7.16,22.52 -7.16,22.52 -7.16,22.52 -6.34,22.31 -5.53,22.10 -3.35,20.99 -1.17,19.88 0.93,18.29 3.04,16.70 4.31,14.59 5.59,12.49 6.95,9.82 8.30,7.15 9.23,5.20 10.15,3.25 11.88,0.66 13.60,-1.92 13.13,-4.94 12.66,-7.95 9.57,-8.74 6.48,-9.52 6.13,-6.79 5.78,-4.06 5.44,-1.71 5.11,0.63 4.96,1.24 4.81,1.84 4.52,2.39 4.23,2.94 3.81,3.40 3.40,3.87 2.89,4.22 2.37,4.57 1.79,4.79 1.21,5.00 0.59,5.08 -0.01,5.15 -0.63,5.07 -1.25,4.99 -1.83,4.77 -2.41,4.55 -2.92,4.20 -3.43,3.84 -3.84,3.37 -4.25,2.91 -4.53,2.36 -4.82,1.81 -4.97,1.20 -5.11,0.60 -5.11,-0.01 -5.11,-0.63 -5.11,-0.63 L -5.11,-0.63 Z"></path></g><g transform="translate(33.549359457422725 24.33439271321413) rotate(0 -11.774679728711362 13.310507519412795)" stroke="none"><path fill="#a61e4d" d="M -1.43,5.02 Q -1.43,5.02 -3.51,4.48 -5.58,3.95 -8.10,3.87 -10.62,3.78 -12.87,3.91 -15.11,4.05 -15.96,6.05 -16.80,8.06 -15.27,10.26 -13.74,12.45 -11.46,13.80 -9.18,15.14 -6.61,16.65 -4.04,18.15 -2.04,19.92 -0.04,21.68 1.10,22.31 2.24,22.94 3.05,23.78 3.85,24.61 4.34,25.66 4.83,26.71 4.96,27.86 5.09,29.01 4.85,30.14 4.61,31.27 4.02,32.27 3.43,33.26 2.55,34.02 1.67,34.77 0.60,35.21 -0.46,35.64 -1.62,35.71 -2.78,35.78 -3.89,35.48 -5.01,35.18 -5.97,34.53 -6.93,33.89 -7.64,32.97 -8.35,32.05 -8.72,30.96 -9.10,29.86 -9.10,28.70 -9.11,27.55 -8.75,26.45 -8.38,25.35 -7.69,24.42 -6.99,23.50 -6.04,22.84 -5.08,22.19 -3.97,21.87 -2.86,21.55 -1.70,21.61 -0.54,21.67 0.52,22.09 1.60,22.51 2.49,23.26 3.37,24.00 3.98,24.99 4.58,25.98 4.83,27.11 5.09,28.24 4.97,29.39 4.85,30.54 4.37,31.59 3.89,32.65 3.10,33.49 2.31,34.34 1.29,34.88 0.27,35.43 -0.86,35.63 -2.00,35.82 -3.15,35.64 -4.29,35.46 -5.32,34.92 -6.34,34.38 -6.34,34.38 -6.34,34.39 -8.89,32.12 -11.45,29.86 -14.07,28.45 -16.70,27.04 -18.53,25.73 -20.36,24.43 -22.29,22.92 -24.23,21.41 -25.73,19.90 -27.23,18.39 -28.38,16.23 -29.52,14.07 -29.89,11.00 -30.26,7.94 -30.09,5.55 -29.92,3.16 -28.99,0.22 -28.07,-2.70 -25.47,-5.00 -22.87,-7.30 -19.94,-7.77 -17.01,-8.23 -14.52,-8.09 -12.02,-7.95 -9.66,-7.70 -7.29,-7.45 -4.97,-6.88 -2.65,-6.30 -0.61,-5.66 1.43,-5.02 2.01,-4.77 2.59,-4.53 3.10,-4.15 3.60,-3.78 4.00,-3.29 4.40,-2.80 4.67,-2.24 4.94,-1.67 5.07,-1.05 5.20,-0.43 5.18,0.19 5.15,0.81 4.98,1.42 4.81,2.03 4.50,2.57 4.18,3.12 3.75,3.57 3.31,4.03 2.78,4.37 2.25,4.71 1.65,4.91 1.06,5.11 0.43,5.16 -0.19,5.22 -0.81,5.12 -1.43,5.02 -1.43,5.02 L -1.43,5.02 Z"></path></g><g transform="translate(37.644900232626696 24.33439271321413) rotate(0 8.703024147308383 7.679138953507277)" stroke="none"><path fill="#a61e4d" d="M -4.04,-3.36 Q -4.04,-3.36 -2.60,-5.16 -1.15,-6.95 1.48,-9.65 4.12,-12.36 6.00,-13.88 7.89,-15.41 10.47,-16.40 13.05,-17.39 13.68,-18.06 14.31,-18.73 15.05,-18.85 15.79,-18.96 16.53,-18.90 17.28,-18.84 17.98,-18.60 18.69,-18.36 19.32,-17.95 19.95,-17.55 20.47,-17.01 20.98,-16.47 21.35,-15.82 21.72,-15.17 21.93,-14.45 22.13,-13.73 22.16,-12.98 22.18,-12.23 22.03,-11.50 21.88,-10.77 21.55,-10.09 21.23,-9.42 20.75,-8.84 20.28,-8.27 19.68,-7.82 19.08,-7.37 18.39,-7.09 17.70,-6.80 19.68,-11.14 21.67,-15.48 22.52,-12.72 23.38,-9.96 23.56,-6.66 23.74,-3.37 23.79,-0.27 23.85,2.83 23.44,6.91 23.04,10.99 21.15,13.58 19.26,16.18 17.59,18.62 15.92,21.07 14.23,24.02 12.55,26.96 11.06,28.85 9.57,30.73 8.00,32.32 6.42,33.92 5.47,34.48 4.51,35.04 3.43,35.27 2.35,35.50 1.25,35.37 0.15,35.24 -0.84,34.76 -1.84,34.29 -2.64,33.52 -3.43,32.75 -3.94,31.77 -4.45,30.79 -4.62,29.69 -4.79,28.60 -4.60,27.51 -4.41,26.42 -3.88,25.45 -3.35,24.47 -2.54,23.72 -1.73,22.97 -0.72,22.51 0.28,22.06 1.38,21.95 2.48,21.84 3.56,22.09 4.63,22.33 5.58,22.91 6.52,23.49 7.23,24.34 7.94,25.19 8.34,26.23 8.74,27.26 8.79,28.36 8.84,29.47 8.53,30.53 8.22,31.60 7.59,32.50 6.96,33.41 6.08,34.08 5.19,34.74 4.14,35.08 3.08,35.42 1.98,35.41 0.87,35.40 -0.16,35.04 -1.21,34.68 -2.08,34.00 -2.96,33.32 -3.57,32.40 -4.18,31.48 -4.47,30.41 -4.75,29.34 -4.68,28.23 -4.61,27.13 -4.19,26.10 -3.77,25.08 -3.05,24.24 -2.32,23.41 -2.33,23.41 -2.33,23.41 -0.18,21.19 1.96,18.97 3.38,16.55 4.81,14.13 6.98,10.98 9.15,7.82 10.05,5.35 10.94,2.88 10.96,-0.11 10.97,-3.11 11.46,-5.72 11.95,-8.32 13.13,-13.53 14.31,-18.73 15.05,-18.85 15.78,-18.96 16.53,-18.90 17.27,-18.84 17.98,-18.60 18.69,-18.36 19.32,-17.95 19.95,-17.55 20.47,-17.01 20.98,-16.47 21.35,-15.82 21.72,-15.17 21.93,-14.45 22.13,-13.73 22.16,-12.98 22.18,-12.23 22.03,-11.50 21.88,-10.77 21.55,-10.10 21.23,-9.42 20.75,-8.84 20.28,-8.27 19.68,-7.82 19.08,-7.38 18.39,-7.09 17.70,-6.80 17.47,-6.59 17.24,-6.39 14.14,-4.95 11.04,-3.51 9.04,-1.81 7.04,-0.11 5.54,1.62 4.04,3.36 3.58,3.80 3.11,4.23 2.56,4.55 2.01,4.86 1.40,5.03 0.79,5.20 0.15,5.22 -0.47,5.24 -1.09,5.10 -1.71,4.97 -2.28,4.69 -2.85,4.41 -3.34,4.01 -3.83,3.60 -4.20,3.09 -4.58,2.58 -4.82,1.99 -5.06,1.41 -5.16,0.78 -5.26,0.15 -5.20,-0.47 -5.14,-1.10 -4.93,-1.70 -4.73,-2.30 -4.38,-2.83 -4.04,-3.36 -4.04,-3.36 L -4.04,-3.36 Z"></path></g><g transform="translate(41.74044100783067 200.44264604698424) rotate(0 -10.23885193800993 16.382163100815887)" stroke="none"><path fill="#a61e4d" d="M -4.34,2.89 Q -4.34,2.89 -5.55,1.17 -6.77,-0.55 -9.12,-0.84 -11.46,-1.14 -14.04,-1.00 -16.61,-0.85 -15.23,-2.48 -13.84,-4.10 -13.60,-1.21 -13.36,1.67 -12.61,3.84 -11.87,6.01 -10.98,8.22 -10.09,10.43 -9.35,13.50 -8.60,16.57 -8.01,19.01 -7.41,21.45 -5.39,23.53 -3.36,25.61 -0.65,28.26 2.05,30.92 2.96,32.47 3.86,34.02 4.70,34.79 5.54,35.56 6.09,36.56 6.65,37.56 6.85,38.68 7.05,39.81 6.89,40.94 6.72,42.07 6.20,43.09 5.69,44.10 4.87,44.90 4.05,45.70 3.03,46.20 2.00,46.70 0.86,46.84 -0.26,46.98 -1.38,46.75 -2.50,46.53 -3.49,45.96 -4.47,45.38 -5.23,44.52 -5.98,43.67 -6.42,42.61 -6.86,41.56 -6.94,40.42 -7.02,39.28 -6.74,38.18 -6.45,37.07 -5.83,36.11 -5.20,35.16 -4.30,34.45 -3.41,33.75 -2.33,33.36 -1.25,32.98 -0.11,32.96 1.02,32.94 2.11,33.29 3.20,33.64 4.12,34.31 5.04,34.99 5.69,35.92 6.35,36.86 6.68,37.95 7.00,39.05 6.96,40.19 6.91,41.33 6.51,42.40 6.10,43.46 5.38,44.35 4.65,45.23 3.69,45.84 2.72,46.44 1.61,46.70 0.49,46.97 -0.63,46.86 -1.77,46.76 -2.81,46.30 -3.86,45.83 -3.86,45.84 -3.86,45.84 -7.66,41.57 -11.46,37.31 -13.35,35.37 -15.23,33.44 -16.66,31.69 -18.10,29.93 -19.69,26.81 -21.28,23.69 -21.77,20.02 -22.26,16.35 -23.29,13.58 -24.32,10.82 -25.35,7.51 -26.39,4.20 -26.72,2.06 -27.06,-0.07 -26.91,-3.13 -26.76,-6.19 -25.93,-8.30 -25.10,-10.42 -21.67,-11.98 -18.24,-13.54 -15.62,-13.40 -13.01,-13.25 -10.29,-13.03 -7.56,-12.80 -5.40,-12.08 -3.23,-11.37 -0.58,-8.94 2.06,-6.51 3.20,-4.70 4.34,-2.89 4.62,-2.33 4.91,-1.77 5.05,-1.15 5.19,-0.54 5.18,0.08 5.17,0.71 5.01,1.32 4.85,1.92 4.54,2.48 4.24,3.03 3.82,3.49 3.39,3.96 2.87,4.31 2.35,4.66 1.75,4.87 1.16,5.08 0.54,5.15 -0.08,5.21 -0.70,5.13 -1.33,5.04 -1.91,4.81 -2.50,4.58 -3.01,4.21 -3.52,3.85 -3.93,3.37 -4.34,2.89 -4.34,2.89 L -4.34,2.89 Z"></path></g><g transform="translate(42.76432620163155 205.5620720159891) rotate(0 12.798564922512355 16.382163100816)" stroke="none"><path fill="#a61e4d" d="M -5.30,0 Q -5.30,0 -5.37,-1.76 -5.45,-3.53 -4.64,-7.38 -3.84,-11.23 -0.22,-13.50 3.40,-15.77 6.04,-16.04 8.68,-16.31 11.30,-16.45 13.92,-16.59 16.06,-16.66 18.20,-16.72 21.10,-16.50 23.99,-16.28 26.34,-14.87 28.68,-13.45 29.92,-10.52 31.16,-7.59 31.51,-5.45 31.85,-3.32 31.96,-1.16 32.07,0.99 31.65,6.36 31.23,11.72 29.93,15.17 28.63,18.62 26.62,21.55 24.60,24.48 22.38,26.71 20.15,28.94 17.06,32.43 13.97,35.91 12.99,38.37 12.02,40.84 9.22,44.52 6.42,48.21 5.51,48.61 4.59,49.01 3.59,49.09 2.59,49.18 1.61,48.94 0.64,48.70 -0.20,48.16 -1.04,47.63 -1.67,46.85 -2.31,46.07 -2.66,45.13 -3.00,44.19 -3.04,43.19 -3.07,42.19 -2.78,41.23 -2.49,40.27 -1.90,39.45 -1.32,38.63 -0.51,38.05 0.29,37.46 1.25,37.16 2.21,36.86 3.21,36.88 4.21,36.91 5.15,37.25 6.10,37.59 6.88,38.22 7.66,38.84 8.21,39.68 8.75,40.53 9.00,41.50 9.24,42.47 9.16,43.47 9.09,44.47 8.69,45.39 8.30,46.32 7.63,47.06 6.97,47.81 6.10,48.31 5.23,48.81 4.24,49.00 3.26,49.19 2.26,49.06 1.27,48.93 0.37,48.49 -0.52,48.04 -1.23,47.34 -1.94,46.63 -2.39,45.74 -2.84,44.84 -2.98,43.85 -3.12,42.85 -2.93,41.87 -2.75,40.88 -2.26,40.01 -1.77,39.13 -1.02,38.46 -0.28,37.79 -0.28,37.79 -0.28,37.79 0.82,36.18 1.94,34.56 3.76,31.34 5.57,28.11 7.19,26.33 8.81,24.55 10.38,22.68 11.95,20.80 13.45,19.29 14.94,17.78 16.84,14.10 18.73,10.42 18.78,6.05 18.83,1.68 20.04,-0.97 21.24,-3.63 18.88,-3.72 16.52,-3.81 13.47,-3.91 10.43,-4.00 7.94,-3.76 5.45,-3.53 5.37,-1.76 5.30,0 5.23,0.63 5.15,1.27 4.92,1.86 4.69,2.46 4.33,2.99 3.97,3.51 3.49,3.94 3.01,4.36 2.44,4.66 1.88,4.96 1.26,5.11 0.63,5.26 -0.00,5.26 -0.64,5.26 -1.26,5.11 -1.88,4.96 -2.44,4.66 -3.01,4.36 -3.49,3.94 -3.97,3.51 -4.33,2.99 -4.70,2.46 -4.92,1.86 -5.15,1.26 -5.23,0.63 -5.30,-0.00 -5.30,-0.00 L -5.30,0 Z"></path></g><g transform="translate(494.29769666786797 179.9649421709646) rotate(0 -17.91799089151732 10.75079453491037)" stroke="none"><path fill="#a61e4d" d="M -2.77,4.44 Q -2.77,4.44 -5.12,2.96 -7.47,1.47 -9.97,-0.19 -12.47,-1.85 -16.08,-2.50 -19.69,-3.15 -22.22,-3.46 -24.75,-3.77 -27.26,-3.67 -29.77,-3.57 -29.27,-1.45 -28.77,0.66 -28.73,3.02 -28.68,5.39 -28.64,7.85 -28.60,10.32 -26.80,11.70 -24.99,13.08 -22.90,14.09 -20.80,15.10 -18.49,16.48 -16.17,17.87 -14.27,19.60 -12.38,21.34 -9.16,22.64 -5.95,23.93 -5.29,24.32 -4.63,24.70 -3.57,25.29 -2.51,25.88 -1.70,26.77 -0.89,27.67 -0.40,28.78 0.07,29.88 0.18,31.09 0.29,32.29 0.00,33.47 -0.27,34.65 -0.92,35.67 -1.56,36.69 -2.50,37.46 -3.44,38.22 -4.57,38.65 -5.71,39.07 -6.92,39.11 -8.12,39.15 -9.28,38.80 -10.44,38.46 -11.43,37.76 -12.42,37.06 -13.13,36.08 -13.84,35.10 -14.20,33.95 -14.57,32.79 -14.54,31.58 -14.52,30.37 -14.11,29.23 -13.70,28.10 -12.94,27.15 -12.19,26.20 -11.18,25.54 -10.16,24.88 -8.99,24.58 -7.82,24.29 -6.61,24.38 -5.40,24.47 -4.29,24.94 -3.17,25.41 -2.27,26.21 -1.36,27.01 -0.76,28.06 -0.16,29.11 0.07,30.30 0.30,31.49 0.15,32.69 -0.00,33.89 -0.53,34.97 -1.06,36.06 -1.91,36.92 -2.76,37.78 -3.84,38.33 -4.92,38.87 -6.12,39.04 -7.32,39.21 -8.51,38.99 -9.70,38.77 -9.70,38.77 -9.70,38.77 -11.05,37.81 -12.41,36.84 -14.95,35.66 -17.49,34.48 -21.26,32.27 -25.04,30.06 -27.31,28.16 -29.57,26.27 -32.91,24.70 -36.26,23.14 -38.65,20.64 -41.05,18.14 -42.04,13.59 -43.04,9.04 -42.98,6.17 -42.93,3.30 -42.79,0.75 -42.64,-1.79 -41.53,-4.53 -40.41,-7.26 -38.93,-10.56 -37.46,-13.85 -34.38,-15.34 -31.29,-16.83 -28.50,-16.78 -25.70,-16.73 -23.26,-16.56 -20.81,-16.39 -18.13,-15.23 -15.44,-14.07 -12.33,-13.60 -9.23,-13.12 -7.36,-11.78 -5.50,-10.45 -3.72,-8.90 -1.94,-7.36 0.41,-5.90 2.77,-4.44 3.27,-4.04 3.76,-3.65 4.14,-3.14 4.52,-2.64 4.77,-2.06 5.02,-1.48 5.13,-0.86 5.23,-0.23 5.19,0.39 5.14,1.02 4.94,1.62 4.74,2.22 4.41,2.75 4.07,3.29 3.62,3.73 3.17,4.17 2.62,4.49 2.08,4.81 1.47,4.99 0.86,5.17 0.23,5.19 -0.39,5.22 -1.01,5.10 -1.63,4.98 -2.20,4.71 -2.77,4.44 -2.77,4.44 L -2.77,4.44 Z"></path></g><g transform="translate(488.1543855050618 185.08436813996946) rotate(0 12.798564922512469 4.095540775203972)" stroke="none"><path fill="#a61e4d" d="M -4.35,-2.90 Q -4.35,-2.90 -3.22,-4.69 -2.09,-6.49 -0.36,-8.95 1.35,-11.41 2.54,-14.19 3.72,-16.97 6.38,-18.56 9.04,-20.16 11.87,-20.43 14.69,-20.70 17.01,-20.68 19.33,-20.66 21.75,-19.57 24.17,-18.48 25.99,-16.48 27.81,-14.49 28.96,-12.40 30.10,-10.31 31.20,-7.61 32.29,-4.92 32.40,-2.27 32.52,0.38 32.53,4.13 32.54,7.88 31.55,11.59 30.56,15.30 28.77,17.50 26.98,19.70 23.59,22.63 20.19,25.56 18.90,26.62 17.61,27.69 16.67,28.24 15.73,28.79 14.67,29.01 13.60,29.24 12.52,29.11 11.44,28.98 10.46,28.51 9.48,28.05 8.69,27.29 7.91,26.53 7.41,25.57 6.91,24.60 6.75,23.53 6.58,22.45 6.77,21.38 6.96,20.31 7.48,19.35 8.00,18.40 8.79,17.66 9.59,16.92 10.58,16.47 11.57,16.03 12.66,15.92 13.74,15.81 14.80,16.06 15.86,16.30 16.78,16.87 17.71,17.44 18.41,18.28 19.10,19.11 19.49,20.13 19.88,21.14 19.93,22.23 19.98,23.32 19.68,24.36 19.38,25.41 18.76,26.30 18.14,27.19 17.27,27.84 16.39,28.49 15.36,28.83 14.32,29.16 13.24,29.15 12.15,29.14 11.12,28.78 10.10,28.43 9.24,27.76 8.38,27.09 7.78,26.19 7.18,25.28 6.90,24.23 6.62,23.18 6.69,22.09 6.76,21.01 7.17,20.00 7.58,18.99 8.29,18.17 9.01,17.35 9.01,17.35 9.01,17.35 11.75,14.98 14.50,12.61 16.57,10.21 18.64,7.81 18.62,5.20 18.61,2.60 18.96,0.21 19.31,-2.17 18.42,-5.00 17.53,-7.82 15.38,-8.73 13.24,-9.64 12.05,-7.75 10.86,-5.85 8.83,-3.21 6.80,-0.56 5.57,1.16 4.35,2.90 3.94,3.38 3.53,3.85 3.01,4.22 2.50,4.59 1.91,4.82 1.33,5.05 0.70,5.14 0.08,5.23 -0.54,5.16 -1.17,5.09 -1.76,4.88 -2.35,4.67 -2.88,4.32 -3.40,3.97 -3.83,3.50 -4.25,3.04 -4.55,2.48 -4.86,1.93 -5.02,1.32 -5.18,0.71 -5.19,0.08 -5.20,-0.54 -5.06,-1.16 -4.92,-1.77 -4.63,-2.33 -4.35,-2.90 -4.35,-2.90 L -4.35,-2.90 Z"></path></g><g transform="translate(114.43628976770083 300.7833950394813) rotate(0 -13.822450116313348 18.42993348841776)" stroke="none"><path fill="#a61e4d" d="M -0.65,5.27 Q -0.65,5.27 -3.01,5.00 -5.37,4.73 -8.19,4.75 -11.02,4.78 -13.38,4.88 -15.74,4.97 -18.69,5.05 -21.63,5.12 -21.34,8.49 -21.04,11.86 -20.25,13.91 -19.46,15.96 -18.04,18.23 -16.62,20.49 -14.58,24.05 -12.54,27.61 -11.24,29.60 -9.94,31.59 -9.06,32.59 -8.18,33.59 -7.63,34.52 -7.08,35.46 -6.85,36.51 -6.63,37.57 -6.76,38.65 -6.88,39.72 -7.34,40.70 -7.80,41.67 -8.55,42.45 -9.30,43.23 -10.26,43.73 -11.22,44.23 -12.29,44.40 -13.36,44.56 -14.43,44.38 -15.49,44.19 -16.44,43.68 -17.39,43.17 -18.13,42.37 -18.87,41.58 -19.31,40.60 -19.76,39.61 -19.87,38.54 -19.98,37.46 -19.73,36.41 -19.49,35.35 -18.93,34.43 -18.36,33.51 -17.53,32.82 -16.70,32.12 -15.70,31.73 -14.69,31.34 -13.61,31.29 -12.53,31.24 -11.49,31.54 -10.45,31.84 -9.56,32.45 -8.67,33.07 -8.02,33.93 -7.38,34.80 -7.04,35.82 -6.70,36.85 -6.71,37.93 -6.72,39.01 -7.07,40.04 -7.43,41.06 -8.09,41.91 -8.75,42.77 -9.65,43.37 -10.55,43.97 -11.59,44.25 -12.64,44.53 -13.72,44.46 -14.80,44.39 -15.80,43.98 -16.80,43.58 -17.62,42.87 -18.44,42.16 -18.43,42.16 -18.43,42.16 -19.58,40.74 -20.73,39.31 -22.59,36.33 -24.45,33.34 -26.01,30.71 -27.56,28.07 -29.31,25.29 -31.07,22.51 -32.29,19.35 -33.51,16.19 -33.85,13.98 -34.18,11.77 -34.10,8.64 -34.01,5.52 -33.79,3.34 -33.57,1.16 -31.96,-1.56 -30.34,-4.28 -26.83,-5.77 -23.32,-7.25 -21.18,-7.17 -19.04,-7.08 -16.22,-6.99 -13.41,-6.89 -11.02,-6.74 -8.63,-6.58 -6.33,-6.25 -4.04,-5.91 -1.69,-5.59 0.65,-5.27 1.27,-5.11 1.90,-4.95 2.46,-4.66 3.03,-4.36 3.51,-3.93 3.98,-3.50 4.35,-2.97 4.71,-2.45 4.93,-1.85 5.16,-1.25 5.23,-0.61 5.31,0.01 5.23,0.65 5.15,1.28 4.92,1.88 4.69,2.48 4.32,3.01 3.96,3.53 3.48,3.95 3.00,4.38 2.43,4.67 1.86,4.97 1.24,5.12 0.62,5.27 -0.01,5.27 -0.65,5.27 -0.65,5.27 L -0.65,5.27 Z"></path></g><g transform="translate(110.34074899249686 313.070017365093) rotate(0 9.21496674420905 5.631368565905518)" stroke="none"><path fill="#a61e4d" d="M -5.14,0.85 Q -5.14,0.85 -5.51,-0.89 -5.88,-2.65 -6.24,-5.45 -6.60,-8.26 -6.83,-11.19 -7.06,-14.12 -5.71,-17.39 -4.36,-20.65 -1.41,-21.63 1.53,-22.60 3.95,-22.76 6.37,-22.91 9.24,-22.99 12.10,-23.06 14.75,-23.02 17.40,-22.97 19.91,-21.80 22.42,-20.63 24.17,-17.77 25.93,-14.91 26.16,-12.45 26.40,-9.98 26.44,-7.82 26.47,-5.66 26.50,-2.56 26.53,0.53 26.11,4.58 25.70,8.64 24.16,11.78 22.61,14.92 21.05,17.80 19.48,20.68 18.16,22.78 16.84,24.87 14.69,26.66 12.53,28.44 6.61,31.55 0.69,34.66 -0.44,34.59 -1.58,34.52 -2.64,34.08 -3.69,33.65 -4.56,32.90 -5.42,32.16 -6.00,31.17 -6.58,30.19 -6.81,29.07 -7.05,27.95 -6.91,26.82 -6.78,25.68 -6.29,24.65 -5.80,23.62 -5.00,22.80 -4.21,21.98 -3.20,21.45 -2.18,20.93 -1.05,20.76 0.07,20.58 1.19,20.78 2.32,20.97 3.32,21.52 4.32,22.06 5.10,22.90 5.88,23.74 6.35,24.78 6.81,25.82 6.93,26.96 7.04,28.09 6.78,29.21 6.53,30.32 5.93,31.29 5.33,32.26 4.45,32.99 3.57,33.72 2.51,34.14 1.44,34.55 0.30,34.60 -0.83,34.65 -1.93,34.33 -3.02,34.02 -3.96,33.37 -4.90,32.71 -5.58,31.80 -6.26,30.88 -6.62,29.80 -6.97,28.71 -6.96,27.57 -6.95,26.43 -6.57,25.35 -6.20,24.27 -5.50,23.37 -4.80,22.47 -3.84,21.84 -2.89,21.20 -1.79,20.91 -0.69,20.62 -0.69,20.62 -0.69,20.62 -1.27,21.56 -1.86,22.51 0.70,20.04 3.26,17.58 5.18,15.93 7.10,14.29 8.73,11.04 10.36,7.79 11.36,5.18 12.36,2.58 12.38,-0.48 12.40,-3.55 12.25,-6.62 12.10,-9.69 9.26,-9.76 6.41,-9.84 4.23,-10.01 2.04,-10.19 3.53,-12.17 5.02,-14.14 4.86,-11.46 4.71,-8.78 4.70,-6.60 4.70,-4.41 4.92,-2.63 5.14,-0.85 5.17,-0.22 5.19,0.39 5.07,1.01 4.95,1.63 4.68,2.20 4.41,2.76 4.02,3.25 3.62,3.74 3.12,4.12 2.62,4.50 2.04,4.75 1.47,5.00 0.85,5.10 0.23,5.20 -0.39,5.16 -1.02,5.11 -1.61,4.91 -2.21,4.71 -2.74,4.38 -3.28,4.05 -3.71,3.60 -4.15,3.14 -4.47,2.60 -4.78,2.06 -4.96,1.45 -5.14,0.85 -5.14,0.85 L -5.14,0.85 Z"></path></g><g transform="translate(324.3327544969038 289.5206579076703) rotate(0 -8.703024147308497 11.774679728711476)" stroke="none"><path fill="#a61e4d" d="M -4.81,1.92 Q -4.81,1.92 -5.45,0.52 -6.09,-0.87 -8.20,0.04 -10.32,0.96 -12.87,1.10 -15.43,1.24 -13.18,-0.45 -10.93,-2.15 -10.84,0.91 -10.75,3.98 -10.73,6.71 -10.71,9.44 -10.68,12.03 -10.66,14.62 -8.91,16.31 -7.16,18.00 -5.30,19.82 -3.43,21.64 -2.94,21.69 -2.44,21.74 -1.35,22.02 -0.27,22.30 0.67,22.92 1.61,23.53 2.31,24.41 3.00,25.30 3.38,26.35 3.76,27.41 3.78,28.54 3.80,29.66 3.46,30.73 3.12,31.81 2.46,32.71 1.80,33.62 0.88,34.27 -0.03,34.92 -1.11,35.24 -2.19,35.56 -3.31,35.52 -4.44,35.48 -5.49,35.08 -6.54,34.68 -7.41,33.97 -8.28,33.26 -8.88,32.31 -9.47,31.35 -9.74,30.26 -10.00,29.17 -9.90,28.05 -9.80,26.93 -9.34,25.90 -8.89,24.87 -8.13,24.04 -7.37,23.21 -6.39,22.66 -5.41,22.12 -4.30,21.92 -3.19,21.71 -2.08,21.88 -0.97,22.04 0.02,22.55 1.03,23.05 1.82,23.86 2.60,24.66 3.09,25.67 3.59,26.68 3.73,27.80 3.87,28.91 3.65,30.02 3.43,31.12 2.86,32.09 2.30,33.07 1.46,33.81 0.61,34.55 -0.41,34.99 -1.45,35.42 -2.57,35.50 -3.69,35.59 -3.69,35.59 -3.69,35.59 -9.13,32.77 -14.58,29.96 -16.80,27.79 -19.03,25.61 -20.82,23.69 -22.61,21.78 -23.39,19.33 -24.17,16.88 -24.14,14.56 -24.11,12.25 -24.09,9.61 -24.06,6.97 -24.04,3.98 -24.02,0.98 -23.94,-1.18 -23.86,-3.34 -23.02,-5.86 -22.17,-8.37 -18.80,-9.92 -15.43,-11.47 -12.84,-11.33 -10.25,-11.19 -7.94,-11.01 -5.62,-10.83 -3.23,-10.28 -0.83,-9.73 1.45,-7.37 3.73,-5.01 4.27,-3.47 4.81,-1.92 4.97,-1.32 5.13,-0.71 5.14,-0.09 5.15,0.53 5.01,1.14 4.87,1.74 4.59,2.30 4.31,2.86 3.91,3.34 3.50,3.81 2.99,4.17 2.48,4.54 1.91,4.77 1.33,5.00 0.71,5.09 0.09,5.18 -0.52,5.11 -1.14,5.05 -1.73,4.84 -2.32,4.63 -2.84,4.28 -3.36,3.93 -3.78,3.47 -4.21,3.01 -4.51,2.47 -4.81,1.92 -4.81,1.92 L -4.81,1.92 Z"></path></g><g transform="translate(326.3805248845056 300.7833950394813) rotate(0 9.214966744208937 5.119425969004851)" stroke="none"><path fill="#a61e4d" d="M -4.81,-2.06 Q -4.81,-2.06 -3.97,-4.14 -3.13,-6.22 -2.31,-8.54 -1.49,-10.86 0.76,-13.22 3.03,-15.58 4.96,-16.69 6.89,-17.81 9.16,-19.08 11.44,-20.34 14.70,-19.68 17.96,-19.02 19.81,-16.77 21.66,-14.51 23.01,-11.40 24.35,-8.29 24.64,-4.93 24.94,-1.57 25.00,1.21 25.06,3.99 25.08,6.84 25.09,9.69 24.87,12.13 24.65,14.57 23.39,16.88 22.13,19.19 19.92,21.87 17.71,24.54 15.51,26.37 13.32,28.19 13.88,27.89 14.45,27.59 13.80,28.52 13.16,29.44 12.25,30.10 11.34,30.77 10.27,31.11 9.20,31.45 8.07,31.43 6.95,31.41 5.89,31.04 4.83,30.66 3.94,29.96 3.06,29.27 2.44,28.33 1.82,27.38 1.54,26.29 1.26,25.21 1.34,24.08 1.42,22.96 1.85,21.92 2.28,20.88 3.03,20.04 3.77,19.19 4.74,18.63 5.72,18.06 6.82,17.84 7.93,17.62 9.04,17.76 10.16,17.90 11.17,18.39 12.19,18.88 12.99,19.66 13.79,20.45 14.31,21.45 14.82,22.46 14.98,23.57 15.14,24.68 14.94,25.79 14.74,26.90 14.20,27.89 13.65,28.87 12.82,29.63 11.99,30.39 10.96,30.85 9.93,31.30 8.81,31.41 7.69,31.51 6.60,31.25 5.50,30.99 4.55,30.39 3.59,29.79 2.88,28.92 2.16,28.05 1.77,27.00 1.37,25.95 1.32,24.82 1.28,23.70 1.60,22.62 1.92,21.54 1.92,21.54 1.92,21.54 5.27,17.85 8.62,14.16 10.19,11.94 11.75,9.71 11.76,6.89 11.76,4.07 11.77,1.45 11.77,-1.17 11.27,-4.45 10.76,-7.74 12.96,-8.63 15.16,-9.53 12.00,-8.21 8.84,-6.89 7.75,-4.45 6.66,-2.01 5.74,0.02 4.81,2.06 4.50,2.61 4.18,3.15 3.74,3.61 3.30,4.06 2.77,4.40 2.23,4.74 1.63,4.94 1.03,5.13 0.40,5.18 -0.22,5.23 -0.84,5.13 -1.46,5.03 -2.05,4.78 -2.63,4.53 -3.13,4.15 -3.64,3.77 -4.03,3.28 -4.43,2.79 -4.70,2.22 -4.97,1.64 -5.10,1.02 -5.22,0.41 -5.20,-0.22 -5.17,-0.85 -4.99,-1.45 -4.81,-2.06 -4.81,-2.06 L -4.81,-2.06 Z"></path></g></svg>
