<svg version="1.1" xmlns="http://www.w3.org/2000/svg" viewBox="0 0 364.0254251171323 296.4490023262671" width="364.0254251171323" height="296.4490023262671"><!-- svg-source:excalidraw --><metadata></metadata><defs><style class="style-fonts">
      </style></defs><g transform="translate(10 56.07483372104434) rotate(0 13.310507519412795 36.34792437993519)" stroke="none"><path fill="#a61e4d" d="M 3.72,-0.33 Q 3.72,-0.33 4.08,2.89 4.43,6.12 4.40,10.56 4.37,15.01 4.30,20.41 4.23,25.81 4.16,30.16 4.09,34.51 4.68,38.19 5.27,41.87 5.47,46.93 5.67,51.98 5.73,56.76 5.79,61.54 5.99,64.68 6.20,67.83 7.94,66.04 9.68,64.25 12.52,61.28 15.37,58.31 17.13,55.70 18.89,53.09 21.73,51.14 24.58,49.19 25.45,48.99 26.31,48.80 27.19,48.90 28.07,48.99 28.87,49.36 29.68,49.73 30.32,50.34 30.96,50.95 31.38,51.73 31.79,52.51 31.94,53.38 32.08,54.25 31.94,55.13 31.80,56.00 31.39,56.78 30.97,57.56 30.33,58.17 29.69,58.78 28.89,59.15 28.09,59.53 27.21,59.62 26.33,59.72 25.46,59.53 24.60,59.34 23.84,58.89 23.08,58.43 22.51,57.76 21.94,57.09 21.61,56.27 21.28,55.44 21.23,54.56 21.18,53.68 21.42,52.83 21.65,51.97 22.15,51.24 22.64,50.51 23.35,49.97 24.05,49.43 24.89,49.15 25.72,48.87 26.61,48.87 27.49,48.87 28.33,49.15 29.17,49.43 29.87,49.96 30.58,50.50 31.08,51.23 31.57,51.96 31.81,52.81 32.05,53.66 32.00,54.55 31.96,55.43 31.63,56.25 31.30,57.07 30.73,57.75 30.16,58.42 29.40,58.88 28.65,59.34 28.65,59.34 28.65,59.34 27.12,60.67 25.59,62.00 24.03,63.76 22.47,65.52 19.15,68.52 15.83,71.51 12.71,73.35 9.58,75.20 7.22,75.23 4.85,75.27 2.98,73.83 1.10,72.40 0.45,70.26 -0.19,68.13 -0.08,64.90 0.02,61.67 -0.13,56.98 -0.28,52.29 -0.59,47.55 -0.89,42.81 -1.50,38.68 -2.11,34.55 -2.23,30.22 -2.34,25.88 -2.51,20.55 -2.69,15.21 -2.97,11.02 -3.26,6.82 -3.49,3.58 -3.72,0.33 -3.70,-0.11 -3.69,-0.56 -3.57,-0.99 -3.45,-1.43 -3.23,-1.82 -3.01,-2.21 -2.70,-2.54 -2.39,-2.87 -2.01,-3.11 -1.63,-3.36 -1.21,-3.50 -0.78,-3.65 -0.33,-3.69 0.11,-3.73 0.55,-3.66 1.00,-3.60 1.42,-3.42 1.83,-3.25 2.19,-2.98 2.56,-2.72 2.85,-2.37 3.13,-2.02 3.33,-1.62 3.53,-1.21 3.62,-0.77 3.72,-0.33 3.72,-0.33 L 3.72,-0.33 Z"></path></g><g transform="translate(72.45699682186023 49.93152255823861) rotate(0 18.9418760853182 26.621015038825703)" stroke="none"><path fill="#a61e4d" d="M 3.74,2.67 Q 3.74,2.67 2.36,4.69 0.98,6.71 0.67,9.08 0.36,11.46 0.16,14.08 -0.04,16.70 -0.07,18.99 -0.10,21.27 -0.09,23.69 -0.08,26.11 -0.09,28.90 -0.11,31.69 -0.39,35.82 -0.67,39.95 -0.68,43.18 -0.69,46.42 -0.45,49.79 -0.22,53.17 2.90,52.39 6.02,51.62 8.26,50.62 10.50,49.63 12.94,49.29 15.37,48.96 18.25,47.42 21.13,45.88 23.91,43.10 26.69,40.32 28.55,38.21 30.40,36.10 31.68,33.22 32.96,30.34 34.15,27.89 35.34,25.43 35.68,23.06 36.01,20.68 36.01,17.69 36.00,14.69 35.96,12.44 35.93,10.20 35.88,7.74 35.83,5.29 35.81,2.66 35.79,0.03 35.78,-3.05 35.76,-6.14 35.95,-7.29 36.14,-8.45 36.69,-9.48 37.24,-10.52 38.09,-11.32 38.94,-12.13 40.00,-12.62 41.06,-13.11 42.23,-13.24 43.39,-13.36 44.53,-13.11 45.68,-12.86 46.68,-12.26 47.68,-11.65 48.44,-10.76 49.20,-9.87 49.63,-8.78 50.07,-7.69 50.13,-6.52 50.19,-5.36 49.88,-4.23 49.57,-3.10 48.91,-2.13 48.25,-1.16 47.32,-0.45 46.39,0.25 45.28,0.62 44.17,0.99 43.00,0.99 41.83,0.99 40.72,0.62 39.61,0.25 38.68,-0.45 37.74,-1.16 37.09,-2.13 36.43,-3.10 36.12,-4.23 35.80,-5.36 35.87,-6.53 35.93,-7.70 36.36,-8.78 36.80,-9.87 37.56,-10.76 38.31,-11.66 39.32,-12.26 40.32,-12.86 41.46,-13.11 42.61,-13.36 43.77,-13.24 44.94,-13.11 46.00,-12.62 47.06,-12.13 47.91,-11.32 48.76,-10.52 49.31,-9.48 49.86,-8.45 50.05,-7.29 50.24,-6.14 50.24,-6.14 50.24,-6.14 50.21,-2.34 50.18,1.45 50.16,4.18 50.14,6.91 50.09,9.23 50.04,11.55 50.00,14.11 49.95,16.67 49.91,18.95 49.86,21.23 49.62,23.87 49.38,26.51 47.87,29.93 46.35,33.35 45.24,35.54 44.13,37.73 43.04,40.07 41.94,42.42 40.01,44.84 38.09,47.27 36.48,49.03 34.88,50.79 32.76,52.63 30.65,54.47 27.09,56.80 23.53,59.12 20.51,60.39 17.50,61.67 15.32,61.45 13.13,61.24 10.44,62.47 7.74,63.70 5.12,64.39 2.51,65.08 -0.47,64.71 -3.46,64.35 -5.91,62.36 -8.35,60.37 -9.18,56.79 -10.01,53.20 -9.77,49.80 -9.53,46.41 -9.53,43.17 -9.53,39.94 -9.79,35.78 -10.06,31.62 -10.03,28.77 -10.01,25.92 -9.90,23.36 -9.80,20.81 -9.60,18.32 -9.41,15.83 -9.08,12.76 -8.75,9.70 -7.81,5.61 -6.87,1.53 -5.31,-0.57 -3.74,-2.67 -3.37,-3.08 -2.99,-3.49 -2.53,-3.80 -2.07,-4.10 -1.55,-4.29 -1.02,-4.48 -0.47,-4.54 0.07,-4.60 0.62,-4.52 1.17,-4.44 1.68,-4.24 2.20,-4.03 2.65,-3.71 3.10,-3.39 3.46,-2.97 3.82,-2.55 4.07,-2.05 4.32,-1.56 4.45,-1.02 4.57,-0.48 4.56,0.07 4.55,0.62 4.41,1.16 4.27,1.70 4.01,2.18 3.74,2.67 3.74,2.67 L 3.74,2.67 Z"></path></g><g transform="translate(148.22450116313348 31.50158906982074) rotate(0 25.59712984502471 29.180728023328243)" stroke="none"><path fill="#a61e4d" d="M 4.49,-1.28 Q 4.49,-1.28 5.17,0.75 5.85,2.78 6.47,5.53 7.09,8.27 7.29,11.29 7.49,14.31 7.67,17.32 7.85,20.33 8.18,23.37 8.51,26.42 8.93,29.48 9.34,32.54 9.68,36.28 10.02,40.02 10.57,42.29 11.12,44.55 12.03,47.10 12.94,49.65 13.29,52.44 13.64,55.23 16.65,54.92 19.66,54.61 22.13,52.61 24.60,50.60 24.48,47.95 24.35,45.30 24.80,40.43 25.25,35.55 26.12,32.62 26.99,29.69 27.59,27.50 28.20,25.32 29.16,22.87 30.12,20.42 31.51,17.63 32.91,14.85 33.81,11.72 34.72,8.59 35.83,4.35 36.95,0.12 38.70,-1.84 40.44,-3.81 42.04,-5.62 43.64,-7.42 45.64,-8.89 47.63,-10.37 48.56,-10.80 49.50,-11.23 50.52,-11.34 51.54,-11.45 52.54,-11.23 53.54,-11.01 54.42,-10.48 55.30,-9.95 55.97,-9.17 56.63,-8.38 57.01,-7.43 57.39,-6.47 57.44,-5.45 57.50,-4.42 57.22,-3.43 56.95,-2.45 56.37,-1.60 55.79,-0.75 54.98,-0.13 54.16,0.49 53.18,0.81 52.21,1.14 51.18,1.14 50.16,1.14 49.18,0.81 48.21,0.48 47.40,-0.13 46.58,-0.75 46.00,-1.60 45.43,-2.45 45.15,-3.44 44.88,-4.43 44.94,-5.46 44.99,-6.48 45.37,-7.44 45.75,-8.39 46.42,-9.17 47.08,-9.96 47.96,-10.48 48.84,-11.01 49.85,-11.23 50.85,-11.45 51.87,-11.34 52.89,-11.23 53.82,-10.80 54.76,-10.36 55.50,-9.66 56.25,-8.95 56.73,-8.04 57.21,-7.14 57.37,-6.12 57.54,-5.11 57.37,-4.10 57.20,-3.08 56.72,-2.18 56.24,-1.27 55.49,-0.56 54.75,0.13 54.75,0.13 54.75,0.13 53.02,1.36 51.30,2.59 49.03,4.37 46.76,6.15 46.46,8.52 46.15,10.88 45.60,13.12 45.06,15.37 44.16,17.51 43.27,19.66 41.46,24.03 39.64,28.40 39.04,30.69 38.44,32.99 37.63,37.15 36.81,41.31 36.79,43.67 36.76,46.02 36.61,48.15 36.46,50.28 35.99,52.40 35.52,54.53 34.16,56.92 32.81,59.30 31.19,60.69 29.57,62.08 27.33,63.71 25.09,65.34 22.21,66.72 19.34,68.10 15.92,68.67 12.51,69.24 9.67,68.20 6.84,67.16 5.21,64.68 3.57,62.20 3.05,59.71 2.52,57.21 2.66,54.54 2.79,51.86 2.25,49.18 1.71,46.50 1.25,43.88 0.79,41.27 0.14,37.66 -0.50,34.05 -1.04,30.91 -1.57,27.78 -2.09,24.54 -2.60,21.31 -2.99,15.95 -3.37,10.60 -3.44,8.03 -3.50,5.45 -3.99,3.36 -4.49,1.28 -4.57,0.72 -4.66,0.17 -4.62,-0.39 -4.57,-0.95 -4.39,-1.48 -4.21,-2.01 -3.91,-2.49 -3.60,-2.96 -3.20,-3.35 -2.79,-3.74 -2.30,-4.02 -1.81,-4.30 -1.27,-4.45 -0.73,-4.61 -0.16,-4.63 0.39,-4.65 0.94,-4.54 1.49,-4.42 2.00,-4.18 2.51,-3.93 2.94,-3.58 3.38,-3.22 3.71,-2.77 4.05,-2.32 4.27,-1.80 4.49,-1.28 4.49,-1.28 L 4.49,-1.28 Z"></path></g><g transform="translate(302.83116542708285 10) rotate(0 25.59712984502471 32.25238360473111)" stroke="none"><path fill="#a61e4d" d="M 4.67,0 Q 4.67,0 4.44,4.12 4.21,8.24 4.17,11.75 4.14,15.27 4.15,18.53 4.17,21.80 4.21,24.95 4.24,28.10 4.22,31.50 4.21,34.90 4.30,37.51 4.40,40.11 5.82,43.28 7.25,46.45 8.99,49.19 10.73,51.92 12.04,54.11 13.34,56.30 16.42,57.26 19.49,58.22 23.34,56.43 27.20,54.63 30.70,53.21 34.20,51.78 36.48,50.44 38.76,49.10 40.87,46.22 42.99,43.34 43.55,41.06 44.11,38.79 44.70,36.40 45.28,34.00 45.45,30.46 45.63,26.92 45.56,23.96 45.50,21.01 45.32,18.28 45.15,15.55 45.06,12.91 44.98,10.27 44.92,7.57 44.85,4.87 44.94,4.11 45.04,3.35 45.31,2.64 45.58,1.92 46.01,1.29 46.45,0.66 47.02,0.16 47.59,-0.34 48.27,-0.69 48.94,-1.05 49.68,-1.23 50.43,-1.41 51.19,-1.41 51.95,-1.41 52.70,-1.23 53.44,-1.05 54.11,-0.69 54.79,-0.34 55.36,0.16 55.93,0.67 56.37,1.29 56.80,1.92 57.07,2.64 57.34,3.35 57.44,4.11 57.53,4.87 57.38,8.88 57.23,12.89 57.04,16.24 56.86,19.60 56.92,23.11 56.98,26.62 56.82,27.54 56.67,28.46 56.23,29.29 55.80,30.12 55.12,30.76 54.44,31.41 53.59,31.80 52.74,32.19 51.81,32.29 50.88,32.39 49.96,32.19 49.05,31.99 48.25,31.51 47.44,31.03 46.84,30.31 46.23,29.60 45.88,28.73 45.54,27.86 45.49,26.92 45.44,25.99 45.69,25.09 45.94,24.19 46.46,23.41 46.99,22.64 47.73,22.07 48.48,21.50 49.37,21.20 50.25,20.91 51.19,20.91 52.13,20.91 53.01,21.21 53.90,21.50 54.65,22.07 55.39,22.64 55.92,23.41 56.44,24.19 56.69,25.09 56.94,25.99 56.89,26.93 56.84,27.86 56.49,28.73 56.15,29.60 55.54,30.31 54.93,31.03 54.13,31.51 53.33,31.99 52.42,32.19 51.50,32.39 50.57,32.29 49.64,32.19 48.79,31.80 47.94,31.40 47.26,30.76 46.58,30.12 46.14,29.29 45.71,28.46 45.55,27.54 45.40,26.61 45.40,26.62 45.40,26.62 45.46,23.11 45.52,19.60 45.34,16.24 45.15,12.89 45.00,8.88 44.85,4.87 44.94,4.11 45.04,3.35 45.31,2.64 45.58,1.92 46.01,1.29 46.45,0.67 47.02,0.16 47.59,-0.34 48.27,-0.69 48.94,-1.05 49.68,-1.23 50.43,-1.41 51.19,-1.41 51.95,-1.41 52.69,-1.23 53.44,-1.05 54.11,-0.69 54.79,-0.34 55.36,0.16 55.93,0.66 56.37,1.29 56.80,1.92 57.07,2.64 57.34,3.35 57.44,4.11 57.53,4.87 57.49,6.09 57.46,7.30 57.39,10.19 57.32,13.08 57.18,15.72 57.05,18.36 56.84,20.92 56.63,23.49 56.33,27.51 56.02,31.52 55.64,34.05 55.26,36.58 54.60,39.00 53.93,41.41 52.95,44.92 51.96,48.42 50.32,50.92 48.69,53.41 46.27,55.55 43.86,57.68 41.09,59.31 38.31,60.95 35.46,62.37 32.60,63.79 28.58,66.34 24.55,68.88 21.25,69.40 17.95,69.93 15.36,69.43 12.76,68.93 10.41,67.79 8.06,66.65 6.45,65.13 4.85,63.61 3.69,61.38 2.53,59.14 1.45,56.70 0.37,54.26 -0.58,52.35 -1.54,50.43 -2.41,48.16 -3.28,45.89 -3.84,43.03 -4.40,40.18 -4.30,37.54 -4.21,34.90 -4.22,31.50 -4.24,28.10 -4.21,24.95 -4.17,21.80 -4.15,18.53 -4.14,15.27 -4.17,11.75 -4.21,8.24 -4.44,4.12 -4.67,0 -4.60,-0.55 -4.53,-1.11 -4.33,-1.64 -4.13,-2.17 -3.81,-2.63 -3.49,-3.09 -3.07,-3.47 -2.65,-3.84 -2.15,-4.10 -1.65,-4.36 -1.11,-4.50 -0.56,-4.63 0.00,-4.63 0.56,-4.63 1.11,-4.50 1.65,-4.36 2.15,-4.10 2.65,-3.84 3.07,-3.47 3.49,-3.09 3.81,-2.63 4.13,-2.17 4.33,-1.64 4.53,-1.11 4.60,-0.55 4.67,0.00 4.67,0.00 L 4.67,0 Z"></path></g><g transform="translate(153.34392713213833 167.67831984535223) rotate(0 -15.35827790701478 49.6584318993481)" stroke="none"><path fill="#a61e4d" d="M -5.09,1.01 Q -5.09,1.01 -5.44,-0.36 -5.79,-1.74 -8.94,-1.35 -12.08,-0.96 -14.28,-0.86 -16.47,-0.76 -19.57,-0.75 -22.68,-0.74 -26.08,-1.08 -29.49,-1.43 -31.94,-1.94 -34.39,-2.46 -37.04,-2.42 -39.69,-2.37 -41.75,-0.15 -43.82,2.06 -44.81,4.19 -45.81,6.33 -46.88,8.69 -47.95,11.04 -48.79,14.09 -49.64,17.14 -50.12,20.44 -50.60,23.74 -50.78,26.65 -50.95,29.55 -50.94,34.02 -50.93,38.49 -51.07,41.84 -51.20,45.20 -51.16,47.51 -51.11,49.82 -50.95,52.65 -50.79,55.48 -50.38,58.62 -49.98,61.76 -47.09,66.14 -44.20,70.52 -41.14,73.71 -38.09,76.90 -35.03,78.73 -31.98,80.57 -28.66,81.97 -25.35,83.37 -20.60,85.62 -15.85,87.88 -12.16,89.39 -8.47,90.91 -6.13,91.30 -3.79,91.68 -1.28,92.09 1.22,92.50 3.31,92.91 5.40,93.32 7.64,93.71 9.88,94.10 13.06,95.14 16.24,96.17 19.78,97.36 23.33,98.55 26.95,102.12 30.57,105.69 30.89,106.56 31.21,107.43 31.24,108.36 31.27,109.28 31.00,110.17 30.73,111.06 30.19,111.81 29.65,112.57 28.90,113.11 28.15,113.65 27.27,113.93 26.38,114.20 25.46,114.18 24.53,114.16 23.66,113.84 22.79,113.52 22.06,112.94 21.34,112.36 20.84,111.59 20.34,110.81 20.11,109.91 19.88,109.01 19.96,108.08 20.03,107.16 20.39,106.31 20.76,105.46 21.37,104.76 21.99,104.07 22.80,103.61 23.60,103.16 24.51,102.98 25.42,102.80 26.34,102.92 27.26,103.05 28.09,103.46 28.92,103.86 29.58,104.52 30.24,105.17 30.65,106.00 31.06,106.83 31.19,107.75 31.32,108.67 31.15,109.58 30.97,110.49 30.52,111.30 30.07,112.10 29.38,112.72 28.69,113.35 27.84,113.71 26.99,114.08 26.07,114.16 25.14,114.24 24.24,114.02 23.34,113.80 22.56,113.30 21.78,112.80 21.20,112.08 20.61,111.36 20.61,111.36 20.61,111.36 19.99,110.46 19.37,109.56 17.70,108.18 16.03,106.81 13.83,105.92 11.62,105.03 9.75,104.01 7.87,102.98 3.67,101.68 -0.51,100.37 -3.06,99.66 -5.62,98.95 -8.26,98.08 -10.91,97.22 -14.80,95.79 -18.68,94.36 -23.45,92.46 -28.22,90.56 -32.05,89.11 -35.89,87.66 -39.96,85.56 -44.03,83.45 -48.05,80.14 -52.08,76.83 -55.49,73.11 -58.90,69.38 -60.18,66.57 -61.46,63.75 -61.64,59.61 -61.83,55.47 -61.66,52.64 -61.50,49.80 -61.44,47.49 -61.39,45.17 -61.50,41.78 -61.61,38.39 -61.56,35.95 -61.51,33.52 -61.39,31.31 -61.28,29.11 -61.20,25.98 -61.11,22.86 -60.98,18.91 -60.85,14.95 -60.26,10.63 -59.66,6.30 -58.73,3.77 -57.80,1.24 -56.85,-1.18 -55.91,-3.61 -54.62,-6.23 -53.33,-8.85 -50.87,-11.48 -48.41,-14.11 -45.71,-15.08 -43.01,-16.06 -40.44,-16.03 -37.87,-16.00 -35.45,-15.87 -33.03,-15.73 -30.41,-15.23 -27.79,-14.73 -25.23,-14.16 -22.67,-13.58 -18.72,-13.51 -14.78,-13.44 -12.37,-13.20 -9.96,-12.96 -6.88,-11.87 -3.80,-10.78 -1.75,-10.20 0.30,-9.62 2.46,-6.88 4.61,-4.14 4.85,-2.58 5.09,-1.01 5.14,-0.39 5.19,0.22 5.08,0.84 4.98,1.46 4.73,2.04 4.48,2.61 4.11,3.11 3.73,3.61 3.24,4.00 2.75,4.40 2.19,4.66 1.62,4.93 1.01,5.05 0.39,5.18 -0.22,5.15 -0.85,5.12 -1.45,4.94 -2.05,4.77 -2.59,4.45 -3.13,4.14 -3.58,3.70 -4.03,3.26 -4.37,2.73 -4.70,2.20 -4.89,1.61 -5.09,1.01 -5.09,1.01 L -5.09,1.01 Z"></path></g><g transform="translate(155.39169751974032 174.84551620195907) rotate(0 57.84951344975593 28.66878542642786)" stroke="none"><path fill="#a61e4d" d="M -5.35,0 Q -5.35,0 -5.42,-1.76 -5.49,-3.53 -5.62,-6.32 -5.76,-9.11 -5.84,-12.43 -5.93,-15.74 -5.99,-19.13 -6.05,-22.52 -5.16,-25.99 -4.26,-29.47 -2.88,-31.25 -1.49,-33.03 0.03,-35.17 1.56,-37.30 4.39,-39.07 7.22,-40.84 10.24,-41.64 13.27,-42.44 16.25,-43.60 19.24,-44.76 21.73,-45.83 24.22,-46.89 27.12,-48.13 30.02,-49.37 32.61,-50.15 35.20,-50.94 38.92,-52.05 42.65,-53.17 45.15,-53.88 47.65,-54.59 50.77,-55.20 53.90,-55.82 56.26,-56.36 58.63,-56.91 60.80,-57.45 62.98,-57.99 65.82,-58.49 68.66,-58.99 71.90,-59.19 75.14,-59.39 77.34,-59.52 79.55,-59.66 81.70,-59.74 83.84,-59.82 89.90,-58.75 95.95,-57.67 99.14,-56.21 102.33,-54.75 105.16,-53.21 107.98,-51.67 110.13,-50.46 112.28,-49.25 115.02,-47.04 117.76,-44.84 119.35,-41.18 120.94,-37.52 120.49,-34.35 120.03,-31.19 118.67,-27.60 117.32,-24.01 115.74,-20.60 114.17,-17.19 111.77,-13.12 109.36,-9.06 107.87,-5.77 106.37,-2.48 104.80,0.41 103.23,3.30 101.74,6.14 100.25,8.98 99.11,11.59 97.97,14.21 96.50,17.58 95.03,20.95 93.44,24.48 91.85,28.02 90.21,32.03 88.56,36.04 87.36,39.32 86.16,42.60 85.13,45.28 84.10,47.97 83.14,50.34 82.17,52.71 81.18,54.76 80.18,56.81 78.52,59.47 76.86,62.13 74.99,65.74 73.11,69.34 72.12,71.85 71.13,74.35 69.27,76.55 67.42,78.75 65.31,80.61 63.21,82.48 61.37,84.03 59.53,85.58 57.22,86.46 54.91,87.35 52.26,89.11 49.60,90.87 47.51,92.00 45.42,93.12 43.11,94.92 40.80,96.72 39.00,98.11 37.20,99.50 35.13,101.79 33.06,104.09 31.56,106.36 30.07,108.64 29.16,110.51 28.25,112.38 27.95,113.44 27.64,114.50 27.02,115.40 26.40,116.31 25.52,116.97 24.64,117.63 23.59,117.97 22.55,118.31 21.45,118.31 20.35,118.30 19.31,117.94 18.27,117.58 17.40,116.91 16.53,116.24 15.92,115.32 15.31,114.41 15.02,113.35 14.73,112.29 14.80,111.19 14.87,110.09 15.28,109.07 15.70,108.05 16.42,107.22 17.13,106.39 18.08,105.83 19.03,105.27 20.10,105.04 21.18,104.81 22.27,104.94 23.36,105.06 24.36,105.53 25.35,106.00 26.14,106.76 26.94,107.52 27.44,108.50 27.95,109.47 28.12,110.56 28.29,111.65 28.11,112.73 27.92,113.82 27.40,114.78 26.88,115.75 26.07,116.50 25.27,117.25 24.27,117.71 23.27,118.16 22.17,118.27 21.08,118.38 20.01,118.14 18.94,117.89 18.00,117.32 17.06,116.75 16.35,115.90 15.65,115.06 15.25,114.04 14.85,113.01 14.80,111.91 14.75,110.81 14.75,110.82 14.75,110.82 15.34,108.17 15.94,105.53 17.31,103.58 18.68,101.62 20.01,99.80 21.35,97.98 23.51,95.41 25.66,92.84 27.33,91.02 28.99,89.20 31.63,86.96 34.26,84.72 36.89,83.08 39.52,81.44 41.56,80.47 43.59,79.49 45.53,78.52 47.47,77.54 50.49,76.24 53.52,74.93 56.47,72.91 59.42,70.89 61.20,69.05 62.98,67.22 64.91,64.37 66.84,61.52 68.02,59.40 69.21,57.28 71.88,53.20 74.54,49.12 75.70,46.97 76.85,44.81 78.05,42.39 79.25,39.97 80.51,36.77 81.77,33.57 83.15,29.26 84.53,24.96 85.91,21.40 87.28,17.83 88.63,14.19 89.97,10.56 91.31,7.77 92.64,4.98 94.19,2.03 95.74,-0.92 97.18,-3.33 98.61,-5.74 100.03,-9.41 101.45,-13.08 103.13,-17.07 104.81,-21.07 105.93,-24.14 107.04,-27.22 108.35,-31.75 109.66,-36.27 108.32,-38.27 106.99,-40.27 105.09,-41.44 103.20,-42.61 100.66,-43.91 98.12,-45.20 95.62,-46.25 93.12,-47.29 88.59,-47.94 84.06,-48.58 80.01,-48.53 75.97,-48.48 73.38,-48.23 70.78,-47.99 68.23,-47.44 65.68,-46.90 63.46,-46.37 61.24,-45.84 58.82,-45.26 56.39,-44.67 53.78,-44.00 51.18,-43.33 46.67,-41.93 42.16,-40.53 38.72,-39.58 35.29,-38.62 32.50,-37.06 29.72,-35.49 27.15,-34.11 24.58,-32.73 22.50,-31.80 20.42,-30.87 17.25,-29.84 14.07,-28.81 11.77,-27.80 9.47,-26.79 7.76,-24.61 6.05,-22.43 5.99,-19.09 5.93,-15.74 5.84,-12.43 5.76,-9.11 5.62,-6.32 5.49,-3.53 5.42,-1.76 5.35,0 5.28,0.64 5.20,1.28 4.97,1.88 4.74,2.49 4.37,3.02 4.01,3.55 3.52,3.98 3.04,4.41 2.47,4.71 1.90,5.01 1.27,5.16 0.64,5.31 -0.00,5.31 -0.64,5.31 -1.27,5.16 -1.90,5.01 -2.47,4.71 -3.04,4.41 -3.52,3.98 -4.01,3.55 -4.37,3.02 -4.74,2.49 -4.97,1.88 -5.20,1.28 -5.28,0.64 -5.35,-0.00 -5.35,-0.00 L -5.35,0 Z"></path></g></svg>
