<svg version="1.1" xmlns="http://www.w3.org/2000/svg" viewBox="0 0 382.45535860555026 288.25792077585925" width="382.45535860555026" height="288.25792077585925"><!-- svg-source:excalidraw --><metadata></metadata><defs><style class="style-fonts">
      </style></defs><g transform="translate(230.13531666721258 36.6210150388257) rotate(0 -30.71655581402956 20.9896464729203)" stroke="none"><path fill="#a61e4d" d="M -5.02,0.41 Q -5.02,0.41 -5.19,-3.12 -5.35,-6.66 -6.94,-10.88 -8.52,-15.11 -9.82,-16.87 -11.12,-18.63 -12.67,-20.28 -14.21,-21.93 -16.28,-21.35 -18.35,-20.77 -20.65,-20.68 -22.95,-20.58 -25.64,-20.46 -28.33,-20.33 -30.40,-18.67 -32.47,-17.02 -34.17,-15.60 -35.87,-14.18 -38.39,-12.04 -40.91,-9.90 -42.93,-8.46 -44.96,-7.01 -46.89,-4.70 -48.82,-2.39 -49.07,0.11 -49.33,2.62 -50.38,5.07 -51.43,7.52 -52.73,11.54 -54.03,15.56 -54.44,18.74 -54.85,21.92 -54.85,25.05 -54.85,28.19 -54.78,31.25 -54.72,34.32 -52.69,35.64 -50.67,36.97 -48.86,38.64 -47.04,40.32 -44.34,41.69 -41.64,43.06 -39.06,45.01 -36.49,46.96 -34.39,47.98 -32.29,48.99 -29.68,50.33 -27.07,51.67 -25.00,52.50 -22.92,53.33 -20.73,54.54 -18.55,55.76 -15.55,56.76 -12.56,57.77 -10.18,59.89 -7.79,62.01 -7.54,61.84 -7.28,61.68 -6.22,62.16 -5.17,62.65 -4.33,63.46 -3.48,64.26 -2.94,65.28 -2.40,66.31 -2.21,67.46 -2.02,68.61 -2.21,69.75 -2.40,70.90 -2.95,71.93 -3.50,72.95 -4.34,73.75 -5.19,74.55 -6.24,75.04 -7.30,75.52 -8.46,75.65 -9.61,75.77 -10.75,75.52 -11.88,75.27 -12.88,74.66 -13.87,74.06 -14.62,73.18 -15.37,72.29 -15.80,71.21 -16.23,70.13 -16.29,68.97 -16.35,67.81 -16.04,66.69 -15.73,65.57 -15.07,64.61 -14.42,63.64 -13.49,62.94 -12.56,62.24 -11.46,61.87 -10.36,61.50 -9.20,61.50 -8.03,61.51 -6.93,61.88 -5.83,62.25 -4.91,62.96 -3.98,63.66 -3.33,64.63 -2.68,65.59 -2.37,66.71 -2.07,67.83 -2.13,68.99 -2.20,70.15 -2.63,71.23 -3.06,72.31 -3.81,73.20 -4.57,74.08 -5.57,74.68 -6.56,75.28 -7.70,75.52 -8.83,75.77 -9.99,75.64 -11.15,75.51 -11.14,75.52 -11.14,75.52 -14.36,73.99 -17.58,72.46 -19.15,70.91 -20.73,69.36 -23.70,68.12 -26.66,66.89 -28.73,66.07 -30.80,65.26 -33.04,64.12 -35.28,62.98 -37.89,61.92 -40.50,60.86 -43.05,59.23 -45.60,57.60 -47.81,56.06 -50.02,54.51 -51.94,53.55 -53.86,52.59 -55.86,50.94 -57.86,49.29 -59.63,47.60 -61.41,45.91 -63.53,44.34 -65.65,42.77 -66.89,38.54 -68.14,34.31 -68.06,31.18 -67.98,28.05 -67.88,25.75 -67.78,23.45 -67.49,20.37 -67.20,17.30 -66.83,14.80 -66.45,12.30 -65.81,9.06 -65.16,5.83 -64.06,2.84 -62.95,-0.13 -62.09,-2.97 -61.22,-5.80 -60.20,-8.28 -59.18,-10.76 -57.37,-12.98 -55.56,-15.21 -53.69,-16.81 -51.82,-18.42 -49.16,-19.77 -46.50,-21.12 -44.08,-23.44 -41.65,-25.76 -39.85,-27.52 -38.05,-29.29 -35.44,-30.73 -32.82,-32.17 -30.59,-32.54 -28.37,-32.90 -25.63,-32.77 -22.90,-32.64 -20.52,-32.51 -18.14,-32.39 -15.56,-32.16 -12.97,-31.93 -9.63,-30.43 -6.28,-28.92 -4.63,-26.55 -2.98,-24.19 -1.37,-21.68 0.24,-19.17 1.83,-15.71 3.42,-12.25 3.80,-9.85 4.17,-7.46 4.60,-3.94 5.02,-0.41 5.00,0.18 4.98,0.79 4.81,1.38 4.64,1.96 4.34,2.49 4.04,3.02 3.62,3.46 3.20,3.90 2.68,4.22 2.17,4.55 1.59,4.74 1.02,4.94 0.41,4.99 -0.19,5.04 -0.79,4.94 -1.39,4.85 -1.95,4.61 -2.51,4.37 -2.99,4.01 -3.48,3.64 -3.87,3.17 -4.25,2.70 -4.52,2.15 -4.78,1.60 -4.90,1.01 -5.02,0.41 -5.02,0.41 L -5.02,0.41 Z"></path></g><g transform="translate(241.39805379902361 41.74044100783067) rotate(0 20.989646472920185 18.941876085318313)" stroke="none"><path fill="#a61e4d" d="M -5.18,0.64 Q -5.18,0.64 -5.51,-1.70 -5.84,-4.05 -6.03,-6.41 -6.22,-8.77 -5.93,-11.29 -5.65,-13.81 -3.58,-16.91 -1.51,-20.01 0.15,-23.44 1.81,-26.87 3.77,-30.27 5.72,-33.67 8.22,-35.03 10.71,-36.40 14.70,-36.64 18.69,-36.89 21.57,-36.80 24.44,-36.71 27.60,-36.78 30.75,-36.86 33.10,-36.83 35.44,-36.80 38.71,-36.85 41.97,-36.90 44.29,-36.96 46.61,-37.02 50.32,-34.60 54.03,-32.18 55.52,-29.39 57.01,-26.61 58.40,-23.68 59.79,-20.75 60.66,-17.60 61.53,-14.45 61.86,-11.81 62.18,-9.16 62.37,-5.08 62.56,-0.99 62.54,3.27 62.52,7.55 62.52,11.50 62.53,15.46 62.57,18.69 62.61,21.92 62.19,25.38 61.78,28.84 60.44,30.85 59.11,32.87 57.75,34.76 56.38,36.64 53.55,38.82 50.73,40.99 48.13,42.62 45.54,44.25 43.59,45.59 41.64,46.94 38.15,49.54 34.67,52.14 31.63,53.08 28.59,54.02 26.32,55.31 24.05,56.60 21.34,58.05 18.62,59.50 16.34,61.10 14.05,62.70 11.88,63.89 9.70,65.07 7.63,66.89 5.57,68.71 2.92,70.04 0.27,71.38 -1.97,71.57 -4.22,71.75 -6.46,72.75 -8.70,73.74 -10.97,74.83 -13.23,75.91 -14.43,75.89 -15.63,75.88 -16.75,75.48 -17.88,75.08 -18.83,74.35 -19.77,73.61 -20.43,72.61 -21.08,71.61 -21.39,70.45 -21.69,69.29 -21.61,68.10 -21.53,66.91 -21.07,65.80 -20.61,64.70 -19.83,63.79 -19.04,62.89 -18.01,62.29 -16.97,61.69 -15.80,61.45 -14.63,61.20 -13.44,61.35 -12.25,61.50 -11.17,62.01 -10.09,62.53 -9.24,63.37 -8.38,64.20 -7.83,65.27 -7.29,66.33 -7.11,67.51 -6.93,68.70 -7.14,69.88 -7.35,71.05 -7.93,72.10 -8.50,73.15 -9.38,73.96 -10.26,74.77 -11.36,75.26 -12.45,75.75 -13.64,75.86 -14.83,75.98 -16.00,75.70 -17.16,75.43 -18.18,74.80 -19.20,74.17 -19.96,73.24 -20.72,72.32 -21.15,71.20 -21.57,70.08 -21.62,68.89 -21.67,67.69 -21.33,66.54 -21.00,65.40 -20.31,64.42 -19.63,63.43 -18.67,62.72 -17.70,62.01 -16.56,61.65 -15.42,61.28 -15.43,61.28 -15.43,61.28 -13.98,61.61 -12.52,61.93 -10.14,60.16 -7.76,58.40 -5.00,58.18 -2.23,57.96 -0.47,55.91 1.27,53.87 3.19,52.87 5.12,51.87 7.71,50.31 10.30,48.74 12.89,47.27 15.48,45.80 17.62,44.56 19.77,43.32 22.17,42.15 24.57,40.99 27.03,40.42 29.48,39.84 31.36,38.16 33.23,36.48 35.79,34.75 38.35,33.02 40.76,31.55 43.17,30.08 45.39,28.45 47.61,26.81 48.81,24.37 50.01,21.92 50.05,18.70 50.09,15.47 50.08,11.53 50.07,7.59 49.99,3.46 49.91,-0.67 49.76,-4.12 49.61,-7.58 48.94,-11.02 48.27,-14.47 46.75,-17.62 45.24,-20.77 43.60,-22.64 41.97,-24.52 38.71,-24.57 35.45,-24.62 33.11,-24.59 30.77,-24.56 27.64,-24.62 24.50,-24.67 21.71,-24.55 18.92,-24.44 16.07,-24.20 13.22,-23.96 11.48,-21.07 9.73,-18.17 7.33,-14.86 4.94,-11.55 4.80,-8.46 4.66,-5.36 4.92,-3.00 5.18,-0.64 5.19,-0.01 5.19,0.61 5.04,1.22 4.89,1.83 4.60,2.39 4.31,2.95 3.89,3.42 3.48,3.90 2.96,4.26 2.44,4.62 1.85,4.84 1.26,5.07 0.64,5.15 0.01,5.22 -0.60,5.15 -1.23,5.08 -1.82,4.86 -2.41,4.63 -2.93,4.28 -3.45,3.92 -3.87,3.45 -4.29,2.98 -4.58,2.42 -4.88,1.87 -5.03,1.25 -5.18,0.64 -5.18,0.64 L -5.18,0.64 Z"></path></g><g transform="translate(90.8869303102781 159.4872382949444) rotate(0 -40.44346515513905 24.573244651223774)" stroke="none"><path fill="#a61e4d" d="M -2.88,2.88 Q -2.88,2.88 -5.70,-0.17 -8.53,-3.23 -12.77,-6.82 -17.01,-10.41 -21.32,-13.08 -25.62,-15.75 -30.14,-18.43 -34.67,-21.11 -38.09,-23.10 -41.51,-25.08 -44.64,-25.70 -47.78,-26.31 -50.31,-26.46 -52.84,-26.61 -55.04,-26.58 -57.25,-26.55 -60.82,-26.44 -64.39,-26.33 -66.69,-23.70 -68.98,-21.08 -70.48,-18.59 -71.97,-16.10 -72.77,-13.81 -73.56,-11.51 -74.26,-7.51 -74.96,-3.51 -75.03,-1.00 -75.10,1.51 -74.98,4.19 -74.87,6.87 -73.88,9.46 -72.88,12.05 -70.32,13.52 -67.75,14.99 -65.74,16.20 -63.72,17.41 -60.80,20.19 -57.87,22.97 -56.14,24.80 -54.40,26.63 -52.18,28.82 -49.95,31.00 -48.22,32.67 -46.50,34.33 -45.03,36.56 -43.55,38.79 -41.37,41.48 -39.19,44.16 -37.05,48.46 -34.90,52.76 -33.12,56.06 -31.33,59.36 -30.14,61.12 -28.96,62.89 -27.79,65.02 -26.62,67.15 -25.66,69.11 -24.71,71.06 -23.31,73.68 -21.90,76.29 -21.48,77.30 -21.06,78.31 -20.99,79.40 -20.91,80.49 -21.19,81.55 -21.47,82.61 -22.07,83.52 -22.67,84.43 -23.53,85.11 -24.39,85.78 -25.42,86.15 -26.45,86.51 -27.54,86.53 -28.64,86.54 -29.68,86.21 -30.72,85.87 -31.60,85.22 -32.48,84.58 -33.10,83.68 -33.73,82.78 -34.04,81.74 -34.35,80.69 -34.30,79.59 -34.26,78.50 -33.87,77.48 -33.48,76.46 -32.78,75.62 -32.09,74.77 -31.16,74.19 -30.23,73.62 -29.17,73.37 -28.10,73.12 -27.01,73.22 -25.93,73.32 -24.93,73.77 -23.93,74.21 -23.12,74.95 -22.32,75.69 -21.79,76.65 -21.27,77.61 -21.08,78.68 -20.88,79.76 -21.04,80.84 -21.21,81.92 -21.70,82.90 -22.20,83.87 -22.98,84.63 -23.77,85.40 -24.75,85.87 -25.74,86.34 -26.82,86.48 -27.91,86.61 -28.98,86.39 -30.05,86.17 -31.00,85.62 -31.94,85.07 -32.66,84.25 -33.38,83.42 -33.38,83.43 -33.38,83.43 -34.78,80.68 -36.18,77.94 -37.29,75.56 -38.39,73.18 -39.72,70.51 -41.05,67.84 -42.55,65.24 -44.05,62.63 -45.31,60.47 -46.56,58.31 -47.71,56.18 -48.86,54.05 -50.69,51.40 -52.52,48.76 -54.21,46.11 -55.90,43.45 -57.49,41.81 -59.08,40.16 -61.26,37.96 -63.44,35.75 -65.25,34.07 -67.05,32.40 -69.66,29.92 -72.27,27.44 -74.72,25.92 -77.18,24.40 -80.01,21.69 -82.84,18.98 -83.95,16.44 -85.05,13.90 -85.96,11.55 -86.86,9.20 -86.74,6.22 -86.62,3.24 -86.35,0.57 -86.08,-2.10 -85.26,-5.78 -84.44,-9.46 -83.89,-12.19 -83.34,-14.92 -82.24,-18.05 -81.13,-21.18 -79.90,-23.08 -78.68,-24.99 -77.06,-26.70 -75.44,-28.40 -73.53,-29.96 -71.63,-31.52 -68.53,-33.27 -65.43,-35.02 -63.30,-34.94 -61.18,-34.87 -58.95,-34.65 -56.72,-34.42 -54.30,-34.08 -51.88,-33.74 -49.07,-33.17 -46.26,-32.60 -42.37,-31.52 -38.47,-30.43 -35.05,-28.42 -31.63,-26.42 -26.98,-23.85 -22.33,-21.28 -17.52,-18.53 -12.71,-15.78 -7.97,-12.16 -3.24,-8.53 -0.17,-5.71 2.88,-2.88 3.19,-2.49 3.49,-2.11 3.69,-1.66 3.89,-1.21 3.98,-0.73 4.07,-0.24 4.04,0.24 4.01,0.73 3.86,1.20 3.72,1.67 3.46,2.09 3.21,2.51 2.86,2.86 2.51,3.21 2.09,3.46 1.67,3.72 1.20,3.86 0.73,4.01 0.24,4.04 -0.24,4.07 -0.73,3.98 -1.21,3.89 -1.66,3.69 -2.11,3.49 -2.49,3.19 -2.88,2.88 -2.88,2.88 L -2.88,2.88 Z"></path></g><g transform="translate(79.6241931784673 157.43946790734242) rotate(0 17.917990891517263 29.180728023328243)" stroke="none"><path fill="#a61e4d" d="M -5.28,0 Q -5.28,0 -5.33,-2.08 -5.39,-4.16 -4.73,-7.15 -4.08,-10.15 -3.13,-12.48 -2.18,-14.82 -0.16,-18.66 1.85,-22.49 3.80,-24.90 5.75,-27.31 7.69,-29.45 9.64,-31.59 12.91,-32.22 16.19,-32.84 19.07,-32.92 21.95,-32.99 25.01,-33.08 28.06,-33.18 30.77,-33.25 33.47,-33.33 35.74,-33.36 38.01,-33.39 41.03,-32.75 44.05,-32.11 45.99,-30.31 47.92,-28.51 49.60,-26.78 51.28,-25.05 52.27,-21.68 53.25,-18.30 54.42,-16.17 55.60,-14.04 56.64,-11.86 57.69,-9.67 58.20,-7.42 58.71,-5.17 58.80,-0.82 58.89,3.52 58.89,7.15 58.88,10.78 58.91,13.37 58.93,15.95 58.89,18.53 58.85,21.11 57.52,24.06 56.20,27.01 54.63,28.89 53.05,30.77 51.15,32.66 49.25,34.56 47.01,37.44 44.78,40.33 43.20,42.11 41.61,43.90 38.84,46.39 36.06,48.88 33.36,50.42 30.67,51.95 27.24,55.49 23.81,59.04 22.02,60.93 20.22,62.82 18.53,64.71 16.84,66.60 14.67,68.84 12.51,71.08 9.76,74.20 7.01,77.33 4.47,79.34 1.93,81.34 0.38,82.95 -1.16,84.55 -3.07,86.28 -4.98,88.01 -7.50,88.42 -10.02,88.82 -10.14,88.69 -10.25,88.55 -10.98,89.43 -11.71,90.32 -12.69,90.92 -13.66,91.53 -14.78,91.79 -15.89,92.05 -17.04,91.95 -18.18,91.84 -19.23,91.37 -20.28,90.90 -21.12,90.12 -21.96,89.35 -22.51,88.34 -23.07,87.33 -23.27,86.21 -23.47,85.08 -23.30,83.94 -23.13,82.81 -22.61,81.78 -22.08,80.76 -21.26,79.96 -20.44,79.16 -19.40,78.67 -18.37,78.17 -17.23,78.03 -16.09,77.89 -14.97,78.12 -13.84,78.35 -12.85,78.93 -11.86,79.51 -11.11,80.37 -10.35,81.24 -9.91,82.30 -9.47,83.36 -9.39,84.50 -9.32,85.65 -9.61,86.76 -9.90,87.87 -10.53,88.83 -11.16,89.78 -12.07,90.49 -12.97,91.20 -14.05,91.58 -15.13,91.96 -16.28,91.98 -17.43,91.99 -18.52,91.64 -19.61,91.29 -20.54,90.61 -21.46,89.92 -22.12,88.98 -22.77,88.04 -23.09,86.94 -23.42,85.84 -23.37,84.69 -23.32,83.55 -22.91,82.48 -22.50,81.40 -22.50,81.40 -22.50,81.41 -20.24,79.60 -17.97,77.79 -15.12,77.71 -12.27,77.63 -10.84,75.99 -9.40,74.36 -7.14,71.91 -4.88,69.46 -3.03,68.26 -1.19,67.06 0.43,65.61 2.07,64.16 4.94,61.15 7.81,58.13 9.57,56.39 11.34,54.65 12.89,52.90 14.44,51.14 17.69,47.32 20.93,43.51 24.16,41.48 27.39,39.45 29.72,37.45 32.05,35.45 34.44,32.41 36.82,29.37 38.29,27.48 39.76,25.60 41.29,23.87 42.81,22.14 44.15,19.06 45.49,15.97 45.51,13.40 45.53,10.84 45.47,7.29 45.41,3.75 45.29,1.54 45.17,-0.67 44.64,-3.33 44.11,-6.00 43.11,-8.28 42.10,-10.56 41.26,-13.86 40.42,-17.16 37.92,-18.51 35.42,-19.86 32.80,-19.93 30.18,-20.00 28.03,-20.05 25.88,-20.11 22.93,-20.19 19.98,-20.27 17.26,-19.82 14.54,-19.36 12.81,-17.57 11.09,-15.78 9.49,-13.05 7.89,-10.32 6.64,-7.20 5.39,-4.08 5.33,-2.04 5.28,0 5.20,0.63 5.13,1.26 4.90,1.86 4.67,2.45 4.31,2.97 3.95,3.50 3.47,3.92 3.00,4.34 2.43,4.64 1.87,4.94 1.25,5.09 0.63,5.24 -0.00,5.24 -0.63,5.24 -1.25,5.09 -1.87,4.94 -2.43,4.64 -3.00,4.34 -3.47,3.92 -3.95,3.50 -4.31,2.97 -4.67,2.45 -4.90,1.85 -5.13,1.26 -5.20,0.63 -5.28,-0.00 -5.28,-0.00 L -5.28,0 Z"></path></g><g transform="translate(303.85505062088407 199.41876085318302) rotate(0 -28.156842829527363 29.180728023328243)" stroke="none"><path fill="#a61e4d" d="M -5.16,1.14 Q -5.16,1.14 -5.73,-1.49 -6.31,-4.14 -7.93,-7.15 -9.55,-10.16 -11.88,-11.18 -14.20,-12.19 -16.94,-13.41 -19.68,-14.63 -23.11,-14.34 -26.53,-14.05 -30.09,-14.06 -33.65,-14.07 -35.71,-13.30 -37.76,-12.52 -40.53,-11.09 -43.29,-9.66 -44.93,-7.42 -46.57,-5.19 -48.19,-3.10 -49.81,-1.00 -50.69,1.81 -51.56,4.63 -51.62,7.26 -51.69,9.88 -51.67,12.30 -51.65,14.71 -51.63,17.24 -51.60,19.77 -51.58,22.20 -51.55,24.63 -50.13,28.30 -48.71,31.98 -46.86,33.89 -45.00,35.80 -42.59,39.07 -40.17,42.35 -37.28,44.89 -34.40,47.44 -30.95,49.52 -27.49,51.61 -23.71,52.91 -19.92,54.22 -16.79,56.79 -13.67,59.35 -11.34,60.55 -9.01,61.74 -6.05,63.61 -3.09,65.47 -0.76,67.06 1.56,68.65 2.90,70.40 4.25,72.15 4.33,72.04 4.40,71.93 5.11,72.39 5.82,72.86 6.40,73.48 6.98,74.10 7.39,74.84 7.80,75.59 8.02,76.41 8.24,77.22 8.26,78.07 8.28,78.92 8.10,79.75 7.92,80.58 7.54,81.34 7.16,82.10 6.61,82.75 6.07,83.39 5.38,83.89 4.69,84.39 3.91,84.71 3.12,85.03 2.28,85.15 1.44,85.27 0.60,85.19 -0.24,85.11 -1.04,84.82 -1.84,84.54 -3.39,79.21 -4.93,73.89 -4.61,72.79 -4.30,71.70 -3.64,70.76 -2.99,69.83 -2.08,69.15 -1.16,68.48 -0.08,68.13 1.00,67.78 2.13,67.79 3.27,67.81 4.35,68.19 5.42,68.56 6.32,69.27 7.22,69.97 7.84,70.92 8.47,71.87 8.76,72.97 9.05,74.07 8.97,75.21 8.90,76.34 8.46,77.40 8.03,78.45 7.28,79.31 6.53,80.16 5.54,80.74 4.56,81.31 3.45,81.54 2.33,81.77 1.20,81.63 0.07,81.50 -0.95,81.00 -1.98,80.51 -2.79,79.72 -3.61,78.92 -4.13,77.91 -4.65,76.90 -4.82,75.77 -4.99,74.64 -4.79,73.52 -4.59,72.40 -4.04,71.40 -3.49,70.40 -2.66,69.63 -1.82,68.86 -0.78,68.40 0.25,67.93 1.38,67.82 2.52,67.72 3.63,67.98 4.74,68.24 5.70,68.84 6.67,69.44 7.40,70.31 8.12,71.19 8.53,72.26 8.94,73.32 8.98,74.46 9.03,75.59 9.03,75.59 9.03,75.59 6.72,73.76 4.40,71.93 5.11,72.39 5.82,72.86 6.40,73.48 6.98,74.10 7.39,74.84 7.80,75.59 8.02,76.40 8.24,77.22 8.26,78.07 8.28,78.92 8.10,79.75 7.92,80.58 7.54,81.34 7.16,82.10 6.61,82.75 6.07,83.39 5.38,83.89 4.69,84.39 3.91,84.71 3.12,85.03 2.28,85.15 1.44,85.27 0.60,85.19 -0.24,85.11 -1.04,84.83 -1.84,84.54 -2.36,84.12 -2.89,83.69 -5.12,81.83 -7.35,79.97 -9.43,77.76 -11.51,75.55 -14.67,73.81 -17.83,72.06 -19.93,70.86 -22.03,69.66 -24.38,67.65 -26.72,65.64 -29.10,64.84 -31.49,64.04 -34.00,62.53 -36.52,61.02 -39.34,59.11 -42.15,57.20 -44.01,55.73 -45.87,54.27 -48.07,52.24 -50.27,50.22 -51.92,48.21 -53.57,46.19 -55.18,44.21 -56.78,42.24 -58.36,40.37 -59.93,38.51 -61.75,35.54 -63.57,32.57 -64.37,29.82 -65.16,27.08 -65.15,24.51 -65.14,21.94 -65.11,19.67 -65.07,17.41 -65.03,14.87 -65.00,12.33 -64.94,9.16 -64.88,6.00 -64.51,2.63 -64.15,-0.74 -63.33,-3.13 -62.51,-5.52 -60.56,-8.34 -58.60,-11.15 -56.38,-13.79 -54.15,-16.43 -51.70,-18.65 -49.24,-20.87 -46.39,-22.29 -43.53,-23.71 -39.96,-25.28 -36.40,-26.85 -33.53,-26.83 -30.65,-26.82 -27.00,-26.79 -23.34,-26.77 -20.06,-26.52 -16.79,-26.26 -14.44,-25.08 -12.10,-23.90 -10.01,-23.41 -7.92,-22.93 -5.51,-21.53 -3.10,-20.12 -1.51,-17.76 0.06,-15.41 1.08,-13.39 2.09,-11.38 3.02,-8.92 3.96,-6.45 4.56,-3.80 5.16,-1.14 5.22,-0.51 5.28,0.12 5.19,0.75 5.10,1.38 4.86,1.97 4.62,2.56 4.25,3.08 3.87,3.59 3.38,4.00 2.90,4.41 2.33,4.70 1.76,4.98 1.13,5.12 0.51,5.26 -0.12,5.24 -0.75,5.23 -1.37,5.06 -1.98,4.89 -2.54,4.59 -3.10,4.28 -3.57,3.84 -4.03,3.41 -4.38,2.88 -4.73,2.34 -4.94,1.74 -5.16,1.14 -5.16,1.14 L -5.16,1.14 Z"></path></g><g transform="translate(305.90282100848583 203.514301628387) rotate(0 33.276268798532215 24.061302054323278)" stroke="none"><path fill="#a61e4d" d="M -5.10,-1.45 Q -5.10,-1.45 -4.55,-3.55 -3.99,-5.65 -2.57,-9.27 -1.14,-12.88 1.30,-15.28 3.75,-17.69 6.36,-19.46 8.96,-21.24 12.61,-24.06 16.26,-26.88 18.65,-26.95 21.05,-27.01 23.31,-26.61 25.56,-26.21 27.92,-25.69 30.29,-25.17 33.45,-26.22 36.62,-27.27 40.12,-27.27 43.62,-27.27 46.89,-27.25 50.16,-27.24 53.19,-27.23 56.22,-27.23 58.31,-26.69 60.41,-26.15 62.50,-24.55 64.60,-22.95 67.68,-20.95 70.76,-18.95 71.75,-16.46 72.74,-13.98 73.18,-10.80 73.62,-7.62 73.25,-4.13 72.89,-0.64 71.95,1.71 71.02,4.06 69.06,8.61 67.10,13.15 66.36,15.15 65.61,17.14 64.26,20.52 62.90,23.89 61.89,27.05 60.88,30.21 60.18,32.33 59.49,34.44 58.28,37.81 57.07,41.19 55.57,43.02 54.07,44.85 51.96,46.39 49.84,47.94 46.47,50.61 43.10,53.27 40.96,54.84 38.82,56.40 36.09,59.13 33.35,61.86 29.71,65.12 26.07,68.37 23.87,69.78 21.68,71.19 19.95,72.93 18.22,74.67 17.29,75.32 16.35,75.98 15.26,76.30 14.16,76.62 13.02,76.57 11.88,76.52 10.82,76.12 9.75,75.71 8.87,74.98 8.00,74.26 7.39,73.29 6.79,72.32 6.53,71.21 6.27,70.10 6.38,68.96 6.49,67.83 6.95,66.78 7.42,65.74 8.19,64.90 8.96,64.07 9.96,63.52 10.96,62.97 12.09,62.77 13.21,62.57 14.34,62.74 15.47,62.91 16.48,63.43 17.50,63.95 18.29,64.77 19.09,65.58 19.58,66.61 20.07,67.64 20.21,68.77 20.35,69.91 20.12,71.02 19.89,72.14 19.31,73.13 18.74,74.11 17.88,74.86 17.02,75.61 15.97,76.05 14.91,76.48 13.78,76.56 12.64,76.64 11.53,76.35 10.43,76.06 9.48,75.43 8.53,74.80 7.82,73.90 7.12,73.00 6.74,71.93 6.36,70.85 6.35,69.71 6.33,68.57 6.68,67.49 7.03,66.40 7.71,65.48 8.39,64.57 8.39,64.57 8.39,64.57 9.99,63.05 11.60,61.53 13.86,60.06 16.12,58.58 19.15,56.11 22.18,53.64 24.99,50.82 27.80,48.01 30.90,45.27 34.00,42.53 36.29,40.95 38.58,39.37 40.28,37.80 41.97,36.24 43.75,34.62 45.54,33.00 46.68,30.85 47.81,28.69 48.67,26.21 49.53,23.72 50.45,20.84 51.37,17.96 52.39,15.46 53.40,12.97 54.21,10.41 55.02,7.85 55.89,5.57 56.75,3.29 58.09,-0.79 59.43,-4.87 59.63,-7.44 59.83,-10.00 57.93,-11.86 56.03,-13.72 53.10,-13.71 50.17,-13.70 46.93,-13.68 43.69,-13.65 40.29,-14.31 36.90,-14.96 34.76,-13.73 32.62,-12.49 30.28,-12.21 27.94,-11.92 25.78,-12.44 23.62,-12.95 21.46,-13.46 19.30,-13.97 16.09,-11.57 12.87,-9.17 10.55,-8.14 8.22,-7.11 7.28,-4.84 6.35,-2.58 5.72,-0.56 5.10,1.45 4.85,2.04 4.60,2.63 4.22,3.15 3.84,3.66 3.34,4.07 2.85,4.47 2.27,4.75 1.69,5.02 1.07,5.15 0.44,5.29 -0.19,5.26 -0.83,5.24 -1.44,5.06 -2.06,4.89 -2.61,4.57 -3.17,4.25 -3.63,3.81 -4.10,3.37 -4.44,2.83 -4.78,2.29 -4.99,1.68 -5.19,1.08 -5.25,0.44 -5.30,-0.19 -5.20,-0.82 -5.10,-1.45 -5.10,-1.45 L -5.10,-1.45 Z"></path></g></svg>
